SplineFontDB: 3.0
FontName: Antic-Regular
FullName: Antic
FamilyName: Antic
Weight: Regular
Copyright: Copyright (c) 2010, 2011, Santiago Orozco <hi@typemade.mx>, with Reserved Font Name "Antic"
Version: 1.0002
ItalicAngle: 0
UnderlinePosition: -50
UnderlineWidth: 50
Ascent: 750
Descent: 250
sfntRevision: 0x00010000
LayerCount: 2
Layer: 0 1 "Back"  1
Layer: 1 1 "Fore"  0
NeedsXUIDChange: 1
XUID: [1021 288 713564382 11403540]
FSType: 0
OS2Version: 3
OS2_WeightWidthSlopeOnly: 0
OS2_UseTypoMetrics: 1
CreationTime: 1312752692
ModificationTime: 1315139981
PfmFamily: 33
TTFWeight: 400
TTFWidth: 5
LineGap: 0
VLineGap: 0
Panose: 0 0 0 0 0 0 0 0 0 0
OS2TypoAscent: 940
OS2TypoAOffset: 0
OS2TypoDescent: -251
OS2TypoDOffset: 0
OS2TypoLinegap: 0
OS2WinAscent: 940
OS2WinAOffset: 0
OS2WinDescent: 251
OS2WinDOffset: 0
HheadAscent: 940
HheadAOffset: 0
HheadDescent: -251
HheadDOffset: 0
OS2SubXSize: 700
OS2SubYSize: 650
OS2SubXOff: 0
OS2SubYOff: 140
OS2SupXSize: 700
OS2SupYSize: 650
OS2SupXOff: 0
OS2SupYOff: 477
OS2StrikeYSize: 50
OS2StrikeYPos: 250
OS2Vendor: 'pyrs'
OS2CodePages: 20000111.00000000
OS2UnicodeRanges: 80000027.0800200a.14000000.00000000
Lookup: 258 0 0 "'kern' Horizontal Kerning in Latin lookup 0"  {"'kern' Horizontal Kerning in Latin lookup 0 per glyph data 0"  "'kern' Horizontal Kerning in Latin lookup 0 per glyph data 1"  "'kern' Horizontal Kerning in Latin lookup 0 kerning class 2"  } ['kern' ('latn' <'dflt' > ) ]
MarkAttachClasses: 1
DEI: 91125
KernClass2: 32+ 21 "'kern' Horizontal Kerning in Latin lookup 0 kerning class 2" 
 50 A Agrave Aacute Acircumflex Atilde Adieresis Aring
 10 C Ccedilla
 5 D Eth
 37 E Egrave Eacute Ecircumflex Edieresis
 1 G
 52 H I J M N Igrave Iacute Icircumflex Idieresis Ntilde
 1 K
 1 L
 46 O Q Ograve Oacute Ocircumflex Otilde Odieresis
 1 R
 1 S
 1 T
 37 U Ugrave Uacute Ucircumflex Udieresis
 1 W
 18 Y Yacute Ydieresis
 63 a h m n agrave aacute acircumflex atilde adieresis aring ntilde
 9 at oslash
 9 b p thorn
 10 c ccedilla

StartChar: exclam
Encoding: 33 33 4
Width: 282
GlyphClass: 2
Flags: HW
LayerCount: 2
Fore
SplineSet
172 129 m 1,0,-1
 112 129 l 1,1,-1
 112 695 l 1,2,-1
 172 700 l 1,3,-1
 172 129 l 1,0,-1
162.428571429 47.8571428571 m 0,4,5
 138.354037267 47.8571428571 138.354037267 47.8571428571 124.391304348 31.8 c 0,6,7
 110.428571429 15.7428571429 110.428571429 15.7428571429 110.428571429 -3.12857142857 c 128,-1,8
 110.428571429 -22 110.428571429 -22 126 -22 c 0,9,10
 145 -22 145 -22 160.142857143 -6.85714285714 c 0,11,12
 175.285714286 8.28571428571 175.285714286 8.28571428571 175.285714286 28.0714285714 c 128,-1,13
 175.285714286 47.8571428571 175.285714286 47.8571428571 162.428571429 47.8571428571 c 0,4,5
EndSplineSet
EndChar

StartChar: quotedbl
Encoding: 34 34 5
Width: 358
GlyphClass: 2
Flags: HW
LayerCount: 2
Fore
SplineSet
128 719 m 1,0,1
 125 704 125 704 123.5 684.5 c 128,-1,2
 122 665 122 665 120 641.666666667 c 0,3,4
 118 618.333333333 118 618.333333333 118 603 c 1,5,-1
 80 600 l 2,6,7
 80 601 80 601 77.5 633.5 c 128,-1,8
 75 666 75 666 74 718 c 1,9,-1
 128 719 l 1,0,1
248 719 m 1,10,11
 245 704 245 704 243.5 684.5 c 128,-1,12
 242 665 242 665 240 641.666666667 c 0,13,14
 238 618.333333333 238 618.333333333 238 603 c 1,15,-1
 200 600 l 2,16,17
 200 601 200 601 197.5 633.5 c 128,-1,18
 195 666 195 666 194 718 c 1,19,-1
 248 719 l 1,10,11
EndSplineSet
EndChar

StartChar: numbersign
Encoding: 35 35 6
Width: 600
GlyphClass: 2
Flags: HW
LayerCount: 2
Fore
SplineSet
69 516 m 1,0,-1
 191 516 l 1,1,-1
 220 679 l 1,2,-1
 280 679 l 1,3,-1
 251 516 l 1,4,-1
 393 516 l 1,5,-1
 422 679 l 1,6,-1
 482 679 l 1,7,-1
 453 516 l 1,8,-1
 560 516 l 1,9,-1
 554 458 l 1,10,-1
 443 458 l 1,11,-1
 413 287 l 1,12,-1
 520 287 l 1,13,-1
 514 229 l 1,14,-1
 403 229 l 1,15,-1
 371 44 l 1,16,-1
 311 44 l 1,17,-1
 343 229 l 1,18,-1
 201 229 l 1,19,-1
 169 44 l 1,20,-1
 109 44 l 1,21,-1
 141 229 l 1,22,-1
 23 229 l 1,23,-1
 29 287 l 1,24,-1
 151 287 l 1,25,-1
 181 458 l 1,26,-1
 63 458 l 1,27,-1
 69 516 l 1,0,-1
211 287 m 1,28,-1
 353 287 l 1,29,-1
 383 458 l 1,30,-1
 241 458 l 1,31,-1
 211 287 l 1,28,-1
EndSplineSet
EndChar

StartChar: dollar
Encoding: 36 36 7
Width: 583
GlyphClass: 2
Flags: HW
LayerCount: 2
Fore
SplineSet
440 531 m 1,0,1
 344 547 344 547 306 547 c 2,2,-1
 301 547 l 1,3,-1
 301 334 l 1,4,5
 389.479274611 310.579015544 389.479274611 310.579015544 422.739637306 287.789507772 c 128,-1,6
 456 265 456 265 472.5 236.5 c 128,-1,7
 489 208 489 208 489 166 c 0,8,9
 489 88.2307692308 489 88.2307692308 436.588888889 45.8987179487 c 128,-1,10
 384.177777778 3.56666666667 384.177777778 3.56666666667 301 -3 c 1,11,-1
 301 -100 l 1,12,-1
 266 -100 l 1,13,-1
 266 -4 l 1,14,15
 122 4 122 4 65 52 c 1,16,-1
 86 97 l 1,17,18
 126.090909091 62.6363636364 126.090909091 62.6363636364 216.5 52 c 0,19,20
 242 49 242 49 264 49 c 2,21,-1
 266 49 l 1,22,-1
 266 288 l 1,23,24
 176.923076923 311.57918552 176.923076923 311.57918552 146.461538462 331.28959276 c 128,-1,25
 116 351 116 351 100 376 c 128,-1,26
 84 401 84 401 84 440 c 0,27,28
 84 509 84 509 133 551 c 128,-1,29
 182 593 182 593 266 599 c 1,30,-1
 266 700 l 1,31,-1
 301 700 l 1,32,-1
 301 600 l 1,33,34
 356.9 597.85 356.9 597.85 452 582 c 1,35,-1
 440 531 l 1,0,1
419 115.5 m 0,36,37
 429 135 429 135 429 161.5 c 0,38,39
 429 208.8 429 208.8 390.5 238.5 c 0,40,41
 364.706161137 258.398104265 364.706161137 258.398104265 301 278 c 1,42,-1
 301 51 l 1,43,44
 391.054380665 61.0060422961 391.054380665 61.0060422961 419 115.5 c 0,36,37
149 446 m 0,45,46
 149 387.76744186 149 387.76744186 220.5 359.5 c 0,47,48
 242 351 242 351 266 344 c 1,49,-1
 266 544 l 1,50,51
 209 537 209 537 179 512 c 128,-1,52
 149 487 149 487 149 446 c 0,45,46
EndSplineSet
EndChar

StartChar: percent
Encoding: 37 37 8
Width: 653
GlyphClass: 2
Flags: HW
LayerCount: 2
Fore
SplineSet
558 500 m 1,0,-1
 180 0 l 1,1,-1
 120 0 l 1,2,-1
 498 500 l 1,3,-1
 558 500 l 1,0,-1
89.5 342 m 0,4,5
 80 365 80 365 80 394.5 c 0,6,7
 80 448.40625 80 448.40625 114.712121212 484.203125 c 128,-1,8
 149.424242424 520 149.424242424 520 200 520 c 0,9,10
 320 520 320 520 320 400 c 0,11,12
 320 349.424242424 320 349.424242424 284.203125 314.712121212 c 128,-1,13
 248.40625 280 248.40625 280 200 280 c 0,14,15
 115.108695652 280 115.108695652 280 89.5 342 c 0,4,5
143 458 m 128,-1,17
 120 434 120 434 120 396 c 128,-1,18
 120 358 120 358 143 338 c 128,-1,19
 166 318 166 318 199.5 318 c 128,-1,20
 233 318 233 318 256.5 341.5 c 128,-1,21
 280 365 280 365 280 403.5 c 128,-1,22
 280 442 280 442 256.5 462 c 128,-1,23
 233 482 233 482 199.5 482 c 128,-1,16
 166 482 166 482 143 458 c 128,-1,17
379.5 57 m 0,24,25
 370 80 370 80 370 109.5 c 0,26,27
 370 163.40625 370 163.40625 404.712121212 199.203125 c 128,-1,28
 439.424242424 235 439.424242424 235 490 235 c 0,29,30
 610 235 610 235 610 115 c 0,31,32
 610 64.4242424242 610 64.4242424242 574.203125 29.7121212121 c 128,-1,33
 538.40625 -5 538.40625 -5 490 -5 c 0,34,35
 405.108695652 -5 405.108695652 -5 379.5 57 c 0,24,25
433 173 m 128,-1,37
 410 149 410 149 410 111 c 128,-1,38
 410 73 410 73 433 53 c 128,-1,39
 456 33 456 33 489.5 33 c 128,-1,40
 523 33 523 33 546.5 56.5 c 128,-1,41
 570 80 570 80 570 118.5 c 128,-1,42
 570 157 570 157 546.5 177 c 128,-1,43
 523 197 523 197 489.5 197 c 128,-1,36
 456 197 456 197 433 173 c 128,-1,37
EndSplineSet
EndChar

StartChar: ampersand
Encoding: 38 38 9
Width: 938
GlyphClass: 2
Flags: HW
LayerCount: 2
Fore
SplineSet
255 461 m 1,0,1
 199 545 199 545 199 599.357142857 c 128,-1,2
 199 653.714285714 199 653.714285714 238 695.5 c 0,3,4
 287.933333333 749 287.933333333 749 376 749 c 0,5,6
 443.615384615 749 443.615384615 749 502 716 c 0,7,8
 525 703 525 703 539.5 690.5 c 128,-1,9
 554 678 554 678 560 674 c 1,10,-1
 524 634 l 1,11,12
 484.354679803 668.689655172 484.354679803 668.689655172 425.5 687 c 0,13,14
 403 694 403 694 373.5 694 c 128,-1,15
 344 694 344 694 321 682.5 c 0,16,17
 264 654 264 654 264 591.74 c 0,18,19
 264 476.642857143 264 476.642857143 604 167 c 1,20,21
 658.896551724 235.620689655 658.896551724 235.620689655 686 335 c 1,22,-1
 743 322 l 1,23,24
 730.490909091 259.454545455 730.490909091 259.454545455 690 188 c 0,25,26
 673 158 673 158 648 128 c 1,27,28
 732.782608696 53.3913043478 732.782608696 53.3913043478 777 19 c 1,29,-1
 739 -27 l 1,30,31
 691.661538462 9.2 691.661538462 9.2 606 86 c 1,32,33
 499.421052632 -4 499.421052632 -4 338 -4 c 0,34,35
 211 -4 211 -4 141 52.5 c 128,-1,36
 71 109 71 109 71 229 c 0,37,38
 71 376.164179104 71 376.164179104 180.5 435 c 0,39,40
 214 453 214 453 255 461 c 1,0,1
136 231 m 0,41,42
 136 51 136 51 353 51 c 0,43,44
 474.125 51 474.125 51 562 125 c 1,45,46
 391.617977528 280.348314607 391.617977528 280.348314607 290 411 c 1,47,48
 217 403 217 403 176.5 357.5 c 128,-1,49
 136 312 136 312 136 231 c 0,41,42
EndSplineSet
EndChar

StartChar: quotesingle
Encoding: 39 39 10
Width: 200
GlyphClass: 2
Flags: HW
LayerCount: 2
Fore
SplineSet
64 573 m 1,0,-1
 65 630 l 1,1,-1
 65 676 l 2,2,3
 65 700 65 700 64 715 c 1,4,-1
 118 718 l 1,5,6
 118 653 118 653 113 588 c 2,7,-1
 112 575 l 1,8,-1
 64 573 l 1,0,-1
EndSplineSet
EndChar

StartChar: parenleft
Encoding: 40 40 11
Width: 346
GlyphClass: 2
Flags: HW
LayerCount: 2
Fore
SplineSet
267 721 m 1,0,1
 211.345128454 689.604944256 211.345128454 689.604944256 170.172564227 579.262472128 c 128,-1,2
 129 468.92 129 468.92 129 270 c 0,3,4
 129 -30 129 -30 228 -145.5 c 0,5,6
 247.5 -168.25 247.5 -168.25 267 -178 c 1,7,-1
 235 -200 l 1,8,9
 233 -199 233 -199 219 -193 c 128,-1,10
 205 -187 205 -187 186 -169.5 c 0,11,12
 136.396731055 -123.812778603 136.396731055 -123.812778603 106 -36 c 0,13,14
 64 85.3333333333 64 85.3333333333 64 270 c 0,15,16
 64 539.1875 64 539.1875 149 672 c 0,17,18
 187 730 187 730 235 750 c 1,19,-1
 267 721 l 1,0,1
EndSplineSet
EndChar

StartChar: parenright
Encoding: 41 41 12
Width: 400
GlyphClass: 2
Flags: HW
LayerCount: 2
Fore
SplineSet
96 750 m 1,0,1
 164.813397129 720.717703349 164.813397129 720.717703349 215.906698565 603.697561352 c 128,-1,2
 267 486.677419355 267 486.677419355 267 286.005376344 c 0,3,4
 267 -57.1315789474 267 -57.1315789474 145 -169.5 c 0,5,6
 120.895522388 -191.701492537 120.895522388 -191.701492537 96 -200 c 1,7,-1
 64 -178 l 1,8,9
 99.4942528736 -160.252873563 99.4942528736 -160.252873563 135.5 -97.5 c 0,10,11
 202 18.4 202 18.4 202 267.007692308 c 128,-1,12
 202 515.615384615 202 515.615384615 133 643 c 0,13,14
 102 699 102 699 64 721 c 1,15,-1
 96 750 l 1,0,1
EndSplineSet
EndChar

StartChar: asterisk
Encoding: 42 42 13
Width: 556
GlyphClass: 2
Flags: HW
LayerCount: 2
Fore
SplineSet
274 736 m 1,0,-1
 322 735 l 1,1,2
 322 697 322 697 314 613 c 1,3,-1
 427 656 l 1,4,-1
 443 609 l 1,5,6
 407.097560976 596.658536585 407.097560976 596.658536585 325 578 c 1,7,-1
 400 483 l 1,8,-1
 361 454 l 1,9,10
 339 483 339 483 321.5 512 c 128,-1,11
 304 541 304 541 293 559 c 1,12,-1
 225 457 l 1,13,-1
 186 485 l 1,14,15
 207 513 207 513 228.5 538.5 c 128,-1,16
 250 564 250 564 264 581 c 1,17,-1
 148 613 l 1,18,-1
 162 660 l 1,19,20
 210.941176471 643.176470588 210.941176471 643.176470588 278 613 c 1,21,22
 278 692 278 692 274 736 c 1,0,-1
EndSplineSet
EndChar

StartChar: plus
Encoding: 43 43 14
Width: 799
GlyphClass: 2
Flags: HW
LayerCount: 2
Fore
SplineSet
366 290 m 1,0,-1
 366 500 l 1,1,-1
 426 500 l 1,2,-1
 426 290 l 1,3,-1
 646 290 l 1,4,-1
 646 232 l 1,5,-1
 426 232 l 1,6,-1
 426 0 l 1,7,-1
 366 0 l 1,8,-1
 366 232 l 1,9,-1
 146 232 l 1,10,-1
 146 290 l 1,11,-1
 366 290 l 1,0,-1
EndSplineSet
EndChar

StartChar: comma
Encoding: 44 44 15
Width: 110
GlyphClass: 2
Flags: HW
LayerCount: 2
Fore
SplineSet
33 65 m 1,0,1
 87 64 l 1,2,3
 87 10 87 10 63 -86 c 1,4,-1
 59 -103 l 1,5,-1
 13 -101 l 2,6,7
 13 -100 13 -100 23.125 -40.6964285714 c 0,8,9
 33.25 18.6071428571 33.25 18.6071428571 33.25 39.9285714286 c 128,-1,10
 33.25 61.25 33.25 61.25 33 65 c 1,0,1
EndSplineSet
EndChar

StartChar: hyphen
Encoding: 45 45 16
Width: 600
GlyphClass: 2
Flags: HW
LayerCount: 2
Fore
SplineSet
448 290 m 1,0,-1
 448 232 l 1,1,-1
 146 232 l 1,2,-1
 146 290 l 1,3,-1
 448 290 l 1,0,-1
EndSplineSet
EndChar

StartChar: period
Encoding: 46 46 17
Width: 143
GlyphClass: 2
Flags: HW
LayerCount: 2
Fore
SplineSet
41.5 2 m 128,-1,1
 34 12 34 12 34 30 c 128,-1,2
 34 48 34 48 43.5 59 c 128,-1,3
 53 70 53 70 71.5 70 c 0,4,5
 104 70 104 70 104 29 c 0,6,7
 104 12 104 12 93.5 2 c 128,-1,8
 83 -8 83 -8 66 -8 c 128,-1,0
 49 -8 49 -8 41.5 2 c 128,-1,1
EndSplineSet
EndChar

StartChar: slash
Encoding: 47 47 18
Width: 600
GlyphClass: 2
Flags: HW
LayerCount: 2
Fore
SplineSet
490 749 m 1,0,-1
 172 -200 l 1,1,-1
 112 -200 l 1,2,-1
 430 749 l 1,3,-1
 490 749 l 1,0,-1
EndSplineSet
EndChar

StartChar: zero
Encoding: 48 48 19
Width: 700
GlyphClass: 2
Flags: HW
LayerCount: 2
Fore
SplineSet
213 118 m 0,0,1
 264.685714286 51 264.685714286 51 350 51 c 256,2,3
 432.27027027 51 432.27027027 51 489.635135135 129.611111111 c 128,-1,4
 547 208.222222222 547 208.222222222 547 346.416666667 c 128,-1,5
 547 484.611111111 547 484.611111111 490.570422535 558.805555556 c 1,6,7
 409.437443469 623.833516421 409.437443469 623.833516421 350 633 c 257,8,9
 268.459459459 633 268.459459459 633 210.72972973 553.888888889 c 128,-1,10
 153 474.777777778 153 474.777777778 153 335.277777778 c 128,-1,11
 153 195.777777778 153 195.777777778 213 118 c 0,0,1
162.079545455 595.082191781 m 128,-1,13
 239.159090909 688 239.159090909 688 350 688 c 256,14,15
 464.647058824 688 464.647058824 688 539.823529412 600.465753425 c 128,-1,16
 615 512.931506849 615 512.931506849 615 347.383561644 c 128,-1,17
 615 181.835616438 615 181.835616438 537.920454545 88.9178082192 c 128,-1,18
 460.840909091 -4 460.840909091 -4 350 -4 c 256,19,20
 234.023809524 -4 234.023809524 -4 164.5 76 c 0,21,22
 85 167.479452055 85 167.479452055 85 334.821917808 c 128,-1,12
 85 502.164383562 85 502.164383562 162.079545455 595.082191781 c 128,-1,13
EndSplineSet
PairPos2: "'kern' Horizontal Kerning in Latin lookup 0 per glyph data 1" dotlessi dx=0 dy=0 dh=-93 dv=0 dx=0 dy=0 dh=0 dv=0
PairPos2: "'kern' Horizontal Kerning in Latin lookup 0 per glyph data 1" thorn dx=0 dy=0 dh=-93 dv=0 dx=0 dy=0 dh=0 dv=0
PairPos2: "'kern' Horizontal Kerning in Latin lookup 0 per glyph data 1" ntilde dx=0 dy=0 dh=-93 dv=0 dx=0 dy=0 dh=0 dv=0
PairPos2: "'kern' Horizontal Kerning in Latin lookup 0 per glyph data 1" idieresis dx=0 dy=0 dh=-93 dv=0 dx=0 dy=0 dh=0 dv=0
PairPos2: "'kern' Horizontal Kerning in Latin lookup 0 per glyph data 1" icircumflex dx=0 dy=0 dh=-93 dv=0 dx=0 dy=0 dh=0 dv=0
PairPos2: "'kern' Horizontal Kerning in Latin lookup 0 per glyph data 1" iacute dx=0 dy=0 dh=-93 dv=0 dx=0 dy=0 dh=0 dv=0
PairPos2: "'kern' Horizontal Kerning in Latin lookup 0 per glyph data 1" igrave dx=0 dy=0 dh=-93 dv=0 dx=0 dy=0 dh=0 dv=0
PairPos2: "'kern' Horizontal Kerning in Latin lookup 0 per glyph data 1" germandbls dx=0 dy=0 dh=-93 dv=0 dx=0 dy=0 dh=0 dv=0
PairPos2: "'kern' Horizontal Kerning in Latin lookup 0 per glyph data 1" mu dx=0 dy=0 dh=-93 dv=0 dx=0 dy=0 dh=0 dv=0
PairPos2: "'kern' Horizontal Kerning in Latin lookup 0 per glyph data 1" brokenbar dx=0 dy=0 dh=-93 dv=0 dx=0 dy=0 dh=0 dv=0
PairPos2: "'kern' Horizontal Kerning in Latin lookup 0 per glyph data 1" exclamdown dx=0 dy=0 dh=-93 dv=0 dx=0 dy=0 dh=0 dv=0
PairPos2: "'kern' Horizontal Kerning in Latin lookup 0 per glyph data 1" bar dx=0 dy=0 dh=-93 dv=0 dx=0 dy=0 dh=0 dv=0
PairPos2: "'kern' Horizontal Kerning in Latin lookup 0 per glyph data 1" r dx=0 dy=0 dh=-93 dv=0 dx=0 dy=0 dh=0 dv=0
PairPos2: "'kern' Horizontal Kerning in Latin lookup 0 per glyph data 1" p dx=0 dy=0 dh=-93 dv=0 dx=0 dy=0 dh=0 dv=0
PairPos2: "'kern' Horizontal Kerning in Latin lookup 0 per glyph data 1" n dx=0 dy=0 dh=-93 dv=0 dx=0 dy=0 dh=0 dv=0
PairPos2: "'kern' Horizontal Kerning in Latin lookup 0 per glyph data 1" m dx=0 dy=0 dh=-93 dv=0 dx=0 dy=0 dh=0 dv=0
PairPos2: "'kern' Horizontal Kerning in Latin lookup 0 per glyph data 1" l dx=0 dy=0 dh=-93 dv=0 dx=0 dy=0 dh=0 dv=0
PairPos2: "'kern' Horizontal Kerning in Latin lookup 0 per glyph data 1" k dx=0 dy=0 dh=-93 dv=0 dx=0 dy=0 dh=0 dv=0
PairPos2: "'kern' Horizontal Kerning in Latin lookup 0 per glyph data 1" j dx=0 dy=0 dh=-93 dv=0 dx=0 dy=0 dh=0 dv=0
PairPos2: "'kern' Horizontal Kerning in Latin lookup 0 per glyph data 1" i dx=0 dy=0 dh=-93 dv=0 dx=0 dy=0 dh=0 dv=0
PairPos2: "'kern' Horizontal Kerning in Latin lookup 0 per glyph data 1" h dx=0 dy=0 dh=-93 dv=0 dx=0 dy=0 dh=0 dv=0
PairPos2: "'kern' Horizontal Kerning in Latin lookup 0 per glyph data 1" f dx=0 dy=0 dh=-93 dv=0 dx=0 dy=0 dh=0 dv=0
PairPos2: "'kern' Horizontal Kerning in Latin lookup 0 per glyph data 1" b dx=0 dy=0 dh=-93 dv=0 dx=0 dy=0 dh=0 dv=0
PairPos2: "'kern' Horizontal Kerning in Latin lookup 0 per glyph data 1" bracketright dx=0 dy=0 dh=-93 dv=0 dx=0 dy=0 dh=0 dv=0
PairPos2: "'kern' Horizontal Kerning in Latin lookup 0 per glyph data 1" bracketleft dx=0 dy=0 dh=-93 dv=0 dx=0 dy=0 dh=0 dv=0
PairPos2: "'kern' Horizontal Kerning in Latin lookup 0 per glyph data 1" semicolon dx=0 dy=0 dh=-21 dv=0 dx=0 dy=0 dh=0 dv=0
PairPos2: "'kern' Horizontal Kerning in Latin lookup 0 per glyph data 1" colon dx=0 dy=0 dh=-21 dv=0 dx=0 dy=0 dh=0 dv=0
PairPos2: "'kern' Horizontal Kerning in Latin lookup 0 per glyph data 1" nine dx=0 dy=0 dh=-54 dv=0 dx=0 dy=0 dh=0 dv=0
PairPos2: "'kern' Horizontal Kerning in Latin lookup 0 per glyph data 1" eight dx=0 dy=0 dh=-53 dv=0 dx=0 dy=0 dh=0 dv=0
PairPos2: "'kern' Horizontal Kerning in Latin lookup 0 per glyph data 1" seven dx=0 dy=0 dh=-74 dv=0 dx=0 dy=0 dh=0 dv=0
PairPos2: "'kern' Horizontal Kerning in Latin lookup 0 per glyph data 1" six dx=0 dy=0 dh=-52 dv=0 dx=0 dy=0 dh=0 dv=0
PairPos2: "'kern' Horizontal Kerning in Latin lookup 0 per glyph data 1" five dx=0 dy=0 dh=-60 dv=0 dx=0 dy=0 dh=0 dv=0
PairPos2: "'kern' Horizontal Kerning in Latin lookup 0 per glyph data 1" four dx=0 dy=0 dh=-96 dv=0 dx=0 dy=0 dh=0 dv=0
PairPos2: "'kern' Horizontal Kerning in Latin lookup 0 per glyph data 1" three dx=0 dy=0 dh=-84 dv=0 dx=0 dy=0 dh=0 dv=0
PairPos2: "'kern' Horizontal Kerning in Latin lookup 0 per glyph data 1" two dx=0 dy=0 dh=-70 dv=0 dx=0 dy=0 dh=0 dv=0
PairPos2: "'kern' Horizontal Kerning in Latin lookup 0 per glyph data 1" one dx=0 dy=0 dh=-93 dv=0 dx=0 dy=0 dh=0 dv=0
PairPos2: "'kern' Horizontal Kerning in Latin lookup 0 per glyph data 1" zero dx=0 dy=0 dh=-73 dv=0 dx=0 dy=0 dh=0 dv=0
PairPos2: "'kern' Horizontal Kerning in Latin lookup 0 per glyph data 1" parenright dx=0 dy=0 dh=-93 dv=0 dx=0 dy=0 dh=0 dv=0
PairPos2: "'kern' Horizontal Kerning in Latin lookup 0 per glyph data 1" parenleft dx=0 dy=0 dh=-93 dv=0 dx=0 dy=0 dh=0 dv=0
PairPos2: "'kern' Horizontal Kerning in Latin lookup 0 per glyph data 1" exclam dx=0 dy=0 dh=-93 dv=0 dx=0 dy=0 dh=0 dv=0
EndChar

StartChar: one
Encoding: 49 49 20
Width: 488
GlyphClass: 2
Flags: HW
LayerCount: 2
Fore
SplineSet
77.5 601 m 128,-1,1
 77 613 77 613 77 626 c 1,2,-1
 237 662 l 1,3,-1
 300 662 l 1,4,-1
 300 0 l 1,5,-1
 237 0 l 1,6,-1
 237 613 l 1,7,-1
 78 577 l 1,8,0
 78 589 78 589 77.5 601 c 128,-1,1
EndSplineSet
EndChar

StartChar: two
Encoding: 50 50 21
Width: 572
GlyphClass: 2
Flags: HW
LayerCount: 2
Fore
SplineSet
292 610 m 0,0,1
 226.666666667 610 226.666666667 610 135 566 c 1,2,-1
 110 613 l 1,3,4
 137 628 137 628 189.476190476 647 c 128,-1,5
 241.952380952 666 241.952380952 666 286.976190476 666 c 0,6,7
 376.609756098 666 376.609756098 666 426 628.5 c 0,8,9
 487 582.185185185 487 582.185185185 487 487 c 0,10,11
 487 424 487 424 457.5 367 c 128,-1,12
 428 310 428 310 383 256.5 c 128,-1,13
 338 203 338 203 283 153 c 128,-1,14
 228 103 228 103 177 55 c 1,15,-1
 503 55 l 1,16,-1
 509 0 l 1,17,-1
 101 0 l 1,18,-1
 90 55 l 1,19,20
 164 127 164 127 225 186 c 128,-1,21
 286 245 286 245 329.5 296.5 c 128,-1,22
 373 348 373 348 396.5 394.5 c 128,-1,23
 420 441 420 441 420 489 c 0,24,25
 420 564.76 420 564.76 358 597 c 0,26,27
 333 610 333 610 292 610 c 0,0,1
EndSplineSet
PairPos2: "'kern' Horizontal Kerning in Latin lookup 0 per glyph data 1" dotlessi dx=0 dy=0 dh=-65 dv=0 dx=0 dy=0 dh=0 dv=0
PairPos2: "'kern' Horizontal Kerning in Latin lookup 0 per glyph data 1" thorn dx=0 dy=0 dh=-65 dv=0 dx=0 dy=0 dh=0 dv=0
PairPos2: "'kern' Horizontal Kerning in Latin lookup 0 per glyph data 1" ntilde dx=0 dy=0 dh=-65 dv=0 dx=0 dy=0 dh=0 dv=0
PairPos2: "'kern' Horizontal Kerning in Latin lookup 0 per glyph data 1" idieresis dx=0 dy=0 dh=-65 dv=0 dx=0 dy=0 dh=0 dv=0
PairPos2: "'kern' Horizontal Kerning in Latin lookup 0 per glyph data 1" icircumflex dx=0 dy=0 dh=-65 dv=0 dx=0 dy=0 dh=0 dv=0
PairPos2: "'kern' Horizontal Kerning in Latin lookup 0 per glyph data 1" iacute dx=0 dy=0 dh=-65 dv=0 dx=0 dy=0 dh=0 dv=0
PairPos2: "'kern' Horizontal Kerning in Latin lookup 0 per glyph data 1" igrave dx=0 dy=0 dh=-65 dv=0 dx=0 dy=0 dh=0 dv=0
PairPos2: "'kern' Horizontal Kerning in Latin lookup 0 per glyph data 1" germandbls dx=0 dy=0 dh=-65 dv=0 dx=0 dy=0 dh=0 dv=0
PairPos2: "'kern' Horizontal Kerning in Latin lookup 0 per glyph data 1" mu dx=0 dy=0 dh=-65 dv=0 dx=0 dy=0 dh=0 dv=0
PairPos2: "'kern' Horizontal Kerning in Latin lookup 0 per glyph data 1" brokenbar dx=0 dy=0 dh=-65 dv=0 dx=0 dy=0 dh=0 dv=0
PairPos2: "'kern' Horizontal Kerning in Latin lookup 0 per glyph data 1" exclamdown dx=0 dy=0 dh=-65 dv=0 dx=0 dy=0 dh=0 dv=0
PairPos2: "'kern' Horizontal Kerning in Latin lookup 0 per glyph data 1" bar dx=0 dy=0 dh=-65 dv=0 dx=0 dy=0 dh=0 dv=0
PairPos2: "'kern' Horizontal Kerning in Latin lookup 0 per glyph data 1" r dx=0 dy=0 dh=-65 dv=0 dx=0 dy=0 dh=0 dv=0
PairPos2: "'kern' Horizontal Kerning in Latin lookup 0 per glyph data 1" p dx=0 dy=0 dh=-65 dv=0 dx=0 dy=0 dh=0 dv=0
PairPos2: "'kern' Horizontal Kerning in Latin lookup 0 per glyph data 1" n dx=0 dy=0 dh=-65 dv=0 dx=0 dy=0 dh=0 dv=0
PairPos2: "'kern' Horizontal Kerning in Latin lookup 0 per glyph data 1" m dx=0 dy=0 dh=-65 dv=0 dx=0 dy=0 dh=0 dv=0
PairPos2: "'kern' Horizontal Kerning in Latin lookup 0 per glyph data 1" l dx=0 dy=0 dh=-65 dv=0 dx=0 dy=0 dh=0 dv=0
PairPos2: "'kern' Horizontal Kerning in Latin lookup 0 per glyph data 1" k dx=0 dy=0 dh=-65 dv=0 dx=0 dy=0 dh=0 dv=0
PairPos2: "'kern' Horizontal Kerning in Latin lookup 0 per glyph data 1" j dx=0 dy=0 dh=-65 dv=0 dx=0 dy=0 dh=0 dv=0
PairPos2: "'kern' Horizontal Kerning in Latin lookup 0 per glyph data 1" i dx=0 dy=0 dh=-65 dv=0 dx=0 dy=0 dh=0 dv=0
PairPos2: "'kern' Horizontal Kerning in Latin lookup 0 per glyph data 1" h dx=0 dy=0 dh=-65 dv=0 dx=0 dy=0 dh=0 dv=0
PairPos2: "'kern' Horizontal Kerning in Latin lookup 0 per glyph data 1" f dx=0 dy=0 dh=-65 dv=0 dx=0 dy=0 dh=0 dv=0
PairPos2: "'kern' Horizontal Kerning in Latin lookup 0 per glyph data 1" b dx=0 dy=0 dh=-65 dv=0 dx=0 dy=0 dh=0 dv=0
PairPos2: "'kern' Horizontal Kerning in Latin lookup 0 per glyph data 1" bracketright dx=0 dy=0 dh=-65 dv=0 dx=0 dy=0 dh=0 dv=0
PairPos2: "'kern' Horizontal Kerning in Latin lookup 0 per glyph data 1" bracketleft dx=0 dy=0 dh=-65 dv=0 dx=0 dy=0 dh=0 dv=0
PairPos2: "'kern' Horizontal Kerning in Latin lookup 0 per glyph data 1" nine dx=0 dy=0 dh=-29 dv=0 dx=0 dy=0 dh=0 dv=0
PairPos2: "'kern' Horizontal Kerning in Latin lookup 0 per glyph data 1" eight dx=0 dy=0 dh=-51 dv=0 dx=0 dy=0 dh=0 dv=0
PairPos2: "'kern' Horizontal Kerning in Latin lookup 0 per glyph data 1" seven dx=0 dy=0 dh=-44 dv=0 dx=0 dy=0 dh=0 dv=0
PairPos2: "'kern' Horizontal Kerning in Latin lookup 0 per glyph data 1" six dx=0 dy=0 dh=-44 dv=0 dx=0 dy=0 dh=0 dv=0
PairPos2: "'kern' Horizontal Kerning in Latin lookup 0 per glyph data 1" five dx=0 dy=0 dh=-22 dv=0 dx=0 dy=0 dh=0 dv=0
PairPos2: "'kern' Horizontal Kerning in Latin lookup 0 per glyph data 1" four dx=0 dy=0 dh=-88 dv=0 dx=0 dy=0 dh=0 dv=0
PairPos2: "'kern' Horizontal Kerning in Latin lookup 0 per glyph data 1" three dx=0 dy=0 dh=-43 dv=0 dx=0 dy=0 dh=0 dv=0
PairPos2: "'kern' Horizontal Kerning in Latin lookup 0 per glyph data 1" two dx=0 dy=0 dh=-50 dv=0 dx=0 dy=0 dh=0 dv=0
PairPos2: "'kern' Horizontal Kerning in Latin lookup 0 per glyph data 1" one dx=0 dy=0 dh=-65 dv=0 dx=0 dy=0 dh=0 dv=0
PairPos2: "'kern' Horizontal Kerning in Latin lookup 0 per glyph data 1" zero dx=0 dy=0 dh=-59 dv=0 dx=0 dy=0 dh=0 dv=0
PairPos2: "'kern' Horizontal Kerning in Latin lookup 0 per glyph data 1" parenright dx=0 dy=0 dh=-65 dv=0 dx=0 dy=0 dh=0 dv=0
PairPos2: "'kern' Horizontal Kerning in Latin lookup 0 per glyph data 1" parenleft dx=0 dy=0 dh=-65 dv=0 dx=0 dy=0 dh=0 dv=0
PairPos2: "'kern' Horizontal Kerning in Latin lookup 0 per glyph data 1" exclam dx=0 dy=0 dh=-65 dv=0 dx=0 dy=0 dh=0 dv=0
EndChar

StartChar: three
Encoding: 51 51 22
Width: 560
GlyphClass: 2
Flags: HW
LayerCount: 2
Fore
SplineSet
206 52 m 0,0,1
 413 52 413 52 413 198 c 0,2,3
 413 314.53164557 413 314.53164557 265.5 322 c 0,4,5
 226 324 226 324 190 324 c 1,6,-1
 190 369 l 1,7,-1
 231 369 l 2,8,9
 252 369 252 369 273 368 c 1,10,11
 311.603305785 372.289256198 311.603305785 372.289256198 342.301652893 393.644628099 c 128,-1,12
 373 415 373 415 391 442.5 c 128,-1,13
 409 470 409 470 409 514 c 0,14,15
 409 576.930232558 409 576.930232558 351.5 601 c 0,16,17
 330 610 330 610 297 610 c 0,18,19
 226.666666667 610 226.666666667 610 135 566 c 1,20,-1
 118 616 l 1,21,22
 162.803921569 641.090196078 162.803921569 641.090196078 213.401960784 653.545098039 c 128,-1,23
 264 666 264 666 301 666 c 0,24,25
 378 666 378 666 427.5 628.875 c 128,-1,26
 477 591.75 477 591.75 477 522 c 0,27,28
 477 432.333333333 477 432.333333333 400 381 c 0,29,30
 379 367 379 367 358 358 c 1,31,32
 481 329.615384615 481 329.615384615 481 201 c 0,33,34
 481 47.4242424242 481 47.4242424242 322.5 9 c 0,35,36
 273 -3 273 -3 208.8 -3 c 128,-1,37
 144.6 -3 144.6 -3 87 13 c 1,38,-1
 103 65 l 1,39,40
 140.375 52 140.375 52 206 52 c 0,0,1
EndSplineSet
PairPos2: "'kern' Horizontal Kerning in Latin lookup 0 per glyph data 1" dotlessi dx=0 dy=0 dh=-64 dv=0 dx=0 dy=0 dh=0 dv=0
PairPos2: "'kern' Horizontal Kerning in Latin lookup 0 per glyph data 1" thorn dx=0 dy=0 dh=-64 dv=0 dx=0 dy=0 dh=0 dv=0
PairPos2: "'kern' Horizontal Kerning in Latin lookup 0 per glyph data 1" ntilde dx=0 dy=0 dh=-64 dv=0 dx=0 dy=0 dh=0 dv=0
PairPos2: "'kern' Horizontal Kerning in Latin lookup 0 per glyph data 1" idieresis dx=0 dy=0 dh=-64 dv=0 dx=0 dy=0 dh=0 dv=0
PairPos2: "'kern' Horizontal Kerning in Latin lookup 0 per glyph data 1" icircumflex dx=0 dy=0 dh=-64 dv=0 dx=0 dy=0 dh=0 dv=0
PairPos2: "'kern' Horizontal Kerning in Latin lookup 0 per glyph data 1" iacute dx=0 dy=0 dh=-64 dv=0 dx=0 dy=0 dh=0 dv=0
PairPos2: "'kern' Horizontal Kerning in Latin lookup 0 per glyph data 1" igrave dx=0 dy=0 dh=-64 dv=0 dx=0 dy=0 dh=0 dv=0
PairPos2: "'kern' Horizontal Kerning in Latin lookup 0 per glyph data 1" germandbls dx=0 dy=0 dh=-64 dv=0 dx=0 dy=0 dh=0 dv=0
PairPos2: "'kern' Horizontal Kerning in Latin lookup 0 per glyph data 1" mu dx=0 dy=0 dh=-64 dv=0 dx=0 dy=0 dh=0 dv=0
PairPos2: "'kern' Horizontal Kerning in Latin lookup 0 per glyph data 1" brokenbar dx=0 dy=0 dh=-64 dv=0 dx=0 dy=0 dh=0 dv=0
PairPos2: "'kern' Horizontal Kerning in Latin lookup 0 per glyph data 1" exclamdown dx=0 dy=0 dh=-64 dv=0 dx=0 dy=0 dh=0 dv=0
PairPos2: "'kern' Horizontal Kerning in Latin lookup 0 per glyph data 1" bar dx=0 dy=0 dh=-64 dv=0 dx=0 dy=0 dh=0 dv=0
PairPos2: "'kern' Horizontal Kerning in Latin lookup 0 per glyph data 1" r dx=0 dy=0 dh=-64 dv=0 dx=0 dy=0 dh=0 dv=0
PairPos2: "'kern' Horizontal Kerning in Latin lookup 0 per glyph data 1" p dx=0 dy=0 dh=-64 dv=0 dx=0 dy=0 dh=0 dv=0
PairPos2: "'kern' Horizontal Kerning in Latin lookup 0 per glyph data 1" n dx=0 dy=0 dh=-64 dv=0 dx=0 dy=0 dh=0 dv=0
PairPos2: "'kern' Horizontal Kerning in Latin lookup 0 per glyph data 1" m dx=0 dy=0 dh=-64 dv=0 dx=0 dy=0 dh=0 dv=0
PairPos2: "'kern' Horizontal Kerning in Latin lookup 0 per glyph data 1" l dx=0 dy=0 dh=-64 dv=0 dx=0 dy=0 dh=0 dv=0
PairPos2: "'kern' Horizontal Kerning in Latin lookup 0 per glyph data 1" k dx=0 dy=0 dh=-64 dv=0 dx=0 dy=0 dh=0 dv=0
PairPos2: "'kern' Horizontal Kerning in Latin lookup 0 per glyph data 1" j dx=0 dy=0 dh=-64 dv=0 dx=0 dy=0 dh=0 dv=0
PairPos2: "'kern' Horizontal Kerning in Latin lookup 0 per glyph data 1" i dx=0 dy=0 dh=-64 dv=0 dx=0 dy=0 dh=0 dv=0
PairPos2: "'kern' Horizontal Kerning in Latin lookup 0 per glyph data 1" h dx=0 dy=0 dh=-64 dv=0 dx=0 dy=0 dh=0 dv=0
PairPos2: "'kern' Horizontal Kerning in Latin lookup 0 per glyph data 1" f dx=0 dy=0 dh=-64 dv=0 dx=0 dy=0 dh=0 dv=0
PairPos2: "'kern' Horizontal Kerning in Latin lookup 0 per glyph data 1" b dx=0 dy=0 dh=-64 dv=0 dx=0 dy=0 dh=0 dv=0
PairPos2: "'kern' Horizontal Kerning in Latin lookup 0 per glyph data 1" bracketright dx=0 dy=0 dh=-64 dv=0 dx=0 dy=0 dh=0 dv=0
PairPos2: "'kern' Horizontal Kerning in Latin lookup 0 per glyph data 1" bracketleft dx=0 dy=0 dh=-64 dv=0 dx=0 dy=0 dh=0 dv=0
PairPos2: "'kern' Horizontal Kerning in Latin lookup 0 per glyph data 1" nine dx=0 dy=0 dh=-59 dv=0 dx=0 dy=0 dh=0 dv=0
PairPos2: "'kern' Horizontal Kerning in Latin lookup 0 per glyph data 1" eight dx=0 dy=0 dh=-51 dv=0 dx=0 dy=0 dh=0 dv=0
PairPos2: "'kern' Horizontal Kerning in Latin lookup 0 per glyph data 1" seven dx=0 dy=0 dh=-67 dv=0 dx=0 dy=0 dh=0 dv=0
PairPos2: "'kern' Horizontal Kerning in Latin lookup 0 per glyph data 1" six dx=0 dy=0 dh=-37 dv=0 dx=0 dy=0 dh=0 dv=0
PairPos2: "'kern' Horizontal Kerning in Latin lookup 0 per glyph data 1" five dx=0 dy=0 dh=-36 dv=0 dx=0 dy=0 dh=0 dv=0
PairPos2: "'kern' Horizontal Kerning in Latin lookup 0 per glyph data 1" four dx=0 dy=0 dh=-59 dv=0 dx=0 dy=0 dh=0 dv=0
PairPos2: "'kern' Horizontal Kerning in Latin lookup 0 per glyph data 1" three dx=0 dy=0 dh=-59 dv=0 dx=0 dy=0 dh=0 dv=0
PairPos2: "'kern' Horizontal Kerning in Latin lookup 0 per glyph data 1" two dx=0 dy=0 dh=-59 dv=0 dx=0 dy=0 dh=0 dv=0
PairPos2: "'kern' Horizontal Kerning in Latin lookup 0 per glyph data 1" one dx=0 dy=0 dh=-64 dv=0 dx=0 dy=0 dh=0 dv=0
PairPos2: "'kern' Horizontal Kerning in Latin lookup 0 per glyph data 1" zero dx=0 dy=0 dh=-66 dv=0 dx=0 dy=0 dh=0 dv=0
PairPos2: "'kern' Horizontal Kerning in Latin lookup 0 per glyph data 1" parenright dx=0 dy=0 dh=-64 dv=0 dx=0 dy=0 dh=0 dv=0
PairPos2: "'kern' Horizontal Kerning in Latin lookup 0 per glyph data 1" parenleft dx=0 dy=0 dh=-64 dv=0 dx=0 dy=0 dh=0 dv=0
PairPos2: "'kern' Horizontal Kerning in Latin lookup 0 per glyph data 1" exclam dx=0 dy=0 dh=-64 dv=0 dx=0 dy=0 dh=0 dv=0
EndChar

StartChar: four
Encoding: 52 52 23
Width: 601
GlyphClass: 2
Flags: HW
LayerCount: 2
Fore
SplineSet
402 0 m 1,0,-1
 402 140 l 1,1,-1
 102 140 l 1,2,-1
 85 195 l 1,3,-1
 402 662 l 1,4,-1
 470 662 l 1,5,-1
 470 195 l 1,6,-1
 516 195 l 1,7,-1
 517 140 l 1,8,-1
 470 140 l 1,9,-1
 470 0 l 1,10,-1
 402 0 l 1,0,-1
402 195 m 1,11,-1
 402 562 l 1,12,-1
 152 195 l 1,13,-1
 402 195 l 1,11,-1
EndSplineSet
EndChar

StartChar: five
Encoding: 53 53 24
Width: 475
GlyphClass: 2
Flags: HW
LayerCount: 2
Fore
SplineSet
146 52 m 0,0,1
 353 52 353 52 353 198 c 0,2,3
 353 314.487804878 353 314.487804878 199 322 c 0,4,5
 158 324 158 324 120 324 c 2,6,-1
 109 324 l 1,7,-1
 129 662 l 1,8,-1
 415 662 l 1,9,-1
 415 607 l 1,10,-1
 192 607 l 1,11,-1
 178 369 l 1,12,13
 288 369 288 369 343 341.5 c 0,14,15
 421 302.5 421 302.5 421 201 c 0,16,17
 421 47.4242424242 421 47.4242424242 262.5 9 c 0,18,19
 213 -3 213 -3 148.8 -3 c 0,20,21
 84.6 -3 84.6 -3 27 13 c 1,22,-1
 43 65 l 1,23,24
 80.375 52 80.375 52 146 52 c 0,0,1
EndSplineSet
PairPos2: "'kern' Horizontal Kerning in Latin lookup 0 per glyph data 1" dotlessi dx=0 dy=0 dh=-43 dv=0 dx=0 dy=0 dh=0 dv=0
PairPos2: "'kern' Horizontal Kerning in Latin lookup 0 per glyph data 1" thorn dx=0 dy=0 dh=-43 dv=0 dx=0 dy=0 dh=0 dv=0
PairPos2: "'kern' Horizontal Kerning in Latin lookup 0 per glyph data 1" ntilde dx=0 dy=0 dh=-43 dv=0 dx=0 dy=0 dh=0 dv=0
PairPos2: "'kern' Horizontal Kerning in Latin lookup 0 per glyph data 1" idieresis dx=0 dy=0 dh=-43 dv=0 dx=0 dy=0 dh=0 dv=0
PairPos2: "'kern' Horizontal Kerning in Latin lookup 0 per glyph data 1" icircumflex dx=0 dy=0 dh=-43 dv=0 dx=0 dy=0 dh=0 dv=0
PairPos2: "'kern' Horizontal Kerning in Latin lookup 0 per glyph data 1" iacute dx=0 dy=0 dh=-43 dv=0 dx=0 dy=0 dh=0 dv=0
PairPos2: "'kern' Horizontal Kerning in Latin lookup 0 per glyph data 1" igrave dx=0 dy=0 dh=-43 dv=0 dx=0 dy=0 dh=0 dv=0
PairPos2: "'kern' Horizontal Kerning in Latin lookup 0 per glyph data 1" germandbls dx=0 dy=0 dh=-43 dv=0 dx=0 dy=0 dh=0 dv=0
PairPos2: "'kern' Horizontal Kerning in Latin lookup 0 per glyph data 1" mu dx=0 dy=0 dh=-43 dv=0 dx=0 dy=0 dh=0 dv=0
PairPos2: "'kern' Horizontal Kerning in Latin lookup 0 per glyph data 1" brokenbar dx=0 dy=0 dh=-43 dv=0 dx=0 dy=0 dh=0 dv=0
PairPos2: "'kern' Horizontal Kerning in Latin lookup 0 per glyph data 1" exclamdown dx=0 dy=0 dh=-43 dv=0 dx=0 dy=0 dh=0 dv=0
PairPos2: "'kern' Horizontal Kerning in Latin lookup 0 per glyph data 1" bar dx=0 dy=0 dh=-43 dv=0 dx=0 dy=0 dh=0 dv=0
PairPos2: "'kern' Horizontal Kerning in Latin lookup 0 per glyph data 1" r dx=0 dy=0 dh=-43 dv=0 dx=0 dy=0 dh=0 dv=0
PairPos2: "'kern' Horizontal Kerning in Latin lookup 0 per glyph data 1" p dx=0 dy=0 dh=-43 dv=0 dx=0 dy=0 dh=0 dv=0
PairPos2: "'kern' Horizontal Kerning in Latin lookup 0 per glyph data 1" n dx=0 dy=0 dh=-43 dv=0 dx=0 dy=0 dh=0 dv=0
PairPos2: "'kern' Horizontal Kerning in Latin lookup 0 per glyph data 1" m dx=0 dy=0 dh=-43 dv=0 dx=0 dy=0 dh=0 dv=0
PairPos2: "'kern' Horizontal Kerning in Latin lookup 0 per glyph data 1" l dx=0 dy=0 dh=-43 dv=0 dx=0 dy=0 dh=0 dv=0
PairPos2: "'kern' Horizontal Kerning in Latin lookup 0 per glyph data 1" k dx=0 dy=0 dh=-43 dv=0 dx=0 dy=0 dh=0 dv=0
PairPos2: "'kern' Horizontal Kerning in Latin lookup 0 per glyph data 1" j dx=0 dy=0 dh=-43 dv=0 dx=0 dy=0 dh=0 dv=0
PairPos2: "'kern' Horizontal Kerning in Latin lookup 0 per glyph data 1" i dx=0 dy=0 dh=-43 dv=0 dx=0 dy=0 dh=0 dv=0
PairPos2: "'kern' Horizontal Kerning in Latin lookup 0 per glyph data 1" h dx=0 dy=0 dh=-43 dv=0 dx=0 dy=0 dh=0 dv=0
PairPos2: "'kern' Horizontal Kerning in Latin lookup 0 per glyph data 1" f dx=0 dy=0 dh=-43 dv=0 dx=0 dy=0 dh=0 dv=0
PairPos2: "'kern' Horizontal Kerning in Latin lookup 0 per glyph data 1" b dx=0 dy=0 dh=-43 dv=0 dx=0 dy=0 dh=0 dv=0
PairPos2: "'kern' Horizontal Kerning in Latin lookup 0 per glyph data 1" bracketright dx=0 dy=0 dh=-43 dv=0 dx=0 dy=0 dh=0 dv=0
PairPos2: "'kern' Horizontal Kerning in Latin lookup 0 per glyph data 1" bracketleft dx=0 dy=0 dh=-43 dv=0 dx=0 dy=0 dh=0 dv=0
PairPos2: "'kern' Horizontal Kerning in Latin lookup 0 per glyph data 1" nine dx=0 dy=0 dh=-29 dv=0 dx=0 dy=0 dh=0 dv=0
PairPos2: "'kern' Horizontal Kerning in Latin lookup 0 per glyph data 1" eight dx=0 dy=0 dh=-44 dv=0 dx=0 dy=0 dh=0 dv=0
PairPos2: "'kern' Horizontal Kerning in Latin lookup 0 per glyph data 1" seven dx=0 dy=0 dh=-37 dv=0 dx=0 dy=0 dh=0 dv=0
PairPos2: "'kern' Horizontal Kerning in Latin lookup 0 per glyph data 1" six dx=0 dy=0 dh=-15 dv=0 dx=0 dy=0 dh=0 dv=0
PairPos2: "'kern' Horizontal Kerning in Latin lookup 0 per glyph data 1" five dx=0 dy=0 dh=-37 dv=0 dx=0 dy=0 dh=0 dv=0
PairPos2: "'kern' Horizontal Kerning in Latin lookup 0 per glyph data 1" four dx=0 dy=0 dh=-45 dv=0 dx=0 dy=0 dh=0 dv=0
PairPos2: "'kern' Horizontal Kerning in Latin lookup 0 per glyph data 1" three dx=0 dy=0 dh=-68 dv=0 dx=0 dy=0 dh=0 dv=0
PairPos2: "'kern' Horizontal Kerning in Latin lookup 0 per glyph data 1" two dx=0 dy=0 dh=-58 dv=0 dx=0 dy=0 dh=0 dv=0
PairPos2: "'kern' Horizontal Kerning in Latin lookup 0 per glyph data 1" one dx=0 dy=0 dh=-43 dv=0 dx=0 dy=0 dh=0 dv=0
PairPos2: "'kern' Horizontal Kerning in Latin lookup 0 per glyph data 1" zero dx=0 dy=0 dh=-37 dv=0 dx=0 dy=0 dh=0 dv=0
PairPos2: "'kern' Horizontal Kerning in Latin lookup 0 per glyph data 1" parenright dx=0 dy=0 dh=-43 dv=0 dx=0 dy=0 dh=0 dv=0
PairPos2: "'kern' Horizontal Kerning in Latin lookup 0 per glyph data 1" parenleft dx=0 dy=0 dh=-43 dv=0 dx=0 dy=0 dh=0 dv=0
PairPos2: "'kern' Horizontal Kerning in Latin lookup 0 per glyph data 1" exclam dx=0 dy=0 dh=-43 dv=0 dx=0 dy=0 dh=0 dv=0
EndChar

StartChar: six
Encoding: 54 54 25
Width: 601
GlyphClass: 2
Flags: HW
LayerCount: 2
Fore
SplineSet
464 614 m 1,0,1
 458 610 458 610 428.5 593.5 c 128,-1,2
 399 577 399 577 359.5 548.5 c 0,3,4
 257.056910569 474.585365854 257.056910569 474.585365854 200 389 c 1,5,6
 289.571428571 386.285714286 289.571428571 386.285714286 321.785714286 381.642857143 c 0,7,8
 394.718857143 371.131428571 394.718857143 371.131428571 437.859428571 325.984318937 c 128,-1,9
 481 280.837209302 481 280.837209302 481 194.330885353 c 128,-1,10
 481 107.824561404 481 107.824561404 420.867924528 51.9122807018 c 128,-1,11
 360.735849057 -4 360.735849057 -4 264 -4 c 0,12,13
 130.493150685 -4 130.493150685 -4 86 97.5 c 0,14,15
 70 134 70 134 70 196 c 128,-1,16
 70 258 70 258 95 320 c 128,-1,17
 120 382 120 382 157.5 433 c 0,18,19
 249.143646409 557.635359116 249.143646409 557.635359116 437 662 c 1,20,-1
 464 614 l 1,0,1
170 334 m 1,21,22
 138 263.6 138 263.6 138 189 c 128,-1,23
 138 114.578947368 138 114.578947368 176.967741935 82.7894736842 c 128,-1,24
 215.935483871 51 215.935483871 51 257.967741935 51 c 0,25,26
 333.1 51 333.1 51 373 93 c 128,-1,27
 413 135.105263158 413 135.105263158 413 195.552631579 c 128,-1,28
 413 256 413 256 383.5 288 c 128,-1,29
 354 320 354 320 309 327 c 0,30,31
 281.923076923 331.512820513 281.923076923 331.512820513 170 334 c 1,21,22
EndSplineSet
PairPos2: "'kern' Horizontal Kerning in Latin lookup 0 per glyph data 1" dotlessi dx=0 dy=0 dh=-93 dv=0 dx=0 dy=0 dh=0 dv=0
PairPos2: "'kern' Horizontal Kerning in Latin lookup 0 per glyph data 1" thorn dx=0 dy=0 dh=-93 dv=0 dx=0 dy=0 dh=0 dv=0
PairPos2: "'kern' Horizontal Kerning in Latin lookup 0 per glyph data 1" ntilde dx=0 dy=0 dh=-93 dv=0 dx=0 dy=0 dh=0 dv=0
PairPos2: "'kern' Horizontal Kerning in Latin lookup 0 per glyph data 1" idieresis dx=0 dy=0 dh=-93 dv=0 dx=0 dy=0 dh=0 dv=0
PairPos2: "'kern' Horizontal Kerning in Latin lookup 0 per glyph data 1" icircumflex dx=0 dy=0 dh=-93 dv=0 dx=0 dy=0 dh=0 dv=0
PairPos2: "'kern' Horizontal Kerning in Latin lookup 0 per glyph data 1" iacute dx=0 dy=0 dh=-93 dv=0 dx=0 dy=0 dh=0 dv=0
PairPos2: "'kern' Horizontal Kerning in Latin lookup 0 per glyph data 1" igrave dx=0 dy=0 dh=-93 dv=0 dx=0 dy=0 dh=0 dv=0
PairPos2: "'kern' Horizontal Kerning in Latin lookup 0 per glyph data 1" germandbls dx=0 dy=0 dh=-93 dv=0 dx=0 dy=0 dh=0 dv=0
PairPos2: "'kern' Horizontal Kerning in Latin lookup 0 per glyph data 1" mu dx=0 dy=0 dh=-93 dv=0 dx=0 dy=0 dh=0 dv=0
PairPos2: "'kern' Horizontal Kerning in Latin lookup 0 per glyph data 1" brokenbar dx=0 dy=0 dh=-93 dv=0 dx=0 dy=0 dh=0 dv=0
PairPos2: "'kern' Horizontal Kerning in Latin lookup 0 per glyph data 1" exclamdown dx=0 dy=0 dh=-93 dv=0 dx=0 dy=0 dh=0 dv=0
PairPos2: "'kern' Horizontal Kerning in Latin lookup 0 per glyph data 1" bar dx=0 dy=0 dh=-93 dv=0 dx=0 dy=0 dh=0 dv=0
PairPos2: "'kern' Horizontal Kerning in Latin lookup 0 per glyph data 1" r dx=0 dy=0 dh=-93 dv=0 dx=0 dy=0 dh=0 dv=0
PairPos2: "'kern' Horizontal Kerning in Latin lookup 0 per glyph data 1" p dx=0 dy=0 dh=-93 dv=0 dx=0 dy=0 dh=0 dv=0
PairPos2: "'kern' Horizontal Kerning in Latin lookup 0 per glyph data 1" n dx=0 dy=0 dh=-93 dv=0 dx=0 dy=0 dh=0 dv=0
PairPos2: "'kern' Horizontal Kerning in Latin lookup 0 per glyph data 1" m dx=0 dy=0 dh=-93 dv=0 dx=0 dy=0 dh=0 dv=0
PairPos2: "'kern' Horizontal Kerning in Latin lookup 0 per glyph data 1" l dx=0 dy=0 dh=-93 dv=0 dx=0 dy=0 dh=0 dv=0
PairPos2: "'kern' Horizontal Kerning in Latin lookup 0 per glyph data 1" k dx=0 dy=0 dh=-93 dv=0 dx=0 dy=0 dh=0 dv=0
PairPos2: "'kern' Horizontal Kerning in Latin lookup 0 per glyph data 1" j dx=0 dy=0 dh=-93 dv=0 dx=0 dy=0 dh=0 dv=0
PairPos2: "'kern' Horizontal Kerning in Latin lookup 0 per glyph data 1" i dx=0 dy=0 dh=-93 dv=0 dx=0 dy=0 dh=0 dv=0
PairPos2: "'kern' Horizontal Kerning in Latin lookup 0 per glyph data 1" h dx=0 dy=0 dh=-93 dv=0 dx=0 dy=0 dh=0 dv=0
PairPos2: "'kern' Horizontal Kerning in Latin lookup 0 per glyph data 1" f dx=0 dy=0 dh=-93 dv=0 dx=0 dy=0 dh=0 dv=0
PairPos2: "'kern' Horizontal Kerning in Latin lookup 0 per glyph data 1" b dx=0 dy=0 dh=-93 dv=0 dx=0 dy=0 dh=0 dv=0
PairPos2: "'kern' Horizontal Kerning in Latin lookup 0 per glyph data 1" bracketright dx=0 dy=0 dh=-93 dv=0 dx=0 dy=0 dh=0 dv=0
PairPos2: "'kern' Horizontal Kerning in Latin lookup 0 per glyph data 1" bracketleft dx=0 dy=0 dh=-93 dv=0 dx=0 dy=0 dh=0 dv=0
PairPos2: "'kern' Horizontal Kerning in Latin lookup 0 per glyph data 1" nine dx=0 dy=0 dh=-89 dv=0 dx=0 dy=0 dh=0 dv=0
PairPos2: "'kern' Horizontal Kerning in Latin lookup 0 per glyph data 1" eight dx=0 dy=0 dh=-89 dv=0 dx=0 dy=0 dh=0 dv=0
PairPos2: "'kern' Horizontal Kerning in Latin lookup 0 per glyph data 1" seven dx=0 dy=0 dh=-96 dv=0 dx=0 dy=0 dh=0 dv=0
PairPos2: "'kern' Horizontal Kerning in Latin lookup 0 per glyph data 1" six dx=0 dy=0 dh=-81 dv=0 dx=0 dy=0 dh=0 dv=0
PairPos2: "'kern' Horizontal Kerning in Latin lookup 0 per glyph data 1" five dx=0 dy=0 dh=-73 dv=0 dx=0 dy=0 dh=0 dv=0
PairPos2: "'kern' Horizontal Kerning in Latin lookup 0 per glyph data 1" four dx=0 dy=0 dh=-103 dv=0 dx=0 dy=0 dh=0 dv=0
PairPos2: "'kern' Horizontal Kerning in Latin lookup 0 per glyph data 1" three dx=0 dy=0 dh=-96 dv=0 dx=0 dy=0 dh=0 dv=0
PairPos2: "'kern' Horizontal Kerning in Latin lookup 0 per glyph data 1" two dx=0 dy=0 dh=-88 dv=0 dx=0 dy=0 dh=0 dv=0
PairPos2: "'kern' Horizontal Kerning in Latin lookup 0 per glyph data 1" one dx=0 dy=0 dh=-93 dv=0 dx=0 dy=0 dh=0 dv=0
PairPos2: "'kern' Horizontal Kerning in Latin lookup 0 per glyph data 1" zero dx=0 dy=0 dh=-96 dv=0 dx=0 dy=0 dh=0 dv=0
PairPos2: "'kern' Horizontal Kerning in Latin lookup 0 per glyph data 1" parenright dx=0 dy=0 dh=-93 dv=0 dx=0 dy=0 dh=0 dv=0
PairPos2: "'kern' Horizontal Kerning in Latin lookup 0 per glyph data 1" parenleft dx=0 dy=0 dh=-93 dv=0 dx=0 dy=0 dh=0 dv=0
PairPos2: "'kern' Horizontal Kerning in Latin lookup 0 per glyph data 1" exclam dx=0 dy=0 dh=-93 dv=0 dx=0 dy=0 dh=0 dv=0
EndChar

StartChar: seven
Encoding: 55 55 26
Width: 564
GlyphClass: 2
Flags: HW
LayerCount: 2
Fore
SplineSet
90 662 m 1,0,-1
 461 662 l 1,1,-1
 475 607 l 1,2,-1
 223 0 l 1,3,-1
 157 0 l 1,4,-1
 409 607 l 1,5,-1
 90 607 l 1,6,-1
 90 662 l 1,0,-1
EndSplineSet
EndChar

StartChar: eight
Encoding: 56 56 27
Width: 613
GlyphClass: 2
Flags: HW
LayerCount: 2
Fore
SplineSet
199 382 m 1,0,1
 124 422.909090909 124 422.909090909 124 511.5 c 0,2,3
 124 666 124 666 308 666 c 0,4,5
 409.151515152 666 409.151515152 666 451.575757576 624.823529412 c 128,-1,6
 494 583.647058824 494 583.647058824 494 518 c 0,7,8
 494 428.068965517 494 428.068965517 417 367 c 1,9,10
 532 319.083333333 532 319.083333333 532 173 c 0,11,12
 532 114.673913043 532 114.673913043 496 68.5 c 0,13,14
 439.474576271 -4 439.474576271 -4 308 -4 c 256,15,16
 176.796610169 -4 176.796610169 -4 121.5 68.5 c 0,17,18
 86 115.044444444 86 115.044444444 86 164.522222222 c 0,19,20
 86 246.6 86 246.6 114.669811321 293.427358491 c 128,-1,21
 143.339622642 340.254716981 143.339622642 340.254716981 199 382 c 1,0,1
239 365 m 1,22,23
 151 294.6 151 294.6 151 173 c 0,24,25
 151 95.7636363636 151 95.7636363636 221.5 65 c 0,26,27
 258.166666667 49 258.166666667 49 310.583333333 49 c 0,28,29
 403.380952381 49 403.380952381 49 443 101 c 0,30,31
 467 132.5 467 132.5 467 181.75 c 128,-1,32
 467 231 467 231 445.5 264 c 128,-1,33
 424 297 424 297 390.5 315 c 128,-1,34
 357 333 357 333 316.5 342.5 c 128,-1,35
 276 352 276 352 239 365 c 1,22,23
315.05 613 m 0,36,37
 189 613 189 613 189 515.625 c 0,38,39
 189 427.090909091 189 427.090909091 306 400.5 c 0,40,41
 339 393 339 393 373 383 c 1,42,43
 408.538461538 418.538461538 408.538461538 418.538461538 417 471 c 1,44,45
 425.888888889 495.888888889 425.888888889 495.888888889 425.888888889 515.333333333 c 128,-1,46
 425.888888889 534.777777778 425.888888889 534.777777778 425 545 c 1,47,48
 416.457142857 573.476190476 416.457142857 573.476190476 399.228571429 586.238095238 c 0,49,50
 363.1 613 363.1 613 315.05 613 c 0,36,37
EndSplineSet
PairPos2: "'kern' Horizontal Kerning in Latin lookup 0 per glyph data 1" dotlessi dx=0 dy=0 dh=-79 dv=0 dx=0 dy=0 dh=0 dv=0
PairPos2: "'kern' Horizontal Kerning in Latin lookup 0 per glyph data 1" thorn dx=0 dy=0 dh=-79 dv=0 dx=0 dy=0 dh=0 dv=0
PairPos2: "'kern' Horizontal Kerning in Latin lookup 0 per glyph data 1" ntilde dx=0 dy=0 dh=-79 dv=0 dx=0 dy=0 dh=0 dv=0
PairPos2: "'kern' Horizontal Kerning in Latin lookup 0 per glyph data 1" idieresis dx=0 dy=0 dh=-79 dv=0 dx=0 dy=0 dh=0 dv=0
PairPos2: "'kern' Horizontal Kerning in Latin lookup 0 per glyph data 1" icircumflex dx=0 dy=0 dh=-79 dv=0 dx=0 dy=0 dh=0 dv=0
PairPos2: "'kern' Horizontal Kerning in Latin lookup 0 per glyph data 1" iacute dx=0 dy=0 dh=-79 dv=0 dx=0 dy=0 dh=0 dv=0
PairPos2: "'kern' Horizontal Kerning in Latin lookup 0 per glyph data 1" igrave dx=0 dy=0 dh=-79 dv=0 dx=0 dy=0 dh=0 dv=0
PairPos2: "'kern' Horizontal Kerning in Latin lookup 0 per glyph data 1" germandbls dx=0 dy=0 dh=-79 dv=0 dx=0 dy=0 dh=0 dv=0
PairPos2: "'kern' Horizontal Kerning in Latin lookup 0 per glyph data 1" mu dx=0 dy=0 dh=-79 dv=0 dx=0 dy=0 dh=0 dv=0
PairPos2: "'kern' Horizontal Kerning in Latin lookup 0 per glyph data 1" brokenbar dx=0 dy=0 dh=-79 dv=0 dx=0 dy=0 dh=0 dv=0
PairPos2: "'kern' Horizontal Kerning in Latin lookup 0 per glyph data 1" exclamdown dx=0 dy=0 dh=-79 dv=0 dx=0 dy=0 dh=0 dv=0
PairPos2: "'kern' Horizontal Kerning in Latin lookup 0 per glyph data 1" bar dx=0 dy=0 dh=-79 dv=0 dx=0 dy=0 dh=0 dv=0
PairPos2: "'kern' Horizontal Kerning in Latin lookup 0 per glyph data 1" r dx=0 dy=0 dh=-79 dv=0 dx=0 dy=0 dh=0 dv=0
PairPos2: "'kern' Horizontal Kerning in Latin lookup 0 per glyph data 1" p dx=0 dy=0 dh=-79 dv=0 dx=0 dy=0 dh=0 dv=0
PairPos2: "'kern' Horizontal Kerning in Latin lookup 0 per glyph data 1" n dx=0 dy=0 dh=-79 dv=0 dx=0 dy=0 dh=0 dv=0
PairPos2: "'kern' Horizontal Kerning in Latin lookup 0 per glyph data 1" m dx=0 dy=0 dh=-79 dv=0 dx=0 dy=0 dh=0 dv=0
PairPos2: "'kern' Horizontal Kerning in Latin lookup 0 per glyph data 1" l dx=0 dy=0 dh=-79 dv=0 dx=0 dy=0 dh=0 dv=0
PairPos2: "'kern' Horizontal Kerning in Latin lookup 0 per glyph data 1" k dx=0 dy=0 dh=-79 dv=0 dx=0 dy=0 dh=0 dv=0
PairPos2: "'kern' Horizontal Kerning in Latin lookup 0 per glyph data 1" j dx=0 dy=0 dh=-79 dv=0 dx=0 dy=0 dh=0 dv=0
PairPos2: "'kern' Horizontal Kerning in Latin lookup 0 per glyph data 1" i dx=0 dy=0 dh=-79 dv=0 dx=0 dy=0 dh=0 dv=0
PairPos2: "'kern' Horizontal Kerning in Latin lookup 0 per glyph data 1" h dx=0 dy=0 dh=-79 dv=0 dx=0 dy=0 dh=0 dv=0
PairPos2: "'kern' Horizontal Kerning in Latin lookup 0 per glyph data 1" f dx=0 dy=0 dh=-79 dv=0 dx=0 dy=0 dh=0 dv=0
PairPos2: "'kern' Horizontal Kerning in Latin lookup 0 per glyph data 1" b dx=0 dy=0 dh=-79 dv=0 dx=0 dy=0 dh=0 dv=0
PairPos2: "'kern' Horizontal Kerning in Latin lookup 0 per glyph data 1" bracketright dx=0 dy=0 dh=-79 dv=0 dx=0 dy=0 dh=0 dv=0
PairPos2: "'kern' Horizontal Kerning in Latin lookup 0 per glyph data 1" bracketleft dx=0 dy=0 dh=-79 dv=0 dx=0 dy=0 dh=0 dv=0
PairPos2: "'kern' Horizontal Kerning in Latin lookup 0 per glyph data 1" nine dx=0 dy=0 dh=-64 dv=0 dx=0 dy=0 dh=0 dv=0
PairPos2: "'kern' Horizontal Kerning in Latin lookup 0 per glyph data 1" eight dx=0 dy=0 dh=-82 dv=0 dx=0 dy=0 dh=0 dv=0
PairPos2: "'kern' Horizontal Kerning in Latin lookup 0 per glyph data 1" seven dx=0 dy=0 dh=-89 dv=0 dx=0 dy=0 dh=0 dv=0
PairPos2: "'kern' Horizontal Kerning in Latin lookup 0 per glyph data 1" six dx=0 dy=0 dh=-66 dv=0 dx=0 dy=0 dh=0 dv=0
PairPos2: "'kern' Horizontal Kerning in Latin lookup 0 per glyph data 1" five dx=0 dy=0 dh=-59 dv=0 dx=0 dy=0 dh=0 dv=0
PairPos2: "'kern' Horizontal Kerning in Latin lookup 0 per glyph data 1" four dx=0 dy=0 dh=-74 dv=0 dx=0 dy=0 dh=0 dv=0
PairPos2: "'kern' Horizontal Kerning in Latin lookup 0 per glyph data 1" three dx=0 dy=0 dh=-66 dv=0 dx=0 dy=0 dh=0 dv=0
PairPos2: "'kern' Horizontal Kerning in Latin lookup 0 per glyph data 1" two dx=0 dy=0 dh=-73 dv=0 dx=0 dy=0 dh=0 dv=0
PairPos2: "'kern' Horizontal Kerning in Latin lookup 0 per glyph data 1" one dx=0 dy=0 dh=-79 dv=0 dx=0 dy=0 dh=0 dv=0
PairPos2: "'kern' Horizontal Kerning in Latin lookup 0 per glyph data 1" zero dx=0 dy=0 dh=-88 dv=0 dx=0 dy=0 dh=0 dv=0
PairPos2: "'kern' Horizontal Kerning in Latin lookup 0 per glyph data 1" parenright dx=0 dy=0 dh=-79 dv=0 dx=0 dy=0 dh=0 dv=0
PairPos2: "'kern' Horizontal Kerning in Latin lookup 0 per glyph data 1" parenleft dx=0 dy=0 dh=-79 dv=0 dx=0 dy=0 dh=0 dv=0
PairPos2: "'kern' Horizontal Kerning in Latin lookup 0 per glyph data 1" exclam dx=0 dy=0 dh=-79 dv=0 dx=0 dy=0 dh=0 dv=0
EndChar

StartChar: nine
Encoding: 57 57 28
Width: 601
GlyphClass: 2
Flags: HW
LayerCount: 2
Fore
SplineSet
86 44 m 1,0,1
 92 48 92 48 121.5 64 c 128,-1,2
 151 80 151 80 190.5 108.5 c 0,3,4
 293.782488479 183.020276498 293.782488479 183.020276498 350 269 c 1,5,6
 268.5 269 268.5 269 232.75 275 c 0,7,8
 70 302.314685315 70 302.314685315 70 460 c 0,9,10
 70 550.175438596 70 550.175438596 130.132075472 606.087719298 c 128,-1,11
 190.264150943 662 190.264150943 662 287 662 c 0,12,13
 420.506849315 662 420.506849315 662 465 560.5 c 0,14,15
 481 524 481 524 481 462 c 128,-1,16
 481 400 481 400 456 338 c 128,-1,17
 431 276 431 276 393.5 225 c 0,18,19
 331.402607362 140.547546012 331.402607362 140.547546012 224.5 64 c 0,20,21
 154.954545455 14.202020202 154.954545455 14.202020202 114 -4 c 1,22,-1
 86 44 l 1,0,1
381 324 m 1,23,24
 413 392.266666667 413 392.266666667 413 469 c 256,25,26
 413 542.605263158 413 542.605263158 369 578.5 c 0,27,28
 334.064516129 607 334.064516129 607 292.032258065 607 c 0,29,30
 217.9 607 217.9 607 178 565 c 128,-1,31
 138 522.894736842 138 522.894736842 138 461.947368421 c 128,-1,32
 138 401 138 401 167.5 369 c 128,-1,33
 197 337 197 337 242 331 c 1,34,35
 274.2 324 274.2 324 381 324 c 1,23,24
EndSplineSet
PairPos2: "'kern' Horizontal Kerning in Latin lookup 0 per glyph data 1" dotlessi dx=0 dy=0 dh=-93 dv=0 dx=0 dy=0 dh=0 dv=0
PairPos2: "'kern' Horizontal Kerning in Latin lookup 0 per glyph data 1" thorn dx=0 dy=0 dh=-93 dv=0 dx=0 dy=0 dh=0 dv=0
PairPos2: "'kern' Horizontal Kerning in Latin lookup 0 per glyph data 1" ntilde dx=0 dy=0 dh=-93 dv=0 dx=0 dy=0 dh=0 dv=0
PairPos2: "'kern' Horizontal Kerning in Latin lookup 0 per glyph data 1" idieresis dx=0 dy=0 dh=-93 dv=0 dx=0 dy=0 dh=0 dv=0
PairPos2: "'kern' Horizontal Kerning in Latin lookup 0 per glyph data 1" icircumflex dx=0 dy=0 dh=-93 dv=0 dx=0 dy=0 dh=0 dv=0
PairPos2: "'kern' Horizontal Kerning in Latin lookup 0 per glyph data 1" iacute dx=0 dy=0 dh=-93 dv=0 dx=0 dy=0 dh=0 dv=0
PairPos2: "'kern' Horizontal Kerning in Latin lookup 0 per glyph data 1" igrave dx=0 dy=0 dh=-93 dv=0 dx=0 dy=0 dh=0 dv=0
PairPos2: "'kern' Horizontal Kerning in Latin lookup 0 per glyph data 1" germandbls dx=0 dy=0 dh=-93 dv=0 dx=0 dy=0 dh=0 dv=0
PairPos2: "'kern' Horizontal Kerning in Latin lookup 0 per glyph data 1" mu dx=0 dy=0 dh=-93 dv=0 dx=0 dy=0 dh=0 dv=0
PairPos2: "'kern' Horizontal Kerning in Latin lookup 0 per glyph data 1" brokenbar dx=0 dy=0 dh=-93 dv=0 dx=0 dy=0 dh=0 dv=0
PairPos2: "'kern' Horizontal Kerning in Latin lookup 0 per glyph data 1" exclamdown dx=0 dy=0 dh=-93 dv=0 dx=0 dy=0 dh=0 dv=0
PairPos2: "'kern' Horizontal Kerning in Latin lookup 0 per glyph data 1" bar dx=0 dy=0 dh=-93 dv=0 dx=0 dy=0 dh=0 dv=0
PairPos2: "'kern' Horizontal Kerning in Latin lookup 0 per glyph data 1" r dx=0 dy=0 dh=-93 dv=0 dx=0 dy=0 dh=0 dv=0
PairPos2: "'kern' Horizontal Kerning in Latin lookup 0 per glyph data 1" p dx=0 dy=0 dh=-93 dv=0 dx=0 dy=0 dh=0 dv=0
PairPos2: "'kern' Horizontal Kerning in Latin lookup 0 per glyph data 1" n dx=0 dy=0 dh=-93 dv=0 dx=0 dy=0 dh=0 dv=0
PairPos2: "'kern' Horizontal Kerning in Latin lookup 0 per glyph data 1" m dx=0 dy=0 dh=-93 dv=0 dx=0 dy=0 dh=0 dv=0
PairPos2: "'kern' Horizontal Kerning in Latin lookup 0 per glyph data 1" l dx=0 dy=0 dh=-93 dv=0 dx=0 dy=0 dh=0 dv=0
PairPos2: "'kern' Horizontal Kerning in Latin lookup 0 per glyph data 1" k dx=0 dy=0 dh=-93 dv=0 dx=0 dy=0 dh=0 dv=0
PairPos2: "'kern' Horizontal Kerning in Latin lookup 0 per glyph data 1" j dx=0 dy=0 dh=-93 dv=0 dx=0 dy=0 dh=0 dv=0
PairPos2: "'kern' Horizontal Kerning in Latin lookup 0 per glyph data 1" i dx=0 dy=0 dh=-93 dv=0 dx=0 dy=0 dh=0 dv=0
PairPos2: "'kern' Horizontal Kerning in Latin lookup 0 per glyph data 1" h dx=0 dy=0 dh=-93 dv=0 dx=0 dy=0 dh=0 dv=0
PairPos2: "'kern' Horizontal Kerning in Latin lookup 0 per glyph data 1" f dx=0 dy=0 dh=-93 dv=0 dx=0 dy=0 dh=0 dv=0
PairPos2: "'kern' Horizontal Kerning in Latin lookup 0 per glyph data 1" b dx=0 dy=0 dh=-93 dv=0 dx=0 dy=0 dh=0 dv=0
PairPos2: "'kern' Horizontal Kerning in Latin lookup 0 per glyph data 1" bracketright dx=0 dy=0 dh=-93 dv=0 dx=0 dy=0 dh=0 dv=0
PairPos2: "'kern' Horizontal Kerning in Latin lookup 0 per glyph data 1" bracketleft dx=0 dy=0 dh=-93 dv=0 dx=0 dy=0 dh=0 dv=0
PairPos2: "'kern' Horizontal Kerning in Latin lookup 0 per glyph data 1" nine dx=0 dy=0 dh=-103 dv=0 dx=0 dy=0 dh=0 dv=0
PairPos2: "'kern' Horizontal Kerning in Latin lookup 0 per glyph data 1" eight dx=0 dy=0 dh=-133 dv=0 dx=0 dy=0 dh=0 dv=0
PairPos2: "'kern' Horizontal Kerning in Latin lookup 0 per glyph data 1" seven dx=0 dy=0 dh=-126 dv=0 dx=0 dy=0 dh=0 dv=0
PairPos2: "'kern' Horizontal Kerning in Latin lookup 0 per glyph data 1" six dx=0 dy=0 dh=-125 dv=0 dx=0 dy=0 dh=0 dv=0
PairPos2: "'kern' Horizontal Kerning in Latin lookup 0 per glyph data 1" five dx=0 dy=0 dh=-104 dv=0 dx=0 dy=0 dh=0 dv=0
PairPos2: "'kern' Horizontal Kerning in Latin lookup 0 per glyph data 1" four dx=0 dy=0 dh=-126 dv=0 dx=0 dy=0 dh=0 dv=0
PairPos2: "'kern' Horizontal Kerning in Latin lookup 0 per glyph data 1" three dx=0 dy=0 dh=-133 dv=0 dx=0 dy=0 dh=0 dv=0
PairPos2: "'kern' Horizontal Kerning in Latin lookup 0 per glyph data 1" two dx=0 dy=0 dh=-125 dv=0 dx=0 dy=0 dh=0 dv=0
PairPos2: "'kern' Horizontal Kerning in Latin lookup 0 per glyph data 1" one dx=0 dy=0 dh=-93 dv=0 dx=0 dy=0 dh=0 dv=0
PairPos2: "'kern' Horizontal Kerning in Latin lookup 0 per glyph data 1" zero dx=0 dy=0 dh=-103 dv=0 dx=0 dy=0 dh=0 dv=0
PairPos2: "'kern' Horizontal Kerning in Latin lookup 0 per glyph data 1" parenright dx=0 dy=0 dh=-93 dv=0 dx=0 dy=0 dh=0 dv=0
PairPos2: "'kern' Horizontal Kerning in Latin lookup 0 per glyph data 1" parenleft dx=0 dy=0 dh=-93 dv=0 dx=0 dy=0 dh=0 dv=0
PairPos2: "'kern' Horizontal Kerning in Latin lookup 0 per glyph data 1" exclam dx=0 dy=0 dh=-93 dv=0 dx=0 dy=0 dh=0 dv=0
EndChar

StartChar: colon
Encoding: 58 58 29
Width: 250
GlyphClass: 2
Flags: HW
LayerCount: 2
Fore
SplineSet
86.5 2 m 128,-1,1
 79 12 79 12 79 30 c 128,-1,2
 79 48 79 48 88.5 59 c 128,-1,3
 98 70 98 70 116.5 70 c 0,4,5
 149 70 149 70 149 29 c 0,6,7
 149 12 149 12 138.5 2 c 128,-1,8
 128 -8 128 -8 111 -8 c 128,-1,0
 94 -8 94 -8 86.5 2 c 128,-1,1
86.5 405 m 128,-1,10
 79 415 79 415 79 433 c 128,-1,11
 79 451 79 451 88.5 462 c 128,-1,12
 98 473 98 473 116.5 473 c 0,13,14
 149 473 149 473 149 432 c 0,15,16
 149 415 149 415 138.5 405 c 128,-1,17
 128 395 128 395 111 395 c 128,-1,9
 94 395 94 395 86.5 405 c 128,-1,10
EndSplineSet
EndChar

StartChar: semicolon
Encoding: 59 59 30
Width: 232
GlyphClass: 2
Flags: HW
LayerCount: 2
Fore
SplineSet
127 64 m 1,0,1
 127 10 127 10 115 -45.5 c 128,-1,2
 103 -101 103 -101 103 -102 c 1,3,-1
 68 -102 l 1,4,5
 68 -101 68 -101 80 -45.5 c 0,6,7
 92 10 92 10 92 64 c 1,8,-1
 127 64 l 1,0,1
86.5 405 m 128,-1,10
 79 415 79 415 79 433 c 128,-1,11
 79 451 79 451 88.5 462 c 128,-1,12
 98 473 98 473 116.5 473 c 0,13,14
 149 473 149 473 149 432 c 0,15,16
 149 415 149 415 138.5 405 c 128,-1,17
 128 395 128 395 111 395 c 128,-1,9
 94 395 94 395 86.5 405 c 128,-1,10
EndSplineSet
EndChar

StartChar: less
Encoding: 60 60 31
Width: 569
GlyphClass: 2
Flags: HW
LayerCount: 2
Fore
SplineSet
181 299 m 1,0,1
 245 265.608695652 245 265.608695652 455 153 c 1,2,-1
 452 100 l 1,3,-1
 100 300 l 1,4,-1
 452 500 l 1,5,-1
 455 448 l 1,6,-1
 181 299 l 1,0,1
EndSplineSet
EndChar

StartChar: equal
Encoding: 61 61 32
Width: 739
GlyphClass: 2
Flags: HW
LayerCount: 2
Fore
SplineSet
600 383 m 1,0,-1
 600 325 l 1,1,-1
 146 325 l 1,2,-1
 146 383 l 1,3,-1
 600 383 l 1,0,-1
600 161 m 1,4,-1
 600 103 l 1,5,-1
 146 103 l 1,6,-1
 146 161 l 1,7,-1
 600 161 l 1,4,-1
EndSplineSet
EndChar

StartChar: greater
Encoding: 62 62 33
Width: 569
GlyphClass: 2
Flags: HW
LayerCount: 2
Fore
SplineSet
100 153 m 1,0,1
 169 190 169 190 236.5 226.5 c 128,-1,2
 304 263 304 263 373 299 c 1,3,-1
 100 448 l 1,4,-1
 103 500 l 1,5,-1
 455 300 l 1,6,-1
 103 100 l 1,7,-1
 100 153 l 1,0,1
EndSplineSet
EndChar

StartChar: question
Encoding: 63 63 34
Width: 500
GlyphClass: 2
Flags: HW
LayerCount: 2
Fore
SplineSet
58 638 m 1,0,1
 138.235294118 700 138.235294118 700 237 700 c 256,2,3
 314.871794872 700 314.871794872 700 364.435897436 657.97826087 c 128,-1,4
 414 615.956521739 414 615.956521739 414 552 c 0,5,6
 414 508 414 508 384.25 467.75 c 128,-1,7
 354.5 427.5 354.5 427.5 282 355 c 1,8,9
 185 260.487179487 185 260.487179487 185 128 c 1,10,-1
 140 128 l 1,11,12
 140 276.876923077 140 276.876923077 215.8125 356.188461538 c 0,13,14
 291.625 435.5 291.625 435.5 320.066782655 473.422376874 c 0,15,16
 348.50856531 511.344753747 348.50856531 511.344753747 348.50856531 551.943953471 c 0,17,18
 348.50856531 592.543153196 348.50856531 592.543153196 317.571499636 620.334076598 c 0,19,20
 286.634433962 648.125 286.634433962 648.125 233.254716981 648.125 c 0,21,22
 153.05 648.125 153.05 648.125 81 599 c 1,23,-1
 58 638 l 1,0,1
165 -34 m 0,24,25
 127 -34 127 -34 127 6 c 0,26,27
 127 26 127 26 137.5 37.5 c 128,-1,28
 148 49 148 49 167.5 49 c 0,29,30
 203 49 203 49 203 6 c 0,31,32
 203 -12 203 -12 192.5 -23 c 128,-1,33
 182 -34 182 -34 165 -34 c 0,24,25
EndSplineSet
EndChar

StartChar: at
Encoding: 64 64 35
Width: 1070
GlyphClass: 2
Flags: HW
LayerCount: 2
Fore
SplineSet
655 336 m 2,0,1
 655 445 655 445 541 445 c 0,2,3
 460 445 460 445 366 398 c 1,4,-1
 348 446 l 1,5,6
 355 449 355 449 373.5 457.5 c 0,7,8
 467.605522682 500.737672584 467.605522682 500.737672584 540 503 c 1,9,10
 605.285714286 503 605.285714286 503 640.642857143 486.5 c 128,-1,11
 676 470 676 470 698 440.5 c 128,-1,12
 720 411 720 411 720 358 c 2,13,-1
 720 47 l 1,14,15
 721 29 721 29 733.5 22.3333333333 c 128,-1,16
 746 15.6666666667 746 15.6666666667 755.333333333 15.6666666667 c 128,-1,17
 764.666666667 15.6666666667 764.666666667 15.6666666667 778.333333333 18.3333333333 c 128,-1,18
 792 21 792 21 816 37 c 128,-1,19
 840 53 840 53 860.5 82.5 c 0,20,21
 908 150.853658537 908 150.853658537 908 257.926829268 c 0,22,23
 908 460.145631068 908 460.145631068 795.5 565 c 0,24,25
 696.791666667 657 696.791666667 657 535 657 c 0,26,27
 452 657 452 657 381.5 624 c 128,-1,28
 311 591 311 591 259.5 534 c 128,-1,29
 208 477 208 477 179 399.5 c 128,-1,30
 150 322 150 322 150 225 c 128,-1,31
 150 128 150 128 179.5 53.5 c 128,-1,32
 209 -21 209 -21 260.5 -67.5 c 0,33,34
 359.623655914 -157 359.623655914 -157 530 -157 c 0,35,36
 608.090909091 -157 608.090909091 -157 675 -125 c 1,37,-1
 704 -175 l 1,38,39
 633.230769231 -215 633.230769231 -215 510 -215 c 0,40,41
 433 -215 433 -215 353.5 -189.5 c 128,-1,42
 274 -164 274 -164 214 -109.5 c 0,43,44
 85 7.675 85 7.675 85 238 c 0,45,46
 85 343 85 343 120 430.5 c 128,-1,47
 155 518 155 518 215.5 581 c 128,-1,48
 276 644 276 644 358.5 679.5 c 128,-1,49
 441 715 441 715 533.5 715 c 0,50,51
 727.108108108 715 727.108108108 715 844.5 605.5 c 0,52,53
 973 485.638655462 973 485.638655462 973 265 c 0,54,55
 973 116.260869565 973 116.260869565 893.5 31 c 0,56,57
 828.582542001 -38.6216216216 828.582542001 -38.6216216216 745.160602911 -38.6216216216 c 0,58,59
 709.037422037 -38.6216216216 709.037422037 -38.6216216216 683.518711019 -18.3108108108 c 128,-1,60
 658 2 658 2 655 38 c 1,61,62
 559 -4 559 -4 480 -4 c 0,63,64
 348.5 -4 348.5 -4 338 101 c 0,65,66
 337.6 106.8 337.6 106.8 337.6 120.55 c 128,-1,67
 337.6 134.3 337.6 134.3 344.8 153.65 c 128,-1,68
 352 173 352 173 373.285714286 194.285714286 c 128,-1,69
 394.571428571 215.571428571 394.571428571 215.571428571 444.211876995 228.190308918 c 128,-1,70
 493.852325418 240.809189265 493.852325418 240.809189265 655 252 c 1,71,-1
 655 336 l 2,0,1
498 42 m 0,72,73
 571.307692308 42 571.307692308 42 655 76 c 1,74,-1
 655 219 l 1,75,76
 497.5 196.5 497.5 196.5 461.25 184.75 c 0,77,78
 398.157894737 164.299455535 398.157894737 164.299455535 398.157894737 112.168975069 c 0,79,80
 398.157894737 72.3255360624 398.157894737 72.3255360624 433.5 54 c 0,81,82
 456.642857143 42 456.642857143 42 498 42 c 0,72,73
EndSplineSet
EndChar

StartChar: A
Encoding: 65 65 36
Width: 672
GlyphClass: 2
Flags: HW
LayerCount: 2
Fore
SplineSet
482 185 m 1,0,-1
 174 185 l 1,1,-1
 110 0 l 1,2,-1
 45 0 l 1,3,-1
 298 700 l 1,4,-1
 359 700 l 1,5,-1
 621 0 l 1,6,-1
 548 0 l 1,7,-1
 482 185 l 1,0,-1
191 235 m 1,8,-1
 464 235 l 1,9,-1
 325 624 l 1,10,-1
 191 235 l 1,8,-1
EndSplineSet
EndChar

StartChar: B
Encoding: 66 66 37
Width: 527
GlyphClass: 2
Flags: HW
LayerCount: 2
Fore
SplineSet
371 402 m 1,0,1
 482 360.888888889 482 360.888888889 482 217 c 0,2,3
 482 144 482 144 465.5 104 c 128,-1,4
 449 64 449 64 417.5 41 c 0,5,6
 361.347826087 -1.42108547152e-14 361.347826087 -1.42108547152e-14 240 0 c 2,7,-1
 75 0 l 1,8,-1
 75 700 l 1,9,-1
 225 700 l 2,10,11
 383.157894737 700 383.157894737 700 425 620.5 c 0,12,13
 440 592 440 592 440 551.815789474 c 0,14,15
 440 511.631578947 440 511.631578947 419.664874552 469.891058291 c 128,-1,16
 399.329749104 428.150537634 399.329749104 428.150537634 371 402 c 1,0,1
143 363 m 1,17,-1
 143 55 l 1,18,-1
 235 55 l 2,19,20
 328.35483871 55 328.35483871 55 365.5 79.5 c 0,21,22
 414 111.489361702 414 111.489361702 414 203 c 0,23,24
 414 328.105263158 414 328.105263158 325.5 354.5 c 0,25,26
 297 363 297 363 260 363 c 2,27,-1
 143 363 l 1,17,-1
323 414 m 1,28,29
 372 478.3125 372 478.3125 372 540.15625 c 128,-1,30
 372 602 372 602 333 623.5 c 128,-1,31
 294 645 294 645 220 645 c 2,32,-1
 143 645 l 1,33,-1
 143 418 l 1,34,-1
 265 418 l 2,35,36
 295 418 295 418 323 414 c 1,28,29
EndSplineSet
PairPos2: "'kern' Horizontal Kerning in Latin lookup 0 per glyph data 1" Ydieresis dx=0 dy=0 dh=-29 dv=0 dx=0 dy=0 dh=0 dv=0
PairPos2: "'kern' Horizontal Kerning in Latin lookup 0 per glyph data 1" oe dx=0 dy=0 dh=-15 dv=0 dx=0 dy=0 dh=0 dv=0
PairPos2: "'kern' Horizontal Kerning in Latin lookup 0 per glyph data 1" OE dx=0 dy=0 dh=-14 dv=0 dx=0 dy=0 dh=0 dv=0
PairPos2: "'kern' Horizontal Kerning in Latin lookup 0 per glyph data 1" dotlessi dx=0 dy=0 dh=-22 dv=0 dx=0 dy=0 dh=0 dv=0
PairPos2: "'kern' Horizontal Kerning in Latin lookup 0 per glyph data 1" ydieresis dx=0 dy=0 dh=-15 dv=0 dx=0 dy=0 dh=0 dv=0
PairPos2: "'kern' Horizontal Kerning in Latin lookup 0 per glyph data 1" thorn dx=0 dy=0 dh=-22 dv=0 dx=0 dy=0 dh=0 dv=0
PairPos2: "'kern' Horizontal Kerning in Latin lookup 0 per glyph data 1" yacute dx=0 dy=0 dh=-15 dv=0 dx=0 dy=0 dh=0 dv=0
PairPos2: "'kern' Horizontal Kerning in Latin lookup 0 per glyph data 1" udieresis dx=0 dy=0 dh=-15 dv=0 dx=0 dy=0 dh=0 dv=0
PairPos2: "'kern' Horizontal Kerning in Latin lookup 0 per glyph data 1" ucircumflex dx=0 dy=0 dh=-15 dv=0 dx=0 dy=0 dh=0 dv=0
PairPos2: "'kern' Horizontal Kerning in Latin lookup 0 per glyph data 1" uacute dx=0 dy=0 dh=-15 dv=0 dx=0 dy=0 dh=0 dv=0
PairPos2: "'kern' Horizontal Kerning in Latin lookup 0 per glyph data 1" ugrave dx=0 dy=0 dh=-15 dv=0 dx=0 dy=0 dh=0 dv=0
PairPos2: "'kern' Horizontal Kerning in Latin lookup 0 per glyph data 1" odieresis dx=0 dy=0 dh=-15 dv=0 dx=0 dy=0 dh=0 dv=0
PairPos2: "'kern' Horizontal Kerning in Latin lookup 0 per glyph data 1" otilde dx=0 dy=0 dh=-15 dv=0 dx=0 dy=0 dh=0 dv=0
PairPos2: "'kern' Horizontal Kerning in Latin lookup 0 per glyph data 1" ocircumflex dx=0 dy=0 dh=-15 dv=0 dx=0 dy=0 dh=0 dv=0
PairPos2: "'kern' Horizontal Kerning in Latin lookup 0 per glyph data 1" oacute dx=0 dy=0 dh=-15 dv=0 dx=0 dy=0 dh=0 dv=0
PairPos2: "'kern' Horizontal Kerning in Latin lookup 0 per glyph data 1" ograve dx=0 dy=0 dh=-15 dv=0 dx=0 dy=0 dh=0 dv=0
PairPos2: "'kern' Horizontal Kerning in Latin lookup 0 per glyph data 1" ntilde dx=0 dy=0 dh=-22 dv=0 dx=0 dy=0 dh=0 dv=0
PairPos2: "'kern' Horizontal Kerning in Latin lookup 0 per glyph data 1" eth dx=0 dy=0 dh=-15 dv=0 dx=0 dy=0 dh=0 dv=0
PairPos2: "'kern' Horizontal Kerning in Latin lookup 0 per glyph data 1" idieresis dx=0 dy=0 dh=-22 dv=0 dx=0 dy=0 dh=0 dv=0
PairPos2: "'kern' Horizontal Kerning in Latin lookup 0 per glyph data 1" icircumflex dx=0 dy=0 dh=-22 dv=0 dx=0 dy=0 dh=0 dv=0
PairPos2: "'kern' Horizontal Kerning in Latin lookup 0 per glyph data 1" iacute dx=0 dy=0 dh=-22 dv=0 dx=0 dy=0 dh=0 dv=0
PairPos2: "'kern' Horizontal Kerning in Latin lookup 0 per glyph data 1" igrave dx=0 dy=0 dh=-22 dv=0 dx=0 dy=0 dh=0 dv=0
PairPos2: "'kern' Horizontal Kerning in Latin lookup 0 per glyph data 1" edieresis dx=0 dy=0 dh=-25 dv=0 dx=0 dy=0 dh=0 dv=0
PairPos2: "'kern' Horizontal Kerning in Latin lookup 0 per glyph data 1" ecircumflex dx=0 dy=0 dh=-25 dv=0 dx=0 dy=0 dh=0 dv=0
PairPos2: "'kern' Horizontal Kerning in Latin lookup 0 per glyph data 1" eacute dx=0 dy=0 dh=-25 dv=0 dx=0 dy=0 dh=0 dv=0
PairPos2: "'kern' Horizontal Kerning in Latin lookup 0 per glyph data 1" egrave dx=0 dy=0 dh=-25 dv=0 dx=0 dy=0 dh=0 dv=0
PairPos2: "'kern' Horizontal Kerning in Latin lookup 0 per glyph data 1" ccedilla dx=0 dy=0 dh=-25 dv=0 dx=0 dy=0 dh=0 dv=0
PairPos2: "'kern' Horizontal Kerning in Latin lookup 0 per glyph data 1" aring dx=0 dy=0 dh=-17 dv=0 dx=0 dy=0 dh=0 dv=0
PairPos2: "'kern' Horizontal Kerning in Latin lookup 0 per glyph data 1" adieresis dx=0 dy=0 dh=-17 dv=0 dx=0 dy=0 dh=0 dv=0
PairPos2: "'kern' Horizontal Kerning in Latin lookup 0 per glyph data 1" atilde dx=0 dy=0 dh=-17 dv=0 dx=0 dy=0 dh=0 dv=0
PairPos2: "'kern' Horizontal Kerning in Latin lookup 0 per glyph data 1" acircumflex dx=0 dy=0 dh=-17 dv=0 dx=0 dy=0 dh=0 dv=0
PairPos2: "'kern' Horizontal Kerning in Latin lookup 0 per glyph data 1" aacute dx=0 dy=0 dh=-17 dv=0 dx=0 dy=0 dh=0 dv=0
PairPos2: "'kern' Horizontal Kerning in Latin lookup 0 per glyph data 1" agrave dx=0 dy=0 dh=-17 dv=0 dx=0 dy=0 dh=0 dv=0
PairPos2: "'kern' Horizontal Kerning in Latin lookup 0 per glyph data 1" germandbls dx=0 dy=0 dh=-22 dv=0 dx=0 dy=0 dh=0 dv=0
PairPos2: "'kern' Horizontal Kerning in Latin lookup 0 per glyph data 1" Thorn dx=0 dy=0 dh=-7 dv=0 dx=0 dy=0 dh=0 dv=0
PairPos2: "'kern' Horizontal Kerning in Latin lookup 0 per glyph data 1" Yacute dx=0 dy=0 dh=-29 dv=0 dx=0 dy=0 dh=0 dv=0
PairPos2: "'kern' Horizontal Kerning in Latin lookup 0 per glyph data 1" Udieresis dx=0 dy=0 dh=-5 dv=0 dx=0 dy=0 dh=0 dv=0
PairPos2: "'kern' Horizontal Kerning in Latin lookup 0 per glyph data 1" Ucircumflex dx=0 dy=0 dh=-5 dv=0 dx=0 dy=0 dh=0 dv=0
PairPos2: "'kern' Horizontal Kerning in Latin lookup 0 per glyph data 1" Uacute dx=0 dy=0 dh=-5 dv=0 dx=0 dy=0 dh=0 dv=0
PairPos2: "'kern' Horizontal Kerning in Latin lookup 0 per glyph data 1" Ugrave dx=0 dy=0 dh=-5 dv=0 dx=0 dy=0 dh=0 dv=0
PairPos2: "'kern' Horizontal Kerning in Latin lookup 0 per glyph data 1" Odieresis dx=0 dy=0 dh=-14 dv=0 dx=0 dy=0 dh=0 dv=0
PairPos2: "'kern' Horizontal Kerning in Latin lookup 0 per glyph data 1" Otilde dx=0 dy=0 dh=-14 dv=0 dx=0 dy=0 dh=0 dv=0
PairPos2: "'kern' Horizontal Kerning in Latin lookup 0 per glyph data 1" Ocircumflex dx=0 dy=0 dh=-14 dv=0 dx=0 dy=0 dh=0 dv=0
PairPos2: "'kern' Horizontal Kerning in Latin lookup 0 per glyph data 1" Oacute dx=0 dy=0 dh=-14 dv=0 dx=0 dy=0 dh=0 dv=0
PairPos2: "'kern' Horizontal Kerning in Latin lookup 0 per glyph data 1" Ograve dx=0 dy=0 dh=-14 dv=0 dx=0 dy=0 dh=0 dv=0
PairPos2: "'kern' Horizontal Kerning in Latin lookup 0 per glyph data 1" Ntilde dx=0 dy=0 dh=-7 dv=0 dx=0 dy=0 dh=0 dv=0
PairPos2: "'kern' Horizontal Kerning in Latin lookup 0 per glyph data 1" Idieresis dx=0 dy=0 dh=-7 dv=0 dx=0 dy=0 dh=0 dv=0
PairPos2: "'kern' Horizontal Kerning in Latin lookup 0 per glyph data 1" Icircumflex dx=0 dy=0 dh=-7 dv=0 dx=0 dy=0 dh=0 dv=0
PairPos2: "'kern' Horizontal Kerning in Latin lookup 0 per glyph data 1" Iacute dx=0 dy=0 dh=-7 dv=0 dx=0 dy=0 dh=0 dv=0
PairPos2: "'kern' Horizontal Kerning in Latin lookup 0 per glyph data 1" Igrave dx=0 dy=0 dh=-7 dv=0 dx=0 dy=0 dh=0 dv=0
PairPos2: "'kern' Horizontal Kerning in Latin lookup 0 per glyph data 1" Edieresis dx=0 dy=0 dh=-7 dv=0 dx=0 dy=0 dh=0 dv=0
PairPos2: "'kern' Horizontal Kerning in Latin lookup 0 per glyph data 1" Ecircumflex dx=0 dy=0 dh=-7 dv=0 dx=0 dy=0 dh=0 dv=0
PairPos2: "'kern' Horizontal Kerning in Latin lookup 0 per glyph data 1" Eacute dx=0 dy=0 dh=-7 dv=0 dx=0 dy=0 dh=0 dv=0
PairPos2: "'kern' Horizontal Kerning in Latin lookup 0 per glyph data 1" Egrave dx=0 dy=0 dh=-7 dv=0 dx=0 dy=0 dh=0 dv=0
PairPos2: "'kern' Horizontal Kerning in Latin lookup 0 per glyph data 1" Ccedilla dx=0 dy=0 dh=-14 dv=0 dx=0 dy=0 dh=0 dv=0
PairPos2: "'kern' Horizontal Kerning in Latin lookup 0 per glyph data 1" AE dx=0 dy=0 dh=-15 dv=0 dx=0 dy=0 dh=0 dv=0
PairPos2: "'kern' Horizontal Kerning in Latin lookup 0 per glyph data 1" Aring dx=0 dy=0 dh=-15 dv=0 dx=0 dy=0 dh=0 dv=0
PairPos2: "'kern' Horizontal Kerning in Latin lookup 0 per glyph data 1" Adieresis dx=0 dy=0 dh=-15 dv=0 dx=0 dy=0 dh=0 dv=0
PairPos2: "'kern' Horizontal Kerning in Latin lookup 0 per glyph data 1" Atilde dx=0 dy=0 dh=-15 dv=0 dx=0 dy=0 dh=0 dv=0
PairPos2: "'kern' Horizontal Kerning in Latin lookup 0 per glyph data 1" Acircumflex dx=0 dy=0 dh=-15 dv=0 dx=0 dy=0 dh=0 dv=0
PairPos2: "'kern' Horizontal Kerning in Latin lookup 0 per glyph data 1" Aacute dx=0 dy=0 dh=-15 dv=0 dx=0 dy=0 dh=0 dv=0
PairPos2: "'kern' Horizontal Kerning in Latin lookup 0 per glyph data 1" Agrave dx=0 dy=0 dh=-15 dv=0 dx=0 dy=0 dh=0 dv=0
PairPos2: "'kern' Horizontal Kerning in Latin lookup 0 per glyph data 1" mu dx=0 dy=0 dh=-22 dv=0 dx=0 dy=0 dh=0 dv=0
PairPos2: "'kern' Horizontal Kerning in Latin lookup 0 per glyph data 1" brokenbar dx=0 dy=0 dh=-22 dv=0 dx=0 dy=0 dh=0 dv=0
PairPos2: "'kern' Horizontal Kerning in Latin lookup 0 per glyph data 1" cent dx=0 dy=0 dh=-25 dv=0 dx=0 dy=0 dh=0 dv=0
PairPos2: "'kern' Horizontal Kerning in Latin lookup 0 per glyph data 1" exclamdown dx=0 dy=0 dh=-22 dv=0 dx=0 dy=0 dh=0 dv=0
PairPos2: "'kern' Horizontal Kerning in Latin lookup 0 per glyph data 1" bar dx=0 dy=0 dh=-22 dv=0 dx=0 dy=0 dh=0 dv=0
PairPos2: "'kern' Horizontal Kerning in Latin lookup 0 per glyph data 1" z dx=0 dy=0 dh=-30 dv=0 dx=0 dy=0 dh=0 dv=0
PairPos2: "'kern' Horizontal Kerning in Latin lookup 0 per glyph data 1" y dx=0 dy=0 dh=-15 dv=0 dx=0 dy=0 dh=0 dv=0
PairPos2: "'kern' Horizontal Kerning in Latin lookup 0 per glyph data 1" v dx=0 dy=0 dh=-37 dv=0 dx=0 dy=0 dh=0 dv=0
PairPos2: "'kern' Horizontal Kerning in Latin lookup 0 per glyph data 1" u dx=0 dy=0 dh=-15 dv=0 dx=0 dy=0 dh=0 dv=0
PairPos2: "'kern' Horizontal Kerning in Latin lookup 0 per glyph data 1" t dx=0 dy=0 dh=-15 dv=0 dx=0 dy=0 dh=0 dv=0
PairPos2: "'kern' Horizontal Kerning in Latin lookup 0 per glyph data 1" r dx=0 dy=0 dh=-22 dv=0 dx=0 dy=0 dh=0 dv=0
PairPos2: "'kern' Horizontal Kerning in Latin lookup 0 per glyph data 1" q dx=0 dy=0 dh=-25 dv=0 dx=0 dy=0 dh=0 dv=0
PairPos2: "'kern' Horizontal Kerning in Latin lookup 0 per glyph data 1" p dx=0 dy=0 dh=-22 dv=0 dx=0 dy=0 dh=0 dv=0
PairPos2: "'kern' Horizontal Kerning in Latin lookup 0 per glyph data 1" o dx=0 dy=0 dh=-15 dv=0 dx=0 dy=0 dh=0 dv=0
PairPos2: "'kern' Horizontal Kerning in Latin lookup 0 per glyph data 1" n dx=0 dy=0 dh=-22 dv=0 dx=0 dy=0 dh=0 dv=0
PairPos2: "'kern' Horizontal Kerning in Latin lookup 0 per glyph data 1" m dx=0 dy=0 dh=-22 dv=0 dx=0 dy=0 dh=0 dv=0
PairPos2: "'kern' Horizontal Kerning in Latin lookup 0 per glyph data 1" l dx=0 dy=0 dh=-22 dv=0 dx=0 dy=0 dh=0 dv=0
PairPos2: "'kern' Horizontal Kerning in Latin lookup 0 per glyph data 1" k dx=0 dy=0 dh=-22 dv=0 dx=0 dy=0 dh=0 dv=0
PairPos2: "'kern' Horizontal Kerning in Latin lookup 0 per glyph data 1" j dx=0 dy=0 dh=-22 dv=0 dx=0 dy=0 dh=0 dv=0
PairPos2: "'kern' Horizontal Kerning in Latin lookup 0 per glyph data 1" i dx=0 dy=0 dh=-22 dv=0 dx=0 dy=0 dh=0 dv=0
PairPos2: "'kern' Horizontal Kerning in Latin lookup 0 per glyph data 1" h dx=0 dy=0 dh=-22 dv=0 dx=0 dy=0 dh=0 dv=0
PairPos2: "'kern' Horizontal Kerning in Latin lookup 0 per glyph data 1" f dx=0 dy=0 dh=-22 dv=0 dx=0 dy=0 dh=0 dv=0
PairPos2: "'kern' Horizontal Kerning in Latin lookup 0 per glyph data 1" e dx=0 dy=0 dh=-25 dv=0 dx=0 dy=0 dh=0 dv=0
PairPos2: "'kern' Horizontal Kerning in Latin lookup 0 per glyph data 1" d dx=0 dy=0 dh=-25 dv=0 dx=0 dy=0 dh=0 dv=0
PairPos2: "'kern' Horizontal Kerning in Latin lookup 0 per glyph data 1" c dx=0 dy=0 dh=-25 dv=0 dx=0 dy=0 dh=0 dv=0
PairPos2: "'kern' Horizontal Kerning in Latin lookup 0 per glyph data 1" b dx=0 dy=0 dh=-22 dv=0 dx=0 dy=0 dh=0 dv=0
PairPos2: "'kern' Horizontal Kerning in Latin lookup 0 per glyph data 1" a dx=0 dy=0 dh=-17 dv=0 dx=0 dy=0 dh=0 dv=0
PairPos2: "'kern' Horizontal Kerning in Latin lookup 0 per glyph data 1" bracketright dx=0 dy=0 dh=-22 dv=0 dx=0 dy=0 dh=0 dv=0
PairPos2: "'kern' Horizontal Kerning in Latin lookup 0 per glyph data 1" bracketleft dx=0 dy=0 dh=-22 dv=0 dx=0 dy=0 dh=0 dv=0
PairPos2: "'kern' Horizontal Kerning in Latin lookup 0 per glyph data 1" Z dx=0 dy=0 dh=-5 dv=0 dx=0 dy=0 dh=0 dv=0
PairPos2: "'kern' Horizontal Kerning in Latin lookup 0 per glyph data 1" Y dx=0 dy=0 dh=-29 dv=0 dx=0 dy=0 dh=0 dv=0
PairPos2: "'kern' Horizontal Kerning in Latin lookup 0 per glyph data 1" W dx=0 dy=0 dh=-22 dv=0 dx=0 dy=0 dh=0 dv=0
PairPos2: "'kern' Horizontal Kerning in Latin lookup 0 per glyph data 1" V dx=0 dy=0 dh=-22 dv=0 dx=0 dy=0 dh=0 dv=0
PairPos2: "'kern' Horizontal Kerning in Latin lookup 0 per glyph data 1" U dx=0 dy=0 dh=-5 dv=0 dx=0 dy=0 dh=0 dv=0
PairPos2: "'kern' Horizontal Kerning in Latin lookup 0 per glyph data 1" T dx=0 dy=0 dh=-22 dv=0 dx=0 dy=0 dh=0 dv=0
PairPos2: "'kern' Horizontal Kerning in Latin lookup 0 per glyph data 1" S dx=0 dy=0 dh=-10 dv=0 dx=0 dy=0 dh=0 dv=0
PairPos2: "'kern' Horizontal Kerning in Latin lookup 0 per glyph data 1" R dx=0 dy=0 dh=-7 dv=0 dx=0 dy=0 dh=0 dv=0
PairPos2: "'kern' Horizontal Kerning in Latin lookup 0 per glyph data 1" Q dx=0 dy=0 dh=-14 dv=0 dx=0 dy=0 dh=0 dv=0
PairPos2: "'kern' Horizontal Kerning in Latin lookup 0 per glyph data 1" P dx=0 dy=0 dh=-7 dv=0 dx=0 dy=0 dh=0 dv=0
PairPos2: "'kern' Horizontal Kerning in Latin lookup 0 per glyph data 1" O dx=0 dy=0 dh=-14 dv=0 dx=0 dy=0 dh=0 dv=0
PairPos2: "'kern' Horizontal Kerning in Latin lookup 0 per glyph data 1" N dx=0 dy=0 dh=-7 dv=0 dx=0 dy=0 dh=0 dv=0
PairPos2: "'kern' Horizontal Kerning in Latin lookup 0 per glyph data 1" M dx=0 dy=0 dh=-7 dv=0 dx=0 dy=0 dh=0 dv=0
PairPos2: "'kern' Horizontal Kerning in Latin lookup 0 per glyph data 1" L dx=0 dy=0 dh=-7 dv=0 dx=0 dy=0 dh=0 dv=0
PairPos2: "'kern' Horizontal Kerning in Latin lookup 0 per glyph data 1" K dx=0 dy=0 dh=-7 dv=0 dx=0 dy=0 dh=0 dv=0
PairPos2: "'kern' Horizontal Kerning in Latin lookup 0 per glyph data 1" J dx=0 dy=0 dh=-7 dv=0 dx=0 dy=0 dh=0 dv=0
PairPos2: "'kern' Horizontal Kerning in Latin lookup 0 per glyph data 1" I dx=0 dy=0 dh=-7 dv=0 dx=0 dy=0 dh=0 dv=0
PairPos2: "'kern' Horizontal Kerning in Latin lookup 0 per glyph data 1" H dx=0 dy=0 dh=-7 dv=0 dx=0 dy=0 dh=0 dv=0
PairPos2: "'kern' Horizontal Kerning in Latin lookup 0 per glyph data 1" G dx=0 dy=0 dh=-14 dv=0 dx=0 dy=0 dh=0 dv=0
PairPos2: "'kern' Horizontal Kerning in Latin lookup 0 per glyph data 1" F dx=0 dy=0 dh=-7 dv=0 dx=0 dy=0 dh=0 dv=0
PairPos2: "'kern' Horizontal Kerning in Latin lookup 0 per glyph data 1" E dx=0 dy=0 dh=-7 dv=0 dx=0 dy=0 dh=0 dv=0
PairPos2: "'kern' Horizontal Kerning in Latin lookup 0 per glyph data 1" D dx=0 dy=0 dh=-7 dv=0 dx=0 dy=0 dh=0 dv=0
PairPos2: "'kern' Horizontal Kerning in Latin lookup 0 per glyph data 1" C dx=0 dy=0 dh=-14 dv=0 dx=0 dy=0 dh=0 dv=0
PairPos2: "'kern' Horizontal Kerning in Latin lookup 0 per glyph data 1" B dx=0 dy=0 dh=-7 dv=0 dx=0 dy=0 dh=0 dv=0
PairPos2: "'kern' Horizontal Kerning in Latin lookup 0 per glyph data 1" A dx=0 dy=0 dh=-15 dv=0 dx=0 dy=0 dh=0 dv=0
PairPos2: "'kern' Horizontal Kerning in Latin lookup 0 per glyph data 1" one dx=0 dy=0 dh=-22 dv=0 dx=0 dy=0 dh=0 dv=0
PairPos2: "'kern' Horizontal Kerning in Latin lookup 0 per glyph data 1" parenright dx=0 dy=0 dh=-22 dv=0 dx=0 dy=0 dh=0 dv=0
PairPos2: "'kern' Horizontal Kerning in Latin lookup 0 per glyph data 1" parenleft dx=0 dy=0 dh=-22 dv=0 dx=0 dy=0 dh=0 dv=0
PairPos2: "'kern' Horizontal Kerning in Latin lookup 0 per glyph data 1" exclam dx=0 dy=0 dh=-22 dv=0 dx=0 dy=0 dh=0 dv=0
EndChar

StartChar: C
Encoding: 67 67 38
Width: 592
GlyphClass: 2
Flags: HW
LayerCount: 2
Fore
SplineSet
492 626 m 1,0,1
 440.888888889 646 440.888888889 646 384.944444444 646 c 0,2,3
 271.825 646 271.825 646 202.4125 563.119402985 c 128,-1,4
 133 480.23880597 133 480.23880597 133 320.341625207 c 128,-1,5
 133 160.444444444 133 160.444444444 205.5 96 c 0,6,7
 256.125 51 256.125 51 345 51 c 0,8,9
 402.25 51 402.25 51 459.59765625 63.984375 c 128,-1,10
 516.9453125 76.96875 516.9453125 76.96875 538 89 c 1,11,-1
 552 40 l 1,12,13
 507.656903766 11.4937238494 507.656903766 11.4937238494 398 -0.5 c 0,14,15
 366 -4 366 -4 330.5 -4 c 128,-1,16
 295 -4 295 -4 247 7.5 c 128,-1,17
 199 19 199 19 158.5 53.5 c 0,18,19
 65 133.148148148 65 133.148148148 65 316.899074074 c 128,-1,20
 65 500.65 65 500.65 152.326086957 601.075 c 128,-1,21
 239.652173913 701.5 239.652173913 701.5 379.625 701.5 c 0,22,23
 457.659090909 701.5 457.659090909 701.5 514.5 671 c 0,24,25
 535 660 535 660 547 647 c 1,26,-1
 547 502 l 1,27,-1
 497 499 l 1,28,-1
 492 626 l 1,0,1
EndSplineSet
EndChar

StartChar: D
Encoding: 68 68 39
Width: 623
GlyphClass: 2
Flags: HW
LayerCount: 2
Fore
SplineSet
80 700 m 1,0,-1
 260 700 l 2,1,2
 469.875 700 469.875 700 534.5 524 c 0,3,4
 558 460 558 460 558 355.5 c 128,-1,5
 558 251 558 251 535 179.5 c 128,-1,6
 512 108 512 108 470 68 c 128,-1,7
 428 28 428 28 368.5 14 c 128,-1,8
 309 0 309 0 235 0 c 2,9,-1
 80 0 l 1,10,-1
 80 700 l 1,0,-1
148 645 m 1,11,-1
 148 55 l 1,12,-1
 230 55 l 2,13,14
 282 55 282 55 329.5 63.5 c 0,15,16
 490 92.2210526316 490 92.2210526316 490 361 c 0,17,18
 490 512.415384615 490 512.415384615 419.5 584 c 0,19,20
 359.424242424 645 359.424242424 645 255 645 c 2,21,-1
 148 645 l 1,11,-1
EndSplineSet
EndChar

StartChar: E
Encoding: 69 69 40
Width: 504
GlyphClass: 2
Flags: HW
LayerCount: 2
Fore
SplineSet
439 640 m 1,0,-1
 148 640 l 1,1,-1
 148 377 l 1,2,-1
 418 377 l 1,3,-1
 413 317 l 1,4,-1
 148 317 l 1,5,-1
 148 60 l 1,6,-1
 464 60 l 1,7,-1
 459 0 l 1,8,-1
 80 0 l 1,9,-1
 80 700 l 1,10,-1
 444 700 l 1,11,-1
 439 640 l 1,0,-1
EndSplineSet
EndChar

StartChar: F
Encoding: 70 70 41
Width: 484
GlyphClass: 2
Flags: HW
LayerCount: 2
Fore
SplineSet
439 640 m 1,0,-1
 148 640 l 1,1,-1
 148 377 l 1,2,-1
 418 377 l 1,3,-1
 413 317 l 1,4,-1
 148 317 l 1,5,-1
 148 0 l 1,6,-1
 80 0 l 1,7,-1
 80 700 l 1,8,-1
 444 700 l 1,9,-1
 439 640 l 1,0,-1
EndSplineSet
PairPos2: "'kern' Horizontal Kerning in Latin lookup 0 per glyph data 1" Ydieresis dx=0 dy=0 dh=-10 dv=0 dx=0 dy=0 dh=0 dv=0
PairPos2: "'kern' Horizontal Kerning in Latin lookup 0 per glyph data 1" oe dx=0 dy=0 dh=-52 dv=0 dx=0 dy=0 dh=0 dv=0
PairPos2: "'kern' Horizontal Kerning in Latin lookup 0 per glyph data 1" OE dx=0 dy=0 dh=-22 dv=0 dx=0 dy=0 dh=0 dv=0
PairPos2: "'kern' Horizontal Kerning in Latin lookup 0 per glyph data 1" dotlessi dx=0 dy=0 dh=-32 dv=0 dx=0 dy=0 dh=0 dv=0
PairPos2: "'kern' Horizontal Kerning in Latin lookup 0 per glyph data 1" ydieresis dx=0 dy=0 dh=-37 dv=0 dx=0 dy=0 dh=0 dv=0
PairPos2: "'kern' Horizontal Kerning in Latin lookup 0 per glyph data 1" thorn dx=0 dy=0 dh=-32 dv=0 dx=0 dy=0 dh=0 dv=0
PairPos2: "'kern' Horizontal Kerning in Latin lookup 0 per glyph data 1" yacute dx=0 dy=0 dh=-37 dv=0 dx=0 dy=0 dh=0 dv=0
PairPos2: "'kern' Horizontal Kerning in Latin lookup 0 per glyph data 1" udieresis dx=0 dy=0 dh=-32 dv=0 dx=0 dy=0 dh=0 dv=0
PairPos2: "'kern' Horizontal Kerning in Latin lookup 0 per glyph data 1" ucircumflex dx=0 dy=0 dh=-32 dv=0 dx=0 dy=0 dh=0 dv=0
PairPos2: "'kern' Horizontal Kerning in Latin lookup 0 per glyph data 1" uacute dx=0 dy=0 dh=-32 dv=0 dx=0 dy=0 dh=0 dv=0
PairPos2: "'kern' Horizontal Kerning in Latin lookup 0 per glyph data 1" ugrave dx=0 dy=0 dh=-32 dv=0 dx=0 dy=0 dh=0 dv=0
PairPos2: "'kern' Horizontal Kerning in Latin lookup 0 per glyph data 1" oslash dx=0 dy=0 dh=-67 dv=0 dx=0 dy=0 dh=0 dv=0
PairPos2: "'kern' Horizontal Kerning in Latin lookup 0 per glyph data 1" odieresis dx=0 dy=0 dh=-52 dv=0 dx=0 dy=0 dh=0 dv=0
PairPos2: "'kern' Horizontal Kerning in Latin lookup 0 per glyph data 1" otilde dx=0 dy=0 dh=-52 dv=0 dx=0 dy=0 dh=0 dv=0
PairPos2: "'kern' Horizontal Kerning in Latin lookup 0 per glyph data 1" ocircumflex dx=0 dy=0 dh=-52 dv=0 dx=0 dy=0 dh=0 dv=0
PairPos2: "'kern' Horizontal Kerning in Latin lookup 0 per glyph data 1" oacute dx=0 dy=0 dh=-52 dv=0 dx=0 dy=0 dh=0 dv=0
PairPos2: "'kern' Horizontal Kerning in Latin lookup 0 per glyph data 1" ograve dx=0 dy=0 dh=-52 dv=0 dx=0 dy=0 dh=0 dv=0
PairPos2: "'kern' Horizontal Kerning in Latin lookup 0 per glyph data 1" ntilde dx=0 dy=0 dh=-32 dv=0 dx=0 dy=0 dh=0 dv=0
PairPos2: "'kern' Horizontal Kerning in Latin lookup 0 per glyph data 1" eth dx=0 dy=0 dh=-52 dv=0 dx=0 dy=0 dh=0 dv=0
PairPos2: "'kern' Horizontal Kerning in Latin lookup 0 per glyph data 1" idieresis dx=0 dy=0 dh=-32 dv=0 dx=0 dy=0 dh=0 dv=0
PairPos2: "'kern' Horizontal Kerning in Latin lookup 0 per glyph data 1" icircumflex dx=0 dy=0 dh=-32 dv=0 dx=0 dy=0 dh=0 dv=0
PairPos2: "'kern' Horizontal Kerning in Latin lookup 0 per glyph data 1" iacute dx=0 dy=0 dh=-32 dv=0 dx=0 dy=0 dh=0 dv=0
PairPos2: "'kern' Horizontal Kerning in Latin lookup 0 per glyph data 1" igrave dx=0 dy=0 dh=-32 dv=0 dx=0 dy=0 dh=0 dv=0
PairPos2: "'kern' Horizontal Kerning in Latin lookup 0 per glyph data 1" edieresis dx=0 dy=0 dh=-25 dv=0 dx=0 dy=0 dh=0 dv=0
PairPos2: "'kern' Horizontal Kerning in Latin lookup 0 per glyph data 1" ecircumflex dx=0 dy=0 dh=-25 dv=0 dx=0 dy=0 dh=0 dv=0
PairPos2: "'kern' Horizontal Kerning in Latin lookup 0 per glyph data 1" eacute dx=0 dy=0 dh=-25 dv=0 dx=0 dy=0 dh=0 dv=0
PairPos2: "'kern' Horizontal Kerning in Latin lookup 0 per glyph data 1" egrave dx=0 dy=0 dh=-25 dv=0 dx=0 dy=0 dh=0 dv=0
PairPos2: "'kern' Horizontal Kerning in Latin lookup 0 per glyph data 1" ccedilla dx=0 dy=0 dh=-25 dv=0 dx=0 dy=0 dh=0 dv=0
PairPos2: "'kern' Horizontal Kerning in Latin lookup 0 per glyph data 1" ae dx=0 dy=0 dh=-30 dv=0 dx=0 dy=0 dh=0 dv=0
PairPos2: "'kern' Horizontal Kerning in Latin lookup 0 per glyph data 1" aring dx=0 dy=0 dh=-32 dv=0 dx=0 dy=0 dh=0 dv=0
PairPos2: "'kern' Horizontal Kerning in Latin lookup 0 per glyph data 1" adieresis dx=0 dy=0 dh=-32 dv=0 dx=0 dy=0 dh=0 dv=0
PairPos2: "'kern' Horizontal Kerning in Latin lookup 0 per glyph data 1" atilde dx=0 dy=0 dh=-32 dv=0 dx=0 dy=0 dh=0 dv=0
PairPos2: "'kern' Horizontal Kerning in Latin lookup 0 per glyph data 1" acircumflex dx=0 dy=0 dh=-32 dv=0 dx=0 dy=0 dh=0 dv=0
PairPos2: "'kern' Horizontal Kerning in Latin lookup 0 per glyph data 1" aacute dx=0 dy=0 dh=-32 dv=0 dx=0 dy=0 dh=0 dv=0
PairPos2: "'kern' Horizontal Kerning in Latin lookup 0 per glyph data 1" agrave dx=0 dy=0 dh=-32 dv=0 dx=0 dy=0 dh=0 dv=0
PairPos2: "'kern' Horizontal Kerning in Latin lookup 0 per glyph data 1" germandbls dx=0 dy=0 dh=-32 dv=0 dx=0 dy=0 dh=0 dv=0
PairPos2: "'kern' Horizontal Kerning in Latin lookup 0 per glyph data 1" Thorn dx=0 dy=0 dh=-5 dv=0 dx=0 dy=0 dh=0 dv=0
PairPos2: "'kern' Horizontal Kerning in Latin lookup 0 per glyph data 1" Yacute dx=0 dy=0 dh=-10 dv=0 dx=0 dy=0 dh=0 dv=0
PairPos2: "'kern' Horizontal Kerning in Latin lookup 0 per glyph data 1" Udieresis dx=0 dy=0 dh=-10 dv=0 dx=0 dy=0 dh=0 dv=0
PairPos2: "'kern' Horizontal Kerning in Latin lookup 0 per glyph data 1" Ucircumflex dx=0 dy=0 dh=-10 dv=0 dx=0 dy=0 dh=0 dv=0
PairPos2: "'kern' Horizontal Kerning in Latin lookup 0 per glyph data 1" Uacute dx=0 dy=0 dh=-10 dv=0 dx=0 dy=0 dh=0 dv=0
PairPos2: "'kern' Horizontal Kerning in Latin lookup 0 per glyph data 1" Ugrave dx=0 dy=0 dh=-10 dv=0 dx=0 dy=0 dh=0 dv=0
PairPos2: "'kern' Horizontal Kerning in Latin lookup 0 per glyph data 1" Oslash dx=0 dy=0 dh=-21 dv=0 dx=0 dy=0 dh=0 dv=0
PairPos2: "'kern' Horizontal Kerning in Latin lookup 0 per glyph data 1" Odieresis dx=0 dy=0 dh=-22 dv=0 dx=0 dy=0 dh=0 dv=0
PairPos2: "'kern' Horizontal Kerning in Latin lookup 0 per glyph data 1" Otilde dx=0 dy=0 dh=-22 dv=0 dx=0 dy=0 dh=0 dv=0
PairPos2: "'kern' Horizontal Kerning in Latin lookup 0 per glyph data 1" Ocircumflex dx=0 dy=0 dh=-22 dv=0 dx=0 dy=0 dh=0 dv=0
PairPos2: "'kern' Horizontal Kerning in Latin lookup 0 per glyph data 1" Oacute dx=0 dy=0 dh=-22 dv=0 dx=0 dy=0 dh=0 dv=0
PairPos2: "'kern' Horizontal Kerning in Latin lookup 0 per glyph data 1" Ograve dx=0 dy=0 dh=-22 dv=0 dx=0 dy=0 dh=0 dv=0
PairPos2: "'kern' Horizontal Kerning in Latin lookup 0 per glyph data 1" Ntilde dx=0 dy=0 dh=-5 dv=0 dx=0 dy=0 dh=0 dv=0
PairPos2: "'kern' Horizontal Kerning in Latin lookup 0 per glyph data 1" Idieresis dx=0 dy=0 dh=-5 dv=0 dx=0 dy=0 dh=0 dv=0
PairPos2: "'kern' Horizontal Kerning in Latin lookup 0 per glyph data 1" Icircumflex dx=0 dy=0 dh=-5 dv=0 dx=0 dy=0 dh=0 dv=0
PairPos2: "'kern' Horizontal Kerning in Latin lookup 0 per glyph data 1" Iacute dx=0 dy=0 dh=-5 dv=0 dx=0 dy=0 dh=0 dv=0
PairPos2: "'kern' Horizontal Kerning in Latin lookup 0 per glyph data 1" Igrave dx=0 dy=0 dh=-5 dv=0 dx=0 dy=0 dh=0 dv=0
PairPos2: "'kern' Horizontal Kerning in Latin lookup 0 per glyph data 1" Edieresis dx=0 dy=0 dh=-5 dv=0 dx=0 dy=0 dh=0 dv=0
PairPos2: "'kern' Horizontal Kerning in Latin lookup 0 per glyph data 1" Ecircumflex dx=0 dy=0 dh=-5 dv=0 dx=0 dy=0 dh=0 dv=0
PairPos2: "'kern' Horizontal Kerning in Latin lookup 0 per glyph data 1" Eacute dx=0 dy=0 dh=-5 dv=0 dx=0 dy=0 dh=0 dv=0
PairPos2: "'kern' Horizontal Kerning in Latin lookup 0 per glyph data 1" Egrave dx=0 dy=0 dh=-5 dv=0 dx=0 dy=0 dh=0 dv=0
PairPos2: "'kern' Horizontal Kerning in Latin lookup 0 per glyph data 1" Ccedilla dx=0 dy=0 dh=-22 dv=0 dx=0 dy=0 dh=0 dv=0
PairPos2: "'kern' Horizontal Kerning in Latin lookup 0 per glyph data 1" AE dx=0 dy=0 dh=-36 dv=0 dx=0 dy=0 dh=0 dv=0
PairPos2: "'kern' Horizontal Kerning in Latin lookup 0 per glyph data 1" Aring dx=0 dy=0 dh=-36 dv=0 dx=0 dy=0 dh=0 dv=0
PairPos2: "'kern' Horizontal Kerning in Latin lookup 0 per glyph data 1" Adieresis dx=0 dy=0 dh=-36 dv=0 dx=0 dy=0 dh=0 dv=0
PairPos2: "'kern' Horizontal Kerning in Latin lookup 0 per glyph data 1" Atilde dx=0 dy=0 dh=-36 dv=0 dx=0 dy=0 dh=0 dv=0
PairPos2: "'kern' Horizontal Kerning in Latin lookup 0 per glyph data 1" Acircumflex dx=0 dy=0 dh=-36 dv=0 dx=0 dy=0 dh=0 dv=0
PairPos2: "'kern' Horizontal Kerning in Latin lookup 0 per glyph data 1" Aacute dx=0 dy=0 dh=-36 dv=0 dx=0 dy=0 dh=0 dv=0
PairPos2: "'kern' Horizontal Kerning in Latin lookup 0 per glyph data 1" Agrave dx=0 dy=0 dh=-36 dv=0 dx=0 dy=0 dh=0 dv=0
PairPos2: "'kern' Horizontal Kerning in Latin lookup 0 per glyph data 1" mu dx=0 dy=0 dh=-32 dv=0 dx=0 dy=0 dh=0 dv=0
PairPos2: "'kern' Horizontal Kerning in Latin lookup 0 per glyph data 1" brokenbar dx=0 dy=0 dh=-32 dv=0 dx=0 dy=0 dh=0 dv=0
PairPos2: "'kern' Horizontal Kerning in Latin lookup 0 per glyph data 1" cent dx=0 dy=0 dh=-25 dv=0 dx=0 dy=0 dh=0 dv=0
PairPos2: "'kern' Horizontal Kerning in Latin lookup 0 per glyph data 1" exclamdown dx=0 dy=0 dh=-32 dv=0 dx=0 dy=0 dh=0 dv=0
PairPos2: "'kern' Horizontal Kerning in Latin lookup 0 per glyph data 1" bar dx=0 dy=0 dh=-32 dv=0 dx=0 dy=0 dh=0 dv=0
PairPos2: "'kern' Horizontal Kerning in Latin lookup 0 per glyph data 1" y dx=0 dy=0 dh=-37 dv=0 dx=0 dy=0 dh=0 dv=0
PairPos2: "'kern' Horizontal Kerning in Latin lookup 0 per glyph data 1" u dx=0 dy=0 dh=-32 dv=0 dx=0 dy=0 dh=0 dv=0
PairPos2: "'kern' Horizontal Kerning in Latin lookup 0 per glyph data 1" t dx=0 dy=0 dh=-32 dv=0 dx=0 dy=0 dh=0 dv=0
PairPos2: "'kern' Horizontal Kerning in Latin lookup 0 per glyph data 1" s dx=0 dy=0 dh=-32 dv=0 dx=0 dy=0 dh=0 dv=0
PairPos2: "'kern' Horizontal Kerning in Latin lookup 0 per glyph data 1" r dx=0 dy=0 dh=-32 dv=0 dx=0 dy=0 dh=0 dv=0
PairPos2: "'kern' Horizontal Kerning in Latin lookup 0 per glyph data 1" q dx=0 dy=0 dh=-25 dv=0 dx=0 dy=0 dh=0 dv=0
PairPos2: "'kern' Horizontal Kerning in Latin lookup 0 per glyph data 1" p dx=0 dy=0 dh=-32 dv=0 dx=0 dy=0 dh=0 dv=0
PairPos2: "'kern' Horizontal Kerning in Latin lookup 0 per glyph data 1" o dx=0 dy=0 dh=-52 dv=0 dx=0 dy=0 dh=0 dv=0
PairPos2: "'kern' Horizontal Kerning in Latin lookup 0 per glyph data 1" n dx=0 dy=0 dh=-32 dv=0 dx=0 dy=0 dh=0 dv=0
PairPos2: "'kern' Horizontal Kerning in Latin lookup 0 per glyph data 1" m dx=0 dy=0 dh=-32 dv=0 dx=0 dy=0 dh=0 dv=0
PairPos2: "'kern' Horizontal Kerning in Latin lookup 0 per glyph data 1" l dx=0 dy=0 dh=-32 dv=0 dx=0 dy=0 dh=0 dv=0
PairPos2: "'kern' Horizontal Kerning in Latin lookup 0 per glyph data 1" k dx=0 dy=0 dh=-32 dv=0 dx=0 dy=0 dh=0 dv=0
PairPos2: "'kern' Horizontal Kerning in Latin lookup 0 per glyph data 1" j dx=0 dy=0 dh=-32 dv=0 dx=0 dy=0 dh=0 dv=0
PairPos2: "'kern' Horizontal Kerning in Latin lookup 0 per glyph data 1" i dx=0 dy=0 dh=-32 dv=0 dx=0 dy=0 dh=0 dv=0
PairPos2: "'kern' Horizontal Kerning in Latin lookup 0 per glyph data 1" h dx=0 dy=0 dh=-32 dv=0 dx=0 dy=0 dh=0 dv=0
PairPos2: "'kern' Horizontal Kerning in Latin lookup 0 per glyph data 1" f dx=0 dy=0 dh=-32 dv=0 dx=0 dy=0 dh=0 dv=0
PairPos2: "'kern' Horizontal Kerning in Latin lookup 0 per glyph data 1" e dx=0 dy=0 dh=-25 dv=0 dx=0 dy=0 dh=0 dv=0
PairPos2: "'kern' Horizontal Kerning in Latin lookup 0 per glyph data 1" d dx=0 dy=0 dh=-25 dv=0 dx=0 dy=0 dh=0 dv=0
PairPos2: "'kern' Horizontal Kerning in Latin lookup 0 per glyph data 1" c dx=0 dy=0 dh=-25 dv=0 dx=0 dy=0 dh=0 dv=0
PairPos2: "'kern' Horizontal Kerning in Latin lookup 0 per glyph data 1" b dx=0 dy=0 dh=-32 dv=0 dx=0 dy=0 dh=0 dv=0
PairPos2: "'kern' Horizontal Kerning in Latin lookup 0 per glyph data 1" a dx=0 dy=0 dh=-32 dv=0 dx=0 dy=0 dh=0 dv=0
PairPos2: "'kern' Horizontal Kerning in Latin lookup 0 per glyph data 1" bracketright dx=0 dy=0 dh=-32 dv=0 dx=0 dy=0 dh=0 dv=0
PairPos2: "'kern' Horizontal Kerning in Latin lookup 0 per glyph data 1" bracketleft dx=0 dy=0 dh=-32 dv=0 dx=0 dy=0 dh=0 dv=0
PairPos2: "'kern' Horizontal Kerning in Latin lookup 0 per glyph data 1" Y dx=0 dy=0 dh=-10 dv=0 dx=0 dy=0 dh=0 dv=0
PairPos2: "'kern' Horizontal Kerning in Latin lookup 0 per glyph data 1" U dx=0 dy=0 dh=-10 dv=0 dx=0 dy=0 dh=0 dv=0
PairPos2: "'kern' Horizontal Kerning in Latin lookup 0 per glyph data 1" S dx=0 dy=0 dh=-15 dv=0 dx=0 dy=0 dh=0 dv=0
PairPos2: "'kern' Horizontal Kerning in Latin lookup 0 per glyph data 1" R dx=0 dy=0 dh=-5 dv=0 dx=0 dy=0 dh=0 dv=0
PairPos2: "'kern' Horizontal Kerning in Latin lookup 0 per glyph data 1" Q dx=0 dy=0 dh=-22 dv=0 dx=0 dy=0 dh=0 dv=0
PairPos2: "'kern' Horizontal Kerning in Latin lookup 0 per glyph data 1" P dx=0 dy=0 dh=-5 dv=0 dx=0 dy=0 dh=0 dv=0
PairPos2: "'kern' Horizontal Kerning in Latin lookup 0 per glyph data 1" O dx=0 dy=0 dh=-22 dv=0 dx=0 dy=0 dh=0 dv=0
PairPos2: "'kern' Horizontal Kerning in Latin lookup 0 per glyph data 1" N dx=0 dy=0 dh=-5 dv=0 dx=0 dy=0 dh=0 dv=0
PairPos2: "'kern' Horizontal Kerning in Latin lookup 0 per glyph data 1" M dx=0 dy=0 dh=-5 dv=0 dx=0 dy=0 dh=0 dv=0
PairPos2: "'kern' Horizontal Kerning in Latin lookup 0 per glyph data 1" L dx=0 dy=0 dh=-5 dv=0 dx=0 dy=0 dh=0 dv=0
PairPos2: "'kern' Horizontal Kerning in Latin lookup 0 per glyph data 1" K dx=0 dy=0 dh=-5 dv=0 dx=0 dy=0 dh=0 dv=0
PairPos2: "'kern' Horizontal Kerning in Latin lookup 0 per glyph data 1" J dx=0 dy=0 dh=-5 dv=0 dx=0 dy=0 dh=0 dv=0
PairPos2: "'kern' Horizontal Kerning in Latin lookup 0 per glyph data 1" I dx=0 dy=0 dh=-5 dv=0 dx=0 dy=0 dh=0 dv=0
PairPos2: "'kern' Horizontal Kerning in Latin lookup 0 per glyph data 1" H dx=0 dy=0 dh=-5 dv=0 dx=0 dy=0 dh=0 dv=0
PairPos2: "'kern' Horizontal Kerning in Latin lookup 0 per glyph data 1" G dx=0 dy=0 dh=-22 dv=0 dx=0 dy=0 dh=0 dv=0
PairPos2: "'kern' Horizontal Kerning in Latin lookup 0 per glyph data 1" F dx=0 dy=0 dh=-5 dv=0 dx=0 dy=0 dh=0 dv=0
PairPos2: "'kern' Horizontal Kerning in Latin lookup 0 per glyph data 1" E dx=0 dy=0 dh=-5 dv=0 dx=0 dy=0 dh=0 dv=0
PairPos2: "'kern' Horizontal Kerning in Latin lookup 0 per glyph data 1" D dx=0 dy=0 dh=-5 dv=0 dx=0 dy=0 dh=0 dv=0
PairPos2: "'kern' Horizontal Kerning in Latin lookup 0 per glyph data 1" C dx=0 dy=0 dh=-22 dv=0 dx=0 dy=0 dh=0 dv=0
PairPos2: "'kern' Horizontal Kerning in Latin lookup 0 per glyph data 1" B dx=0 dy=0 dh=-5 dv=0 dx=0 dy=0 dh=0 dv=0
PairPos2: "'kern' Horizontal Kerning in Latin lookup 0 per glyph data 1" A dx=0 dy=0 dh=-36 dv=0 dx=0 dy=0 dh=0 dv=0
PairPos2: "'kern' Horizontal Kerning in Latin lookup 0 per glyph data 1" one dx=0 dy=0 dh=-32 dv=0 dx=0 dy=0 dh=0 dv=0
PairPos2: "'kern' Horizontal Kerning in Latin lookup 0 per glyph data 1" parenright dx=0 dy=0 dh=-32 dv=0 dx=0 dy=0 dh=0 dv=0
PairPos2: "'kern' Horizontal Kerning in Latin lookup 0 per glyph data 1" parenleft dx=0 dy=0 dh=-32 dv=0 dx=0 dy=0 dh=0 dv=0
PairPos2: "'kern' Horizontal Kerning in Latin lookup 0 per glyph data 1" exclam dx=0 dy=0 dh=-32 dv=0 dx=0 dy=0 dh=0 dv=0
EndChar

StartChar: G
Encoding: 71 71 42
Width: 629
GlyphClass: 2
Flags: HW
LayerCount: 2
Fore
SplineSet
528 602 m 1,0,1
 502.292682927 627.707317073 502.292682927 627.707317073 434.5 641 c 0,2,3
 409 646 409 646 369 646 c 128,-1,4
 329 646 329 646 284.5 627 c 128,-1,5
 240 608 240 608 206.5 568 c 0,6,7
 133 480.23880597 133 480.23880597 133 320.341625207 c 0,8,9
 133 160.444444444 133 160.444444444 205.5 96 c 0,10,11
 256.125 51 256.125 51 338.5 51 c 0,12,13
 420.875 51 420.875 51 497 72 c 1,14,-1
 502 310 l 1,15,-1
 557 310 l 1,16,-1
 557 40 l 1,17,18
 513.217659138 11.8542094456 513.217659138 11.8542094456 398.5 -0.5 c 0,19,20
 366 -4 366 -4 330.5 -4 c 128,-1,21
 295 -4 295 -4 247 7.5 c 128,-1,22
 199 19 199 19 158.5 53.5 c 0,23,24
 65 133.148148148 65 133.148148148 65 317.205324074 c 0,25,26
 65 501.2625 65 501.2625 153.016483516 601.38125 c 0,27,28
 241.032967033 701.5 241.032967033 701.5 380 701.5 c 1,29,-1
 412 700 l 1,30,31
 475.443478261 694.052173913 475.443478261 694.052173913 508.72173913 677.026086957 c 128,-1,32
 542 660 542 660 554 647 c 1,33,-1
 528 602 l 1,0,1
EndSplineSet
EndChar

StartChar: H
Encoding: 72 72 43
Width: 616
GlyphClass: 2
Flags: HW
LayerCount: 2
Fore
SplineSet
75 0 m 1,0,-1
 75 700 l 1,1,-1
 138 700 l 1,2,-1
 138 377 l 1,3,-1
 478 377 l 1,4,-1
 478 700 l 1,5,-1
 541 700 l 1,6,-1
 541 0 l 1,7,-1
 478 0 l 1,8,-1
 478 317 l 1,9,-1
 138 317 l 1,10,-1
 138 0 l 1,11,-1
 75 0 l 1,0,-1
EndSplineSet
EndChar

StartChar: I
Encoding: 73 73 44
Width: 348
GlyphClass: 2
Flags: HW
LayerCount: 2
Fore
SplineSet
258 0 m 1,0,-1
 70 0 l 1,1,-1
 70 48 l 1,2,-1
 130 55 l 1,3,-1
 130 644 l 1,4,-1
 75 651 l 1,5,-1
 75 700 l 1,6,-1
 253 700 l 1,7,-1
 253 651 l 1,8,-1
 198 644 l 1,9,-1
 198 55 l 1,10,-1
 258 48 l 1,11,-1
 258 0 l 1,0,-1
EndSplineSet
EndChar

StartChar: J
Encoding: 74 74 45
Width: 226
GlyphClass: 2
Flags: HW
LayerCount: 2
Fore
SplineSet
-32 -209 m 1,0,1
 37.2205438066 -144.105740181 37.2205438066 -144.105740181 66 -63 c 0,2,3
 77 -32 77 -32 77 0 c 2,4,-1
 77 700 l 1,5,-1
 145 700 l 1,6,-1
 145 0 l 2,7,8
 145.058823529 -2.82352941176 145.058823529 -2.82352941176 145.058823529 -5.61591695502 c 0,9,10
 145.058823529 -116.105882353 145.058823529 -116.105882353 43 -210 c 0,11,12
 18 -233 18 -233 1 -248 c 1,13,-1
 -32 -209 l 1,0,1
EndSplineSet
EndChar

StartChar: K
Encoding: 75 75 46
Width: 555
GlyphClass: 2
Flags: HW
LayerCount: 2
Fore
SplineSet
80 0 m 1,0,-1
 80 700 l 1,1,-1
 148 700 l 1,2,-1
 148 366 l 1,3,-1
 389 700 l 1,4,-1
 467 700 l 1,5,-1
 222 371 l 1,6,-1
 515 0 l 1,7,-1
 437 0 l 1,8,-1
 148 366 l 1,9,-1
 148 0 l 1,10,-1
 80 0 l 1,0,-1
EndSplineSet
EndChar

StartChar: L
Encoding: 76 76 47
Width: 509
GlyphClass: 2
Flags: HW
LayerCount: 2
Fore
SplineSet
459 0 m 1,0,-1
 80 0 l 1,1,-1
 80 700 l 1,2,-1
 148 700 l 1,3,-1
 148 60 l 1,4,-1
 464 60 l 1,5,-1
 459 0 l 1,0,-1
EndSplineSet
EndChar

StartChar: M
Encoding: 77 77 48
Width: 802
GlyphClass: 2
Flags: HW
LayerCount: 2
Fore
SplineSet
72 0 m 1,0,-1
 72 700 l 1,1,-1
 140 700 l 1,2,-1
 397 188 l 1,3,-1
 654 700 l 1,4,-1
 722 700 l 1,5,-1
 722 0 l 1,6,-1
 659 0 l 1,7,-1
 659 584 l 1,8,-1
 431 131 l 1,9,-1
 363 131 l 1,10,-1
 135 584 l 1,11,-1
 135 0 l 1,12,-1
 72 0 l 1,0,-1
EndSplineSet
EndChar

StartChar: N
Encoding: 78 78 49
Width: 675
GlyphClass: 2
Flags: HW
LayerCount: 2
Fore
SplineSet
529 0 m 1,0,-1
 130 610 l 1,1,-1
 135 0 l 1,2,-1
 72 0 l 1,3,-1
 72 700 l 1,4,-1
 145 700 l 1,5,-1
 543 90 l 1,6,-1
 539 700 l 1,7,-1
 602 700 l 1,8,-1
 602 0 l 1,9,-1
 529 0 l 1,0,-1
EndSplineSet
EndChar

StartChar: O
Encoding: 79 79 50
Width: 720
GlyphClass: 2
Flags: HW
LayerCount: 2
Fore
SplineSet
360 704 m 256,0,1
 655 704 655 704 655 348 c 0,2,3
 655 184.75 655 184.75 571.111111111 90.375 c 128,-1,4
 487.222222222 -4 487.222222222 -4 360 -4 c 256,5,6
 224.580246914 -4 224.580246914 -4 151 70.5 c 0,7,8
 65 157.575 65 157.575 65 334.625 c 0,9,10
 65 511.675 65 511.675 149.538461538 607.8375 c 128,-1,11
 234.076923077 704 234.076923077 704 360 704 c 256,0,1
199.5 117.5 m 0,12,13
 255.492537313 56 255.492537313 56 360 56 c 256,14,15
 459.093333333 56 459.093333333 56 523.046666667 134.631147541 c 128,-1,16
 587 213.262295082 587 213.262295082 587 360.06557377 c 128,-1,17
 587 506.868852459 587 506.868852459 520.5 581 c 0,18,19
 463.985294118 644 463.985294118 644 360 644 c 256,20,21
 261.72 644 261.72 644 197.36 564.868852459 c 128,-1,22
 133 485.737704918 133 485.737704918 133 338.139344262 c 128,-1,23
 133 190.540983607 133 190.540983607 199.5 117.5 c 0,12,13
EndSplineSet
EndChar

StartChar: P
Encoding: 80 80 51
Width: 532
GlyphClass: 2
Flags: HW
LayerCount: 2
Fore
SplineSet
80 0 m 1,0,-1
 80 700 l 1,1,-1
 225 700 l 2,2,3
 348.045454545 700 348.045454545 700 403 661 c 0,4,5
 467 615.580645161 467 615.580645161 467 507 c 0,6,7
 467 325.444444444 467 325.444444444 327 285 c 0,8,9
 282 272 282 272 225 272 c 2,10,-1
 148 272 l 1,11,-1
 148 0 l 1,12,-1
 80 0 l 1,0,-1
148 645 m 1,13,-1
 148 327 l 1,14,-1
 220 327 l 2,15,16
 309.926829268 327 309.926829268 327 354.463414634 366.695652174 c 0,17,18
 399 406.391304348 399 406.391304348 399 495.77173913 c 0,19,20
 399 585.152173913 399 585.152173913 354.596774194 615.076086957 c 0,21,22
 310.193548387 645 310.193548387 645 220 645 c 2,23,-1
 148 645 l 1,13,-1
EndSplineSet
PairPos2: "'kern' Horizontal Kerning in Latin lookup 0 per glyph data 1" Ydieresis dx=0 dy=0 dh=-29 dv=0 dx=0 dy=0 dh=0 dv=0
PairPos2: "'kern' Horizontal Kerning in Latin lookup 0 per glyph data 1" oe dx=0 dy=0 dh=-70 dv=0 dx=0 dy=0 dh=0 dv=0
PairPos2: "'kern' Horizontal Kerning in Latin lookup 0 per glyph data 1" OE dx=0 dy=0 dh=-25 dv=0 dx=0 dy=0 dh=0 dv=0
PairPos2: "'kern' Horizontal Kerning in Latin lookup 0 per glyph data 1" dotlessi dx=0 dy=0 dh=-40 dv=0 dx=0 dy=0 dh=0 dv=0
PairPos2: "'kern' Horizontal Kerning in Latin lookup 0 per glyph data 1" ydieresis dx=0 dy=0 dh=-34 dv=0 dx=0 dy=0 dh=0 dv=0
PairPos2: "'kern' Horizontal Kerning in Latin lookup 0 per glyph data 1" thorn dx=0 dy=0 dh=-40 dv=0 dx=0 dy=0 dh=0 dv=0
PairPos2: "'kern' Horizontal Kerning in Latin lookup 0 per glyph data 1" yacute dx=0 dy=0 dh=-34 dv=0 dx=0 dy=0 dh=0 dv=0
PairPos2: "'kern' Horizontal Kerning in Latin lookup 0 per glyph data 1" udieresis dx=0 dy=0 dh=-42 dv=0 dx=0 dy=0 dh=0 dv=0
PairPos2: "'kern' Horizontal Kerning in Latin lookup 0 per glyph data 1" ucircumflex dx=0 dy=0 dh=-42 dv=0 dx=0 dy=0 dh=0 dv=0
PairPos2: "'kern' Horizontal Kerning in Latin lookup 0 per glyph data 1" uacute dx=0 dy=0 dh=-42 dv=0 dx=0 dy=0 dh=0 dv=0
PairPos2: "'kern' Horizontal Kerning in Latin lookup 0 per glyph data 1" ugrave dx=0 dy=0 dh=-42 dv=0 dx=0 dy=0 dh=0 dv=0
PairPos2: "'kern' Horizontal Kerning in Latin lookup 0 per glyph data 1" odieresis dx=0 dy=0 dh=-70 dv=0 dx=0 dy=0 dh=0 dv=0
PairPos2: "'kern' Horizontal Kerning in Latin lookup 0 per glyph data 1" otilde dx=0 dy=0 dh=-70 dv=0 dx=0 dy=0 dh=0 dv=0
PairPos2: "'kern' Horizontal Kerning in Latin lookup 0 per glyph data 1" ocircumflex dx=0 dy=0 dh=-70 dv=0 dx=0 dy=0 dh=0 dv=0
PairPos2: "'kern' Horizontal Kerning in Latin lookup 0 per glyph data 1" oacute dx=0 dy=0 dh=-70 dv=0 dx=0 dy=0 dh=0 dv=0
PairPos2: "'kern' Horizontal Kerning in Latin lookup 0 per glyph data 1" ograve dx=0 dy=0 dh=-70 dv=0 dx=0 dy=0 dh=0 dv=0
PairPos2: "'kern' Horizontal Kerning in Latin lookup 0 per glyph data 1" ntilde dx=0 dy=0 dh=-40 dv=0 dx=0 dy=0 dh=0 dv=0
PairPos2: "'kern' Horizontal Kerning in Latin lookup 0 per glyph data 1" eth dx=0 dy=0 dh=-70 dv=0 dx=0 dy=0 dh=0 dv=0
PairPos2: "'kern' Horizontal Kerning in Latin lookup 0 per glyph data 1" idieresis dx=0 dy=0 dh=-40 dv=0 dx=0 dy=0 dh=0 dv=0
PairPos2: "'kern' Horizontal Kerning in Latin lookup 0 per glyph data 1" icircumflex dx=0 dy=0 dh=-40 dv=0 dx=0 dy=0 dh=0 dv=0
PairPos2: "'kern' Horizontal Kerning in Latin lookup 0 per glyph data 1" iacute dx=0 dy=0 dh=-40 dv=0 dx=0 dy=0 dh=0 dv=0
PairPos2: "'kern' Horizontal Kerning in Latin lookup 0 per glyph data 1" igrave dx=0 dy=0 dh=-40 dv=0 dx=0 dy=0 dh=0 dv=0
PairPos2: "'kern' Horizontal Kerning in Latin lookup 0 per glyph data 1" edieresis dx=0 dy=0 dh=-89 dv=0 dx=0 dy=0 dh=0 dv=0
PairPos2: "'kern' Horizontal Kerning in Latin lookup 0 per glyph data 1" ecircumflex dx=0 dy=0 dh=-89 dv=0 dx=0 dy=0 dh=0 dv=0
PairPos2: "'kern' Horizontal Kerning in Latin lookup 0 per glyph data 1" eacute dx=0 dy=0 dh=-89 dv=0 dx=0 dy=0 dh=0 dv=0
PairPos2: "'kern' Horizontal Kerning in Latin lookup 0 per glyph data 1" egrave dx=0 dy=0 dh=-89 dv=0 dx=0 dy=0 dh=0 dv=0
PairPos2: "'kern' Horizontal Kerning in Latin lookup 0 per glyph data 1" ccedilla dx=0 dy=0 dh=-89 dv=0 dx=0 dy=0 dh=0 dv=0
PairPos2: "'kern' Horizontal Kerning in Latin lookup 0 per glyph data 1" aring dx=0 dy=0 dh=-54 dv=0 dx=0 dy=0 dh=0 dv=0
PairPos2: "'kern' Horizontal Kerning in Latin lookup 0 per glyph data 1" adieresis dx=0 dy=0 dh=-54 dv=0 dx=0 dy=0 dh=0 dv=0
PairPos2: "'kern' Horizontal Kerning in Latin lookup 0 per glyph data 1" atilde dx=0 dy=0 dh=-54 dv=0 dx=0 dy=0 dh=0 dv=0
PairPos2: "'kern' Horizontal Kerning in Latin lookup 0 per glyph data 1" acircumflex dx=0 dy=0 dh=-54 dv=0 dx=0 dy=0 dh=0 dv=0
PairPos2: "'kern' Horizontal Kerning in Latin lookup 0 per glyph data 1" aacute dx=0 dy=0 dh=-54 dv=0 dx=0 dy=0 dh=0 dv=0
PairPos2: "'kern' Horizontal Kerning in Latin lookup 0 per glyph data 1" agrave dx=0 dy=0 dh=-54 dv=0 dx=0 dy=0 dh=0 dv=0
PairPos2: "'kern' Horizontal Kerning in Latin lookup 0 per glyph data 1" germandbls dx=0 dy=0 dh=-40 dv=0 dx=0 dy=0 dh=0 dv=0
PairPos2: "'kern' Horizontal Kerning in Latin lookup 0 per glyph data 1" Thorn dx=0 dy=0 dh=-27 dv=0 dx=0 dy=0 dh=0 dv=0
PairPos2: "'kern' Horizontal Kerning in Latin lookup 0 per glyph data 1" Yacute dx=0 dy=0 dh=-29 dv=0 dx=0 dy=0 dh=0 dv=0
PairPos2: "'kern' Horizontal Kerning in Latin lookup 0 per glyph data 1" Udieresis dx=0 dy=0 dh=-25 dv=0 dx=0 dy=0 dh=0 dv=0
PairPos2: "'kern' Horizontal Kerning in Latin lookup 0 per glyph data 1" Ucircumflex dx=0 dy=0 dh=-25 dv=0 dx=0 dy=0 dh=0 dv=0
PairPos2: "'kern' Horizontal Kerning in Latin lookup 0 per glyph data 1" Uacute dx=0 dy=0 dh=-25 dv=0 dx=0 dy=0 dh=0 dv=0
PairPos2: "'kern' Horizontal Kerning in Latin lookup 0 per glyph data 1" Ugrave dx=0 dy=0 dh=-25 dv=0 dx=0 dy=0 dh=0 dv=0
PairPos2: "'kern' Horizontal Kerning in Latin lookup 0 per glyph data 1" Odieresis dx=0 dy=0 dh=-25 dv=0 dx=0 dy=0 dh=0 dv=0
PairPos2: "'kern' Horizontal Kerning in Latin lookup 0 per glyph data 1" Otilde dx=0 dy=0 dh=-25 dv=0 dx=0 dy=0 dh=0 dv=0
PairPos2: "'kern' Horizontal Kerning in Latin lookup 0 per glyph data 1" Ocircumflex dx=0 dy=0 dh=-25 dv=0 dx=0 dy=0 dh=0 dv=0
PairPos2: "'kern' Horizontal Kerning in Latin lookup 0 per glyph data 1" Oacute dx=0 dy=0 dh=-25 dv=0 dx=0 dy=0 dh=0 dv=0
PairPos2: "'kern' Horizontal Kerning in Latin lookup 0 per glyph data 1" Ograve dx=0 dy=0 dh=-25 dv=0 dx=0 dy=0 dh=0 dv=0
PairPos2: "'kern' Horizontal Kerning in Latin lookup 0 per glyph data 1" Ntilde dx=0 dy=0 dh=-27 dv=0 dx=0 dy=0 dh=0 dv=0
PairPos2: "'kern' Horizontal Kerning in Latin lookup 0 per glyph data 1" Idieresis dx=0 dy=0 dh=-27 dv=0 dx=0 dy=0 dh=0 dv=0
PairPos2: "'kern' Horizontal Kerning in Latin lookup 0 per glyph data 1" Icircumflex dx=0 dy=0 dh=-27 dv=0 dx=0 dy=0 dh=0 dv=0
PairPos2: "'kern' Horizontal Kerning in Latin lookup 0 per glyph data 1" Iacute dx=0 dy=0 dh=-27 dv=0 dx=0 dy=0 dh=0 dv=0
PairPos2: "'kern' Horizontal Kerning in Latin lookup 0 per glyph data 1" Igrave dx=0 dy=0 dh=-27 dv=0 dx=0 dy=0 dh=0 dv=0
PairPos2: "'kern' Horizontal Kerning in Latin lookup 0 per glyph data 1" Edieresis dx=0 dy=0 dh=-27 dv=0 dx=0 dy=0 dh=0 dv=0
PairPos2: "'kern' Horizontal Kerning in Latin lookup 0 per glyph data 1" Ecircumflex dx=0 dy=0 dh=-27 dv=0 dx=0 dy=0 dh=0 dv=0
PairPos2: "'kern' Horizontal Kerning in Latin lookup 0 per glyph data 1" Eacute dx=0 dy=0 dh=-27 dv=0 dx=0 dy=0 dh=0 dv=0
PairPos2: "'kern' Horizontal Kerning in Latin lookup 0 per glyph data 1" Egrave dx=0 dy=0 dh=-27 dv=0 dx=0 dy=0 dh=0 dv=0
PairPos2: "'kern' Horizontal Kerning in Latin lookup 0 per glyph data 1" Ccedilla dx=0 dy=0 dh=-25 dv=0 dx=0 dy=0 dh=0 dv=0
PairPos2: "'kern' Horizontal Kerning in Latin lookup 0 per glyph data 1" AE dx=0 dy=0 dh=-43 dv=0 dx=0 dy=0 dh=0 dv=0
PairPos2: "'kern' Horizontal Kerning in Latin lookup 0 per glyph data 1" Aring dx=0 dy=0 dh=-43 dv=0 dx=0 dy=0 dh=0 dv=0
PairPos2: "'kern' Horizontal Kerning in Latin lookup 0 per glyph data 1" Adieresis dx=0 dy=0 dh=-43 dv=0 dx=0 dy=0 dh=0 dv=0
PairPos2: "'kern' Horizontal Kerning in Latin lookup 0 per glyph data 1" Atilde dx=0 dy=0 dh=-43 dv=0 dx=0 dy=0 dh=0 dv=0
PairPos2: "'kern' Horizontal Kerning in Latin lookup 0 per glyph data 1" Acircumflex dx=0 dy=0 dh=-43 dv=0 dx=0 dy=0 dh=0 dv=0
PairPos2: "'kern' Horizontal Kerning in Latin lookup 0 per glyph data 1" Aacute dx=0 dy=0 dh=-43 dv=0 dx=0 dy=0 dh=0 dv=0
PairPos2: "'kern' Horizontal Kerning in Latin lookup 0 per glyph data 1" Agrave dx=0 dy=0 dh=-43 dv=0 dx=0 dy=0 dh=0 dv=0
PairPos2: "'kern' Horizontal Kerning in Latin lookup 0 per glyph data 1" mu dx=0 dy=0 dh=-40 dv=0 dx=0 dy=0 dh=0 dv=0
PairPos2: "'kern' Horizontal Kerning in Latin lookup 0 per glyph data 1" brokenbar dx=0 dy=0 dh=-40 dv=0 dx=0 dy=0 dh=0 dv=0
PairPos2: "'kern' Horizontal Kerning in Latin lookup 0 per glyph data 1" cent dx=0 dy=0 dh=-89 dv=0 dx=0 dy=0 dh=0 dv=0
PairPos2: "'kern' Horizontal Kerning in Latin lookup 0 per glyph data 1" exclamdown dx=0 dy=0 dh=-40 dv=0 dx=0 dy=0 dh=0 dv=0
PairPos2: "'kern' Horizontal Kerning in Latin lookup 0 per glyph data 1" bar dx=0 dy=0 dh=-40 dv=0 dx=0 dy=0 dh=0 dv=0
PairPos2: "'kern' Horizontal Kerning in Latin lookup 0 per glyph data 1" y dx=0 dy=0 dh=-34 dv=0 dx=0 dy=0 dh=0 dv=0
PairPos2: "'kern' Horizontal Kerning in Latin lookup 0 per glyph data 1" w dx=0 dy=0 dh=-30 dv=0 dx=0 dy=0 dh=0 dv=0
PairPos2: "'kern' Horizontal Kerning in Latin lookup 0 per glyph data 1" v dx=0 dy=0 dh=-13 dv=0 dx=0 dy=0 dh=0 dv=0
PairPos2: "'kern' Horizontal Kerning in Latin lookup 0 per glyph data 1" u dx=0 dy=0 dh=-42 dv=0 dx=0 dy=0 dh=0 dv=0
PairPos2: "'kern' Horizontal Kerning in Latin lookup 0 per glyph data 1" t dx=0 dy=0 dh=-42 dv=0 dx=0 dy=0 dh=0 dv=0
PairPos2: "'kern' Horizontal Kerning in Latin lookup 0 per glyph data 1" s dx=0 dy=0 dh=-55 dv=0 dx=0 dy=0 dh=0 dv=0
PairPos2: "'kern' Horizontal Kerning in Latin lookup 0 per glyph data 1" r dx=0 dy=0 dh=-40 dv=0 dx=0 dy=0 dh=0 dv=0
PairPos2: "'kern' Horizontal Kerning in Latin lookup 0 per glyph data 1" q dx=0 dy=0 dh=-89 dv=0 dx=0 dy=0 dh=0 dv=0
PairPos2: "'kern' Horizontal Kerning in Latin lookup 0 per glyph data 1" p dx=0 dy=0 dh=-40 dv=0 dx=0 dy=0 dh=0 dv=0
PairPos2: "'kern' Horizontal Kerning in Latin lookup 0 per glyph data 1" o dx=0 dy=0 dh=-70 dv=0 dx=0 dy=0 dh=0 dv=0
PairPos2: "'kern' Horizontal Kerning in Latin lookup 0 per glyph data 1" n dx=0 dy=0 dh=-40 dv=0 dx=0 dy=0 dh=0 dv=0
PairPos2: "'kern' Horizontal Kerning in Latin lookup 0 per glyph data 1" m dx=0 dy=0 dh=-40 dv=0 dx=0 dy=0 dh=0 dv=0
PairPos2: "'kern' Horizontal Kerning in Latin lookup 0 per glyph data 1" l dx=0 dy=0 dh=-40 dv=0 dx=0 dy=0 dh=0 dv=0
PairPos2: "'kern' Horizontal Kerning in Latin lookup 0 per glyph data 1" k dx=0 dy=0 dh=-40 dv=0 dx=0 dy=0 dh=0 dv=0
PairPos2: "'kern' Horizontal Kerning in Latin lookup 0 per glyph data 1" j dx=0 dy=0 dh=-40 dv=0 dx=0 dy=0 dh=0 dv=0
PairPos2: "'kern' Horizontal Kerning in Latin lookup 0 per glyph data 1" i dx=0 dy=0 dh=-40 dv=0 dx=0 dy=0 dh=0 dv=0
PairPos2: "'kern' Horizontal Kerning in Latin lookup 0 per glyph data 1" h dx=0 dy=0 dh=-40 dv=0 dx=0 dy=0 dh=0 dv=0
PairPos2: "'kern' Horizontal Kerning in Latin lookup 0 per glyph data 1" g dx=0 dy=0 dh=-48 dv=0 dx=0 dy=0 dh=0 dv=0
PairPos2: "'kern' Horizontal Kerning in Latin lookup 0 per glyph data 1" f dx=0 dy=0 dh=-40 dv=0 dx=0 dy=0 dh=0 dv=0
PairPos2: "'kern' Horizontal Kerning in Latin lookup 0 per glyph data 1" e dx=0 dy=0 dh=-89 dv=0 dx=0 dy=0 dh=0 dv=0
PairPos2: "'kern' Horizontal Kerning in Latin lookup 0 per glyph data 1" d dx=0 dy=0 dh=-89 dv=0 dx=0 dy=0 dh=0 dv=0
PairPos2: "'kern' Horizontal Kerning in Latin lookup 0 per glyph data 1" c dx=0 dy=0 dh=-89 dv=0 dx=0 dy=0 dh=0 dv=0
PairPos2: "'kern' Horizontal Kerning in Latin lookup 0 per glyph data 1" b dx=0 dy=0 dh=-40 dv=0 dx=0 dy=0 dh=0 dv=0
PairPos2: "'kern' Horizontal Kerning in Latin lookup 0 per glyph data 1" a dx=0 dy=0 dh=-54 dv=0 dx=0 dy=0 dh=0 dv=0
PairPos2: "'kern' Horizontal Kerning in Latin lookup 0 per glyph data 1" bracketright dx=0 dy=0 dh=-40 dv=0 dx=0 dy=0 dh=0 dv=0
PairPos2: "'kern' Horizontal Kerning in Latin lookup 0 per glyph data 1" bracketleft dx=0 dy=0 dh=-40 dv=0 dx=0 dy=0 dh=0 dv=0
PairPos2: "'kern' Horizontal Kerning in Latin lookup 0 per glyph data 1" Z dx=0 dy=0 dh=-29 dv=0 dx=0 dy=0 dh=0 dv=0
PairPos2: "'kern' Horizontal Kerning in Latin lookup 0 per glyph data 1" Y dx=0 dy=0 dh=-29 dv=0 dx=0 dy=0 dh=0 dv=0
PairPos2: "'kern' Horizontal Kerning in Latin lookup 0 per glyph data 1" U dx=0 dy=0 dh=-25 dv=0 dx=0 dy=0 dh=0 dv=0
PairPos2: "'kern' Horizontal Kerning in Latin lookup 0 per glyph data 1" T dx=0 dy=0 dh=-15 dv=0 dx=0 dy=0 dh=0 dv=0
PairPos2: "'kern' Horizontal Kerning in Latin lookup 0 per glyph data 1" S dx=0 dy=0 dh=-15 dv=0 dx=0 dy=0 dh=0 dv=0
PairPos2: "'kern' Horizontal Kerning in Latin lookup 0 per glyph data 1" R dx=0 dy=0 dh=-27 dv=0 dx=0 dy=0 dh=0 dv=0
PairPos2: "'kern' Horizontal Kerning in Latin lookup 0 per glyph data 1" Q dx=0 dy=0 dh=-25 dv=0 dx=0 dy=0 dh=0 dv=0
PairPos2: "'kern' Horizontal Kerning in Latin lookup 0 per glyph data 1" P dx=0 dy=0 dh=-27 dv=0 dx=0 dy=0 dh=0 dv=0
PairPos2: "'kern' Horizontal Kerning in Latin lookup 0 per glyph data 1" O dx=0 dy=0 dh=-25 dv=0 dx=0 dy=0 dh=0 dv=0
PairPos2: "'kern' Horizontal Kerning in Latin lookup 0 per glyph data 1" N dx=0 dy=0 dh=-27 dv=0 dx=0 dy=0 dh=0 dv=0
PairPos2: "'kern' Horizontal Kerning in Latin lookup 0 per glyph data 1" M dx=0 dy=0 dh=-27 dv=0 dx=0 dy=0 dh=0 dv=0
PairPos2: "'kern' Horizontal Kerning in Latin lookup 0 per glyph data 1" L dx=0 dy=0 dh=-27 dv=0 dx=0 dy=0 dh=0 dv=0
PairPos2: "'kern' Horizontal Kerning in Latin lookup 0 per glyph data 1" K dx=0 dy=0 dh=-27 dv=0 dx=0 dy=0 dh=0 dv=0
PairPos2: "'kern' Horizontal Kerning in Latin lookup 0 per glyph data 1" J dx=0 dy=0 dh=-27 dv=0 dx=0 dy=0 dh=0 dv=0
PairPos2: "'kern' Horizontal Kerning in Latin lookup 0 per glyph data 1" I dx=0 dy=0 dh=-27 dv=0 dx=0 dy=0 dh=0 dv=0
PairPos2: "'kern' Horizontal Kerning in Latin lookup 0 per glyph data 1" H dx=0 dy=0 dh=-27 dv=0 dx=0 dy=0 dh=0 dv=0
PairPos2: "'kern' Horizontal Kerning in Latin lookup 0 per glyph data 1" G dx=0 dy=0 dh=-25 dv=0 dx=0 dy=0 dh=0 dv=0
PairPos2: "'kern' Horizontal Kerning in Latin lookup 0 per glyph data 1" F dx=0 dy=0 dh=-27 dv=0 dx=0 dy=0 dh=0 dv=0
PairPos2: "'kern' Horizontal Kerning in Latin lookup 0 per glyph data 1" E dx=0 dy=0 dh=-27 dv=0 dx=0 dy=0 dh=0 dv=0
PairPos2: "'kern' Horizontal Kerning in Latin lookup 0 per glyph data 1" D dx=0 dy=0 dh=-27 dv=0 dx=0 dy=0 dh=0 dv=0
PairPos2: "'kern' Horizontal Kerning in Latin lookup 0 per glyph data 1" C dx=0 dy=0 dh=-25 dv=0 dx=0 dy=0 dh=0 dv=0
PairPos2: "'kern' Horizontal Kerning in Latin lookup 0 per glyph data 1" B dx=0 dy=0 dh=-27 dv=0 dx=0 dy=0 dh=0 dv=0
PairPos2: "'kern' Horizontal Kerning in Latin lookup 0 per glyph data 1" A dx=0 dy=0 dh=-43 dv=0 dx=0 dy=0 dh=0 dv=0
PairPos2: "'kern' Horizontal Kerning in Latin lookup 0 per glyph data 1" one dx=0 dy=0 dh=-40 dv=0 dx=0 dy=0 dh=0 dv=0
PairPos2: "'kern' Horizontal Kerning in Latin lookup 0 per glyph data 1" parenright dx=0 dy=0 dh=-40 dv=0 dx=0 dy=0 dh=0 dv=0
PairPos2: "'kern' Horizontal Kerning in Latin lookup 0 per glyph data 1" parenleft dx=0 dy=0 dh=-40 dv=0 dx=0 dy=0 dh=0 dv=0
PairPos2: "'kern' Horizontal Kerning in Latin lookup 0 per glyph data 1" exclam dx=0 dy=0 dh=-40 dv=0 dx=0 dy=0 dh=0 dv=0
EndChar

StartChar: Q
Encoding: 81 81 52
Width: 720
GlyphClass: 2
Flags: HW
LayerCount: 2
Fore
SplineSet
360 704 m 256,0,1
 655 704 655 704 655 348 c 0,2,3
 655 202.893939394 655 202.893939394 586.656420426 110.733657848 c 128,-1,4
 518.312840853 18.5733763014 518.312840853 18.5733763014 411 0 c 1,5,6
 438.941176471 -99.3464052288 438.941176471 -99.3464052288 570 -194 c 1,7,-1
 511 -200 l 1,8,9
 429.584690554 -144.294788274 429.584690554 -144.294788274 377.5 -65.5 c 0,10,11
 358 -36 358 -36 349 -4 c 1,12,13
 146.950139914 -0.575426100229 146.950139914 -0.575426100229 87 182 c 0,14,15
 65 249 65 249 65 340.5 c 0,16,17
 65 511.675 65 511.675 149.538461538 607.8375 c 128,-1,18
 234.076923077 704 234.076923077 704 360 704 c 256,0,1
199.5 117.5 m 0,19,20
 255.492537313 56 255.492537313 56 360 56 c 256,21,22
 459.093333333 56 459.093333333 56 523.046666667 134.631147541 c 128,-1,23
 587 213.262295082 587 213.262295082 587 360.06557377 c 128,-1,24
 587 506.868852459 587 506.868852459 520.5 581 c 0,25,26
 463.985294118 644 463.985294118 644 360 644 c 256,27,28
 261.72 644 261.72 644 197.36 564.868852459 c 128,-1,29
 133 485.737704918 133 485.737704918 133 338.139344262 c 128,-1,30
 133 190.540983607 133 190.540983607 199.5 117.5 c 0,19,20
EndSplineSet
EndChar

StartChar: R
Encoding: 82 82 53
Width: 564
GlyphClass: 2
Flags: HW
LayerCount: 2
Fore
SplineSet
467 512 m 0,0,1
 467 368.5 467 368.5 368 319 c 1,2,-1
 519 0 l 1,3,-1
 446 0 l 1,4,-1
 304 298 l 1,5,6
 268 292 268 292 225 292 c 2,7,-1
 148 292 l 1,8,-1
 148 0 l 1,9,-1
 80 0 l 1,10,-1
 80 700 l 1,11,-1
 225 700 l 2,12,13
 346.904761905 700 346.904761905 700 403 662 c 0,14,15
 467 618.64516129 467 618.64516129 467 512 c 0,0,1
148 645 m 1,16,-1
 148 347 l 1,17,-1
 220 347 l 2,18,19
 309.108108108 347 309.108108108 347 354.054054054 383.152173913 c 0,20,21
 399 419.304347826 399 419.304347826 399 508 c 0,22,23
 399 622.166666667 399 622.166666667 295 639.5 c 0,24,25
 262 645 262 645 220 645 c 2,26,-1
 148 645 l 1,16,-1
EndSplineSet
EndChar

StartChar: S
Encoding: 83 83 54
Width: 557
GlyphClass: 2
Flags: HW
LayerCount: 2
Fore
SplineSet
466 682 m 1,0,-1
 454 625 l 1,1,2
 377 642 377 642 323 642 c 0,3,4
 129 642 129 642 129 524 c 0,5,6
 129 479 129 479 157.5 455 c 128,-1,7
 186 431 186 431 229.5 415.5 c 128,-1,8
 273 400 273 400 323 387.5 c 128,-1,9
 373 375 373 375 416.5 353.5 c 0,10,11
 517 303.827586207 517 303.827586207 517 201.022488756 c 128,-1,12
 517 98.2173913043 517 98.2173913043 440.5 45 c 0,13,14
 374.375 -1 374.375 -1 266 -1 c 0,15,16
 131.5 -1 131.5 -1 40 60 c 1,17,-1
 66 111 l 1,18,19
 93 92 93 92 143 75.5 c 128,-1,20
 193 59 193 59 240 59 c 0,21,22
 332.5 59 332.5 59 385 89 c 0,23,24
 449 125.571428571 449 125.571428571 449 195 c 0,25,26
 449 246 449 246 420.5 274.5 c 128,-1,27
 392 303 392 303 348.5 320.5 c 128,-1,28
 305 338 305 338 255 350.5 c 128,-1,29
 205 363 205 363 161.5 382 c 0,30,31
 61 425.896551724 61 425.896551724 61 513.198275862 c 128,-1,32
 61 600.5 61 600.5 121.071428571 651.25 c 128,-1,33
 181.142857143 702 181.142857143 702 291 702 c 0,34,35
 376 702 376 702 466 682 c 1,0,-1
EndSplineSet
EndChar

StartChar: T
Encoding: 84 84 55
Width: 548
GlyphClass: 2
Flags: HW
LayerCount: 2
Fore
SplineSet
243 0 m 1,0,-1
 243 640 l 1,1,-1
 45 640 l 1,2,-1
 50 700 l 1,3,-1
 503 700 l 1,4,-1
 498 640 l 1,5,-1
 306 640 l 1,6,-1
 306 0 l 1,7,-1
 243 0 l 1,0,-1
EndSplineSet
EndChar

StartChar: U
Encoding: 85 85 56
Width: 657
GlyphClass: 2
Flags: HW
LayerCount: 2
Fore
SplineSet
585 700 m 1,0,-1
 585 300 l 2,1,2
 585 143.985074627 585 143.985074627 511.5 65 c 0,3,4
 447.291666667 -4 447.291666667 -4 333.830448718 -4 c 0,5,6
 220.369230769 -4 220.369230769 -4 160 50.5 c 0,7,8
 80 122.722222222 80 122.722222222 80 300 c 2,9,-1
 80 700 l 1,10,-1
 148 700 l 1,11,-1
 148 301 l 2,12,13
 148 156 148 156 208 96 c 0,14,15
 253 51 253 51 338 51 c 0,16,17
 465.157894737 51 465.157894737 51 507 183.5 c 0,18,19
 522 231 522 231 522 301 c 2,20,-1
 522 700 l 1,21,-1
 585 700 l 1,0,-1
EndSplineSet
EndChar

StartChar: V
Encoding: 86 86 57
Width: 664
GlyphClass: 2
Flags: HW
LayerCount: 2
Fore
SplineSet
340 76 m 1,0,-1
 551 700 l 1,1,-1
 616 700 l 1,2,-1
 368 0 l 1,3,-1
 302 0 l 1,4,-1
 45 700 l 1,5,-1
 113 700 l 1,6,-1
 340 76 l 1,0,-1
EndSplineSet
PairPos2: "'kern' Horizontal Kerning in Latin lookup 0 per glyph data 1" oe dx=0 dy=0 dh=-97 dv=0 dx=0 dy=0 dh=0 dv=0
PairPos2: "'kern' Horizontal Kerning in Latin lookup 0 per glyph data 1" OE dx=0 dy=0 dh=-29 dv=0 dx=0 dy=0 dh=0 dv=0
PairPos2: "'kern' Horizontal Kerning in Latin lookup 0 per glyph data 1" dotlessi dx=0 dy=0 dh=-42 dv=0 dx=0 dy=0 dh=0 dv=0
PairPos2: "'kern' Horizontal Kerning in Latin lookup 0 per glyph data 1" thorn dx=0 dy=0 dh=-42 dv=0 dx=0 dy=0 dh=0 dv=0
PairPos2: "'kern' Horizontal Kerning in Latin lookup 0 per glyph data 1" oslash dx=0 dy=0 dh=-98 dv=0 dx=0 dy=0 dh=0 dv=0
PairPos2: "'kern' Horizontal Kerning in Latin lookup 0 per glyph data 1" odieresis dx=0 dy=0 dh=-97 dv=0 dx=0 dy=0 dh=0 dv=0
PairPos2: "'kern' Horizontal Kerning in Latin lookup 0 per glyph data 1" otilde dx=0 dy=0 dh=-97 dv=0 dx=0 dy=0 dh=0 dv=0
PairPos2: "'kern' Horizontal Kerning in Latin lookup 0 per glyph data 1" ocircumflex dx=0 dy=0 dh=-97 dv=0 dx=0 dy=0 dh=0 dv=0
PairPos2: "'kern' Horizontal Kerning in Latin lookup 0 per glyph data 1" oacute dx=0 dy=0 dh=-97 dv=0 dx=0 dy=0 dh=0 dv=0
PairPos2: "'kern' Horizontal Kerning in Latin lookup 0 per glyph data 1" ograve dx=0 dy=0 dh=-97 dv=0 dx=0 dy=0 dh=0 dv=0
PairPos2: "'kern' Horizontal Kerning in Latin lookup 0 per glyph data 1" ntilde dx=0 dy=0 dh=-42 dv=0 dx=0 dy=0 dh=0 dv=0
PairPos2: "'kern' Horizontal Kerning in Latin lookup 0 per glyph data 1" eth dx=0 dy=0 dh=-97 dv=0 dx=0 dy=0 dh=0 dv=0
PairPos2: "'kern' Horizontal Kerning in Latin lookup 0 per glyph data 1" idieresis dx=0 dy=0 dh=-42 dv=0 dx=0 dy=0 dh=0 dv=0
PairPos2: "'kern' Horizontal Kerning in Latin lookup 0 per glyph data 1" icircumflex dx=0 dy=0 dh=-42 dv=0 dx=0 dy=0 dh=0 dv=0
PairPos2: "'kern' Horizontal Kerning in Latin lookup 0 per glyph data 1" iacute dx=0 dy=0 dh=-42 dv=0 dx=0 dy=0 dh=0 dv=0
PairPos2: "'kern' Horizontal Kerning in Latin lookup 0 per glyph data 1" igrave dx=0 dy=0 dh=-42 dv=0 dx=0 dy=0 dh=0 dv=0
PairPos2: "'kern' Horizontal Kerning in Latin lookup 0 per glyph data 1" edieresis dx=0 dy=0 dh=-117 dv=0 dx=0 dy=0 dh=0 dv=0
PairPos2: "'kern' Horizontal Kerning in Latin lookup 0 per glyph data 1" ecircumflex dx=0 dy=0 dh=-117 dv=0 dx=0 dy=0 dh=0 dv=0
PairPos2: "'kern' Horizontal Kerning in Latin lookup 0 per glyph data 1" eacute dx=0 dy=0 dh=-117 dv=0 dx=0 dy=0 dh=0 dv=0
PairPos2: "'kern' Horizontal Kerning in Latin lookup 0 per glyph data 1" egrave dx=0 dy=0 dh=-117 dv=0 dx=0 dy=0 dh=0 dv=0
PairPos2: "'kern' Horizontal Kerning in Latin lookup 0 per glyph data 1" ccedilla dx=0 dy=0 dh=-117 dv=0 dx=0 dy=0 dh=0 dv=0
PairPos2: "'kern' Horizontal Kerning in Latin lookup 0 per glyph data 1" ae dx=0 dy=0 dh=-82 dv=0 dx=0 dy=0 dh=0 dv=0
PairPos2: "'kern' Horizontal Kerning in Latin lookup 0 per glyph data 1" aring dx=0 dy=0 dh=-83 dv=0 dx=0 dy=0 dh=0 dv=0
PairPos2: "'kern' Horizontal Kerning in Latin lookup 0 per glyph data 1" adieresis dx=0 dy=0 dh=-83 dv=0 dx=0 dy=0 dh=0 dv=0
PairPos2: "'kern' Horizontal Kerning in Latin lookup 0 per glyph data 1" atilde dx=0 dy=0 dh=-83 dv=0 dx=0 dy=0 dh=0 dv=0
PairPos2: "'kern' Horizontal Kerning in Latin lookup 0 per glyph data 1" acircumflex dx=0 dy=0 dh=-83 dv=0 dx=0 dy=0 dh=0 dv=0
PairPos2: "'kern' Horizontal Kerning in Latin lookup 0 per glyph data 1" aacute dx=0 dy=0 dh=-83 dv=0 dx=0 dy=0 dh=0 dv=0
PairPos2: "'kern' Horizontal Kerning in Latin lookup 0 per glyph data 1" agrave dx=0 dy=0 dh=-83 dv=0 dx=0 dy=0 dh=0 dv=0
PairPos2: "'kern' Horizontal Kerning in Latin lookup 0 per glyph data 1" germandbls dx=0 dy=0 dh=-42 dv=0 dx=0 dy=0 dh=0 dv=0
PairPos2: "'kern' Horizontal Kerning in Latin lookup 0 per glyph data 1" Thorn dx=0 dy=0 dh=-10 dv=0 dx=0 dy=0 dh=0 dv=0
PairPos2: "'kern' Horizontal Kerning in Latin lookup 0 per glyph data 1" Udieresis dx=0 dy=0 dh=-8 dv=0 dx=0 dy=0 dh=0 dv=0
PairPos2: "'kern' Horizontal Kerning in Latin lookup 0 per glyph data 1" Ucircumflex dx=0 dy=0 dh=-8 dv=0 dx=0 dy=0 dh=0 dv=0
PairPos2: "'kern' Horizontal Kerning in Latin lookup 0 per glyph data 1" Uacute dx=0 dy=0 dh=-8 dv=0 dx=0 dy=0 dh=0 dv=0
PairPos2: "'kern' Horizontal Kerning in Latin lookup 0 per glyph data 1" Ugrave dx=0 dy=0 dh=-8 dv=0 dx=0 dy=0 dh=0 dv=0
PairPos2: "'kern' Horizontal Kerning in Latin lookup 0 per glyph data 1" Odieresis dx=0 dy=0 dh=-29 dv=0 dx=0 dy=0 dh=0 dv=0
PairPos2: "'kern' Horizontal Kerning in Latin lookup 0 per glyph data 1" Otilde dx=0 dy=0 dh=-29 dv=0 dx=0 dy=0 dh=0 dv=0
PairPos2: "'kern' Horizontal Kerning in Latin lookup 0 per glyph data 1" Ocircumflex dx=0 dy=0 dh=-29 dv=0 dx=0 dy=0 dh=0 dv=0
PairPos2: "'kern' Horizontal Kerning in Latin lookup 0 per glyph data 1" Oacute dx=0 dy=0 dh=-29 dv=0 dx=0 dy=0 dh=0 dv=0
PairPos2: "'kern' Horizontal Kerning in Latin lookup 0 per glyph data 1" Ograve dx=0 dy=0 dh=-29 dv=0 dx=0 dy=0 dh=0 dv=0
PairPos2: "'kern' Horizontal Kerning in Latin lookup 0 per glyph data 1" Ntilde dx=0 dy=0 dh=-10 dv=0 dx=0 dy=0 dh=0 dv=0
PairPos2: "'kern' Horizontal Kerning in Latin lookup 0 per glyph data 1" Idieresis dx=0 dy=0 dh=-10 dv=0 dx=0 dy=0 dh=0 dv=0
PairPos2: "'kern' Horizontal Kerning in Latin lookup 0 per glyph data 1" Icircumflex dx=0 dy=0 dh=-10 dv=0 dx=0 dy=0 dh=0 dv=0
PairPos2: "'kern' Horizontal Kerning in Latin lookup 0 per glyph data 1" Iacute dx=0 dy=0 dh=-10 dv=0 dx=0 dy=0 dh=0 dv=0
PairPos2: "'kern' Horizontal Kerning in Latin lookup 0 per glyph data 1" Igrave dx=0 dy=0 dh=-10 dv=0 dx=0 dy=0 dh=0 dv=0
PairPos2: "'kern' Horizontal Kerning in Latin lookup 0 per glyph data 1" Edieresis dx=0 dy=0 dh=-10 dv=0 dx=0 dy=0 dh=0 dv=0
PairPos2: "'kern' Horizontal Kerning in Latin lookup 0 per glyph data 1" Ecircumflex dx=0 dy=0 dh=-10 dv=0 dx=0 dy=0 dh=0 dv=0
PairPos2: "'kern' Horizontal Kerning in Latin lookup 0 per glyph data 1" Eacute dx=0 dy=0 dh=-10 dv=0 dx=0 dy=0 dh=0 dv=0
PairPos2: "'kern' Horizontal Kerning in Latin lookup 0 per glyph data 1" Egrave dx=0 dy=0 dh=-10 dv=0 dx=0 dy=0 dh=0 dv=0
PairPos2: "'kern' Horizontal Kerning in Latin lookup 0 per glyph data 1" Ccedilla dx=0 dy=0 dh=-29 dv=0 dx=0 dy=0 dh=0 dv=0
PairPos2: "'kern' Horizontal Kerning in Latin lookup 0 per glyph data 1" AE dx=0 dy=0 dh=-85 dv=0 dx=0 dy=0 dh=0 dv=0
PairPos2: "'kern' Horizontal Kerning in Latin lookup 0 per glyph data 1" Aring dx=0 dy=0 dh=-85 dv=0 dx=0 dy=0 dh=0 dv=0
PairPos2: "'kern' Horizontal Kerning in Latin lookup 0 per glyph data 1" Adieresis dx=0 dy=0 dh=-85 dv=0 dx=0 dy=0 dh=0 dv=0
PairPos2: "'kern' Horizontal Kerning in Latin lookup 0 per glyph data 1" Atilde dx=0 dy=0 dh=-85 dv=0 dx=0 dy=0 dh=0 dv=0
PairPos2: "'kern' Horizontal Kerning in Latin lookup 0 per glyph data 1" Acircumflex dx=0 dy=0 dh=-85 dv=0 dx=0 dy=0 dh=0 dv=0
PairPos2: "'kern' Horizontal Kerning in Latin lookup 0 per glyph data 1" Aacute dx=0 dy=0 dh=-85 dv=0 dx=0 dy=0 dh=0 dv=0
PairPos2: "'kern' Horizontal Kerning in Latin lookup 0 per glyph data 1" Agrave dx=0 dy=0 dh=-85 dv=0 dx=0 dy=0 dh=0 dv=0
PairPos2: "'kern' Horizontal Kerning in Latin lookup 0 per glyph data 1" mu dx=0 dy=0 dh=-42 dv=0 dx=0 dy=0 dh=0 dv=0
PairPos2: "'kern' Horizontal Kerning in Latin lookup 0 per glyph data 1" brokenbar dx=0 dy=0 dh=-42 dv=0 dx=0 dy=0 dh=0 dv=0
PairPos2: "'kern' Horizontal Kerning in Latin lookup 0 per glyph data 1" cent dx=0 dy=0 dh=-117 dv=0 dx=0 dy=0 dh=0 dv=0
PairPos2: "'kern' Horizontal Kerning in Latin lookup 0 per glyph data 1" exclamdown dx=0 dy=0 dh=-42 dv=0 dx=0 dy=0 dh=0 dv=0
PairPos2: "'kern' Horizontal Kerning in Latin lookup 0 per glyph data 1" bar dx=0 dy=0 dh=-42 dv=0 dx=0 dy=0 dh=0 dv=0
PairPos2: "'kern' Horizontal Kerning in Latin lookup 0 per glyph data 1" s dx=0 dy=0 dh=-83 dv=0 dx=0 dy=0 dh=0 dv=0
PairPos2: "'kern' Horizontal Kerning in Latin lookup 0 per glyph data 1" r dx=0 dy=0 dh=-42 dv=0 dx=0 dy=0 dh=0 dv=0
PairPos2: "'kern' Horizontal Kerning in Latin lookup 0 per glyph data 1" q dx=0 dy=0 dh=-117 dv=0 dx=0 dy=0 dh=0 dv=0
PairPos2: "'kern' Horizontal Kerning in Latin lookup 0 per glyph data 1" p dx=0 dy=0 dh=-42 dv=0 dx=0 dy=0 dh=0 dv=0
PairPos2: "'kern' Horizontal Kerning in Latin lookup 0 per glyph data 1" o dx=0 dy=0 dh=-97 dv=0 dx=0 dy=0 dh=0 dv=0
PairPos2: "'kern' Horizontal Kerning in Latin lookup 0 per glyph data 1" n dx=0 dy=0 dh=-42 dv=0 dx=0 dy=0 dh=0 dv=0
PairPos2: "'kern' Horizontal Kerning in Latin lookup 0 per glyph data 1" m dx=0 dy=0 dh=-42 dv=0 dx=0 dy=0 dh=0 dv=0
PairPos2: "'kern' Horizontal Kerning in Latin lookup 0 per glyph data 1" l dx=0 dy=0 dh=-42 dv=0 dx=0 dy=0 dh=0 dv=0
PairPos2: "'kern' Horizontal Kerning in Latin lookup 0 per glyph data 1" k dx=0 dy=0 dh=-42 dv=0 dx=0 dy=0 dh=0 dv=0
PairPos2: "'kern' Horizontal Kerning in Latin lookup 0 per glyph data 1" j dx=0 dy=0 dh=-42 dv=0 dx=0 dy=0 dh=0 dv=0
PairPos2: "'kern' Horizontal Kerning in Latin lookup 0 per glyph data 1" i dx=0 dy=0 dh=-42 dv=0 dx=0 dy=0 dh=0 dv=0
PairPos2: "'kern' Horizontal Kerning in Latin lookup 0 per glyph data 1" h dx=0 dy=0 dh=-42 dv=0 dx=0 dy=0 dh=0 dv=0
PairPos2: "'kern' Horizontal Kerning in Latin lookup 0 per glyph data 1" f dx=0 dy=0 dh=-42 dv=0 dx=0 dy=0 dh=0 dv=0
PairPos2: "'kern' Horizontal Kerning in Latin lookup 0 per glyph data 1" e dx=0 dy=0 dh=-117 dv=0 dx=0 dy=0 dh=0 dv=0
PairPos2: "'kern' Horizontal Kerning in Latin lookup 0 per glyph data 1" d dx=0 dy=0 dh=-117 dv=0 dx=0 dy=0 dh=0 dv=0
PairPos2: "'kern' Horizontal Kerning in Latin lookup 0 per glyph data 1" c dx=0 dy=0 dh=-117 dv=0 dx=0 dy=0 dh=0 dv=0
PairPos2: "'kern' Horizontal Kerning in Latin lookup 0 per glyph data 1" b dx=0 dy=0 dh=-42 dv=0 dx=0 dy=0 dh=0 dv=0
PairPos2: "'kern' Horizontal Kerning in Latin lookup 0 per glyph data 1" a dx=0 dy=0 dh=-83 dv=0 dx=0 dy=0 dh=0 dv=0
PairPos2: "'kern' Horizontal Kerning in Latin lookup 0 per glyph data 1" bracketright dx=0 dy=0 dh=-42 dv=0 dx=0 dy=0 dh=0 dv=0
PairPos2: "'kern' Horizontal Kerning in Latin lookup 0 per glyph data 1" bracketleft dx=0 dy=0 dh=-42 dv=0 dx=0 dy=0 dh=0 dv=0
PairPos2: "'kern' Horizontal Kerning in Latin lookup 0 per glyph data 1" U dx=0 dy=0 dh=-8 dv=0 dx=0 dy=0 dh=0 dv=0
PairPos2: "'kern' Horizontal Kerning in Latin lookup 0 per glyph data 1" S dx=0 dy=0 dh=-15 dv=0 dx=0 dy=0 dh=0 dv=0
PairPos2: "'kern' Horizontal Kerning in Latin lookup 0 per glyph data 1" R dx=0 dy=0 dh=-10 dv=0 dx=0 dy=0 dh=0 dv=0
PairPos2: "'kern' Horizontal Kerning in Latin lookup 0 per glyph data 1" Q dx=0 dy=0 dh=-29 dv=0 dx=0 dy=0 dh=0 dv=0
PairPos2: "'kern' Horizontal Kerning in Latin lookup 0 per glyph data 1" P dx=0 dy=0 dh=-10 dv=0 dx=0 dy=0 dh=0 dv=0
PairPos2: "'kern' Horizontal Kerning in Latin lookup 0 per glyph data 1" O dx=0 dy=0 dh=-29 dv=0 dx=0 dy=0 dh=0 dv=0
PairPos2: "'kern' Horizontal Kerning in Latin lookup 0 per glyph data 1" N dx=0 dy=0 dh=-10 dv=0 dx=0 dy=0 dh=0 dv=0
PairPos2: "'kern' Horizontal Kerning in Latin lookup 0 per glyph data 1" M dx=0 dy=0 dh=-10 dv=0 dx=0 dy=0 dh=0 dv=0
PairPos2: "'kern' Horizontal Kerning in Latin lookup 0 per glyph data 1" L dx=0 dy=0 dh=-10 dv=0 dx=0 dy=0 dh=0 dv=0
PairPos2: "'kern' Horizontal Kerning in Latin lookup 0 per glyph data 1" K dx=0 dy=0 dh=-10 dv=0 dx=0 dy=0 dh=0 dv=0
PairPos2: "'kern' Horizontal Kerning in Latin lookup 0 per glyph data 1" J dx=0 dy=0 dh=-10 dv=0 dx=0 dy=0 dh=0 dv=0
PairPos2: "'kern' Horizontal Kerning in Latin lookup 0 per glyph data 1" I dx=0 dy=0 dh=-10 dv=0 dx=0 dy=0 dh=0 dv=0
PairPos2: "'kern' Horizontal Kerning in Latin lookup 0 per glyph data 1" H dx=0 dy=0 dh=-10 dv=0 dx=0 dy=0 dh=0 dv=0
PairPos2: "'kern' Horizontal Kerning in Latin lookup 0 per glyph data 1" G dx=0 dy=0 dh=-29 dv=0 dx=0 dy=0 dh=0 dv=0
PairPos2: "'kern' Horizontal Kerning in Latin lookup 0 per glyph data 1" F dx=0 dy=0 dh=-10 dv=0 dx=0 dy=0 dh=0 dv=0
PairPos2: "'kern' Horizontal Kerning in Latin lookup 0 per glyph data 1" E dx=0 dy=0 dh=-10 dv=0 dx=0 dy=0 dh=0 dv=0
PairPos2: "'kern' Horizontal Kerning in Latin lookup 0 per glyph data 1" D dx=0 dy=0 dh=-10 dv=0 dx=0 dy=0 dh=0 dv=0
PairPos2: "'kern' Horizontal Kerning in Latin lookup 0 per glyph data 1" C dx=0 dy=0 dh=-29 dv=0 dx=0 dy=0 dh=0 dv=0
PairPos2: "'kern' Horizontal Kerning in Latin lookup 0 per glyph data 1" B dx=0 dy=0 dh=-10 dv=0 dx=0 dy=0 dh=0 dv=0
PairPos2: "'kern' Horizontal Kerning in Latin lookup 0 per glyph data 1" A dx=0 dy=0 dh=-85 dv=0 dx=0 dy=0 dh=0 dv=0
PairPos2: "'kern' Horizontal Kerning in Latin lookup 0 per glyph data 1" one dx=0 dy=0 dh=-42 dv=0 dx=0 dy=0 dh=0 dv=0
PairPos2: "'kern' Horizontal Kerning in Latin lookup 0 per glyph data 1" parenright dx=0 dy=0 dh=-42 dv=0 dx=0 dy=0 dh=0 dv=0
PairPos2: "'kern' Horizontal Kerning in Latin lookup 0 per glyph data 1" parenleft dx=0 dy=0 dh=-42 dv=0 dx=0 dy=0 dh=0 dv=0
PairPos2: "'kern' Horizontal Kerning in Latin lookup 0 per glyph data 1" exclam dx=0 dy=0 dh=-42 dv=0 dx=0 dy=0 dh=0 dv=0
EndChar

StartChar: W
Encoding: 87 87 58
Width: 923
GlyphClass: 2
Flags: HW
LayerCount: 2
Fore
SplineSet
637 98 m 1,0,-1
 803 700 l 1,1,-1
 868 700 l 1,2,-1
 663 0 l 1,3,-1
 602 0 l 1,4,-1
 451 596 l 1,5,-1
 286 0 l 1,6,-1
 224 0 l 1,7,-1
 45 700 l 1,8,-1
 108 700 l 1,9,-1
 260 101 l 1,10,-1
 425 700 l 1,11,-1
 481 700 l 1,12,-1
 637 98 l 1,0,-1
EndSplineSet
EndChar

StartChar: X
Encoding: 88 88 59
Width: 613
GlyphClass: 2
Flags: HW
LayerCount: 2
Fore
SplineSet
297 322 m 1,0,-1
 113 0 l 1,1,-1
 43 0 l 1,2,-1
 266 373 l 1,3,-1
 60 700 l 1,4,-1
 138 700 l 1,5,-1
 310 414 l 1,6,-1
 474 700 l 1,7,-1
 544 700 l 1,8,-1
 341 363 l 1,9,-1
 570 0 l 1,10,-1
 492 0 l 1,11,-1
 297 322 l 1,0,-1
EndSplineSet
EndChar

StartChar: Y
Encoding: 89 89 60
Width: 656
GlyphClass: 2
Flags: HW
LayerCount: 2
Fore
SplineSet
334 291 m 1,0,-1
 541 700 l 1,1,-1
 611 700 l 1,2,-1
 366 235 l 1,3,-1
 366 0 l 1,4,-1
 303 0 l 1,5,-1
 303 236 l 1,6,-1
 45 700 l 1,7,-1
 118 700 l 1,8,-1
 334 291 l 1,0,-1
EndSplineSet
EndChar

StartChar: Z
Encoding: 90 90 61
Width: 592
GlyphClass: 2
Flags: HW
LayerCount: 2
Fore
SplineSet
61 700 m 1,0,-1
 501 700 l 1,1,-1
 511 645 l 1,2,-1
 117 55 l 1,3,-1
 544 55 l 1,4,-1
 552 0 l 1,5,-1
 50 0 l 1,6,-1
 40 55 l 1,7,-1
 433 645 l 1,8,-1
 62 645 l 1,9,-1
 61 700 l 1,0,-1
EndSplineSet
PairPos2: "'kern' Horizontal Kerning in Latin lookup 0 per glyph data 1" Ydieresis dx=0 dy=0 dh=-22 dv=0 dx=0 dy=0 dh=0 dv=0
PairPos2: "'kern' Horizontal Kerning in Latin lookup 0 per glyph data 1" oe dx=0 dy=0 dh=-49 dv=0 dx=0 dy=0 dh=0 dv=0
PairPos2: "'kern' Horizontal Kerning in Latin lookup 0 per glyph data 1" OE dx=0 dy=0 dh=-36 dv=0 dx=0 dy=0 dh=0 dv=0
PairPos2: "'kern' Horizontal Kerning in Latin lookup 0 per glyph data 1" dotlessi dx=0 dy=0 dh=-10 dv=0 dx=0 dy=0 dh=0 dv=0
PairPos2: "'kern' Horizontal Kerning in Latin lookup 0 per glyph data 1" ydieresis dx=0 dy=0 dh=-42 dv=0 dx=0 dy=0 dh=0 dv=0
PairPos2: "'kern' Horizontal Kerning in Latin lookup 0 per glyph data 1" thorn dx=0 dy=0 dh=-10 dv=0 dx=0 dy=0 dh=0 dv=0
PairPos2: "'kern' Horizontal Kerning in Latin lookup 0 per glyph data 1" yacute dx=0 dy=0 dh=-42 dv=0 dx=0 dy=0 dh=0 dv=0
PairPos2: "'kern' Horizontal Kerning in Latin lookup 0 per glyph data 1" udieresis dx=0 dy=0 dh=-20 dv=0 dx=0 dy=0 dh=0 dv=0
PairPos2: "'kern' Horizontal Kerning in Latin lookup 0 per glyph data 1" ucircumflex dx=0 dy=0 dh=-20 dv=0 dx=0 dy=0 dh=0 dv=0
PairPos2: "'kern' Horizontal Kerning in Latin lookup 0 per glyph data 1" uacute dx=0 dy=0 dh=-20 dv=0 dx=0 dy=0 dh=0 dv=0
PairPos2: "'kern' Horizontal Kerning in Latin lookup 0 per glyph data 1" ugrave dx=0 dy=0 dh=-20 dv=0 dx=0 dy=0 dh=0 dv=0
PairPos2: "'kern' Horizontal Kerning in Latin lookup 0 per glyph data 1" odieresis dx=0 dy=0 dh=-49 dv=0 dx=0 dy=0 dh=0 dv=0
PairPos2: "'kern' Horizontal Kerning in Latin lookup 0 per glyph data 1" otilde dx=0 dy=0 dh=-49 dv=0 dx=0 dy=0 dh=0 dv=0
PairPos2: "'kern' Horizontal Kerning in Latin lookup 0 per glyph data 1" ocircumflex dx=0 dy=0 dh=-49 dv=0 dx=0 dy=0 dh=0 dv=0
PairPos2: "'kern' Horizontal Kerning in Latin lookup 0 per glyph data 1" oacute dx=0 dy=0 dh=-49 dv=0 dx=0 dy=0 dh=0 dv=0
PairPos2: "'kern' Horizontal Kerning in Latin lookup 0 per glyph data 1" ograve dx=0 dy=0 dh=-49 dv=0 dx=0 dy=0 dh=0 dv=0
PairPos2: "'kern' Horizontal Kerning in Latin lookup 0 per glyph data 1" ntilde dx=0 dy=0 dh=-10 dv=0 dx=0 dy=0 dh=0 dv=0
PairPos2: "'kern' Horizontal Kerning in Latin lookup 0 per glyph data 1" eth dx=0 dy=0 dh=-49 dv=0 dx=0 dy=0 dh=0 dv=0
PairPos2: "'kern' Horizontal Kerning in Latin lookup 0 per glyph data 1" idieresis dx=0 dy=0 dh=-10 dv=0 dx=0 dy=0 dh=0 dv=0
PairPos2: "'kern' Horizontal Kerning in Latin lookup 0 per glyph data 1" icircumflex dx=0 dy=0 dh=-10 dv=0 dx=0 dy=0 dh=0 dv=0
PairPos2: "'kern' Horizontal Kerning in Latin lookup 0 per glyph data 1" iacute dx=0 dy=0 dh=-10 dv=0 dx=0 dy=0 dh=0 dv=0
PairPos2: "'kern' Horizontal Kerning in Latin lookup 0 per glyph data 1" igrave dx=0 dy=0 dh=-10 dv=0 dx=0 dy=0 dh=0 dv=0
PairPos2: "'kern' Horizontal Kerning in Latin lookup 0 per glyph data 1" edieresis dx=0 dy=0 dh=-48 dv=0 dx=0 dy=0 dh=0 dv=0
PairPos2: "'kern' Horizontal Kerning in Latin lookup 0 per glyph data 1" ecircumflex dx=0 dy=0 dh=-48 dv=0 dx=0 dy=0 dh=0 dv=0
PairPos2: "'kern' Horizontal Kerning in Latin lookup 0 per glyph data 1" eacute dx=0 dy=0 dh=-48 dv=0 dx=0 dy=0 dh=0 dv=0
PairPos2: "'kern' Horizontal Kerning in Latin lookup 0 per glyph data 1" egrave dx=0 dy=0 dh=-48 dv=0 dx=0 dy=0 dh=0 dv=0
PairPos2: "'kern' Horizontal Kerning in Latin lookup 0 per glyph data 1" ccedilla dx=0 dy=0 dh=-48 dv=0 dx=0 dy=0 dh=0 dv=0
PairPos2: "'kern' Horizontal Kerning in Latin lookup 0 per glyph data 1" aring dx=0 dy=0 dh=-8 dv=0 dx=0 dy=0 dh=0 dv=0
PairPos2: "'kern' Horizontal Kerning in Latin lookup 0 per glyph data 1" adieresis dx=0 dy=0 dh=-8 dv=0 dx=0 dy=0 dh=0 dv=0
PairPos2: "'kern' Horizontal Kerning in Latin lookup 0 per glyph data 1" atilde dx=0 dy=0 dh=-8 dv=0 dx=0 dy=0 dh=0 dv=0
PairPos2: "'kern' Horizontal Kerning in Latin lookup 0 per glyph data 1" acircumflex dx=0 dy=0 dh=-8 dv=0 dx=0 dy=0 dh=0 dv=0
PairPos2: "'kern' Horizontal Kerning in Latin lookup 0 per glyph data 1" aacute dx=0 dy=0 dh=-8 dv=0 dx=0 dy=0 dh=0 dv=0
PairPos2: "'kern' Horizontal Kerning in Latin lookup 0 per glyph data 1" agrave dx=0 dy=0 dh=-8 dv=0 dx=0 dy=0 dh=0 dv=0
PairPos2: "'kern' Horizontal Kerning in Latin lookup 0 per glyph data 1" germandbls dx=0 dy=0 dh=-10 dv=0 dx=0 dy=0 dh=0 dv=0
PairPos2: "'kern' Horizontal Kerning in Latin lookup 0 per glyph data 1" Thorn dx=0 dy=0 dh=-15 dv=0 dx=0 dy=0 dh=0 dv=0
PairPos2: "'kern' Horizontal Kerning in Latin lookup 0 per glyph data 1" Yacute dx=0 dy=0 dh=-22 dv=0 dx=0 dy=0 dh=0 dv=0
PairPos2: "'kern' Horizontal Kerning in Latin lookup 0 per glyph data 1" Udieresis dx=0 dy=0 dh=-29 dv=0 dx=0 dy=0 dh=0 dv=0
PairPos2: "'kern' Horizontal Kerning in Latin lookup 0 per glyph data 1" Ucircumflex dx=0 dy=0 dh=-29 dv=0 dx=0 dy=0 dh=0 dv=0
PairPos2: "'kern' Horizontal Kerning in Latin lookup 0 per glyph data 1" Uacute dx=0 dy=0 dh=-29 dv=0 dx=0 dy=0 dh=0 dv=0
PairPos2: "'kern' Horizontal Kerning in Latin lookup 0 per glyph data 1" Ugrave dx=0 dy=0 dh=-29 dv=0 dx=0 dy=0 dh=0 dv=0
PairPos2: "'kern' Horizontal Kerning in Latin lookup 0 per glyph data 1" Odieresis dx=0 dy=0 dh=-36 dv=0 dx=0 dy=0 dh=0 dv=0
PairPos2: "'kern' Horizontal Kerning in Latin lookup 0 per glyph data 1" Otilde dx=0 dy=0 dh=-36 dv=0 dx=0 dy=0 dh=0 dv=0
PairPos2: "'kern' Horizontal Kerning in Latin lookup 0 per glyph data 1" Ocircumflex dx=0 dy=0 dh=-36 dv=0 dx=0 dy=0 dh=0 dv=0
PairPos2: "'kern' Horizontal Kerning in Latin lookup 0 per glyph data 1" Oacute dx=0 dy=0 dh=-36 dv=0 dx=0 dy=0 dh=0 dv=0
PairPos2: "'kern' Horizontal Kerning in Latin lookup 0 per glyph data 1" Ograve dx=0 dy=0 dh=-36 dv=0 dx=0 dy=0 dh=0 dv=0
PairPos2: "'kern' Horizontal Kerning in Latin lookup 0 per glyph data 1" Ntilde dx=0 dy=0 dh=-15 dv=0 dx=0 dy=0 dh=0 dv=0
PairPos2: "'kern' Horizontal Kerning in Latin lookup 0 per glyph data 1" Idieresis dx=0 dy=0 dh=-15 dv=0 dx=0 dy=0 dh=0 dv=0
PairPos2: "'kern' Horizontal Kerning in Latin lookup 0 per glyph data 1" Icircumflex dx=0 dy=0 dh=-15 dv=0 dx=0 dy=0 dh=0 dv=0
PairPos2: "'kern' Horizontal Kerning in Latin lookup 0 per glyph data 1" Iacute dx=0 dy=0 dh=-15 dv=0 dx=0 dy=0 dh=0 dv=0
PairPos2: "'kern' Horizontal Kerning in Latin lookup 0 per glyph data 1" Igrave dx=0 dy=0 dh=-15 dv=0 dx=0 dy=0 dh=0 dv=0
PairPos2: "'kern' Horizontal Kerning in Latin lookup 0 per glyph data 1" Edieresis dx=0 dy=0 dh=-15 dv=0 dx=0 dy=0 dh=0 dv=0
PairPos2: "'kern' Horizontal Kerning in Latin lookup 0 per glyph data 1" Ecircumflex dx=0 dy=0 dh=-15 dv=0 dx=0 dy=0 dh=0 dv=0
PairPos2: "'kern' Horizontal Kerning in Latin lookup 0 per glyph data 1" Eacute dx=0 dy=0 dh=-15 dv=0 dx=0 dy=0 dh=0 dv=0
PairPos2: "'kern' Horizontal Kerning in Latin lookup 0 per glyph data 1" Egrave dx=0 dy=0 dh=-15 dv=0 dx=0 dy=0 dh=0 dv=0
PairPos2: "'kern' Horizontal Kerning in Latin lookup 0 per glyph data 1" Ccedilla dx=0 dy=0 dh=-36 dv=0 dx=0 dy=0 dh=0 dv=0
PairPos2: "'kern' Horizontal Kerning in Latin lookup 0 per glyph data 1" AE dx=0 dy=0 dh=-5 dv=0 dx=0 dy=0 dh=0 dv=0
PairPos2: "'kern' Horizontal Kerning in Latin lookup 0 per glyph data 1" Aring dx=0 dy=0 dh=-5 dv=0 dx=0 dy=0 dh=0 dv=0
PairPos2: "'kern' Horizontal Kerning in Latin lookup 0 per glyph data 1" Adieresis dx=0 dy=0 dh=-5 dv=0 dx=0 dy=0 dh=0 dv=0
PairPos2: "'kern' Horizontal Kerning in Latin lookup 0 per glyph data 1" Atilde dx=0 dy=0 dh=-5 dv=0 dx=0 dy=0 dh=0 dv=0
PairPos2: "'kern' Horizontal Kerning in Latin lookup 0 per glyph data 1" Acircumflex dx=0 dy=0 dh=-5 dv=0 dx=0 dy=0 dh=0 dv=0
PairPos2: "'kern' Horizontal Kerning in Latin lookup 0 per glyph data 1" Aacute dx=0 dy=0 dh=-5 dv=0 dx=0 dy=0 dh=0 dv=0
PairPos2: "'kern' Horizontal Kerning in Latin lookup 0 per glyph data 1" Agrave dx=0 dy=0 dh=-5 dv=0 dx=0 dy=0 dh=0 dv=0
PairPos2: "'kern' Horizontal Kerning in Latin lookup 0 per glyph data 1" mu dx=0 dy=0 dh=-10 dv=0 dx=0 dy=0 dh=0 dv=0
PairPos2: "'kern' Horizontal Kerning in Latin lookup 0 per glyph data 1" brokenbar dx=0 dy=0 dh=-10 dv=0 dx=0 dy=0 dh=0 dv=0
PairPos2: "'kern' Horizontal Kerning in Latin lookup 0 per glyph data 1" cent dx=0 dy=0 dh=-48 dv=0 dx=0 dy=0 dh=0 dv=0
PairPos2: "'kern' Horizontal Kerning in Latin lookup 0 per glyph data 1" exclamdown dx=0 dy=0 dh=-10 dv=0 dx=0 dy=0 dh=0 dv=0
PairPos2: "'kern' Horizontal Kerning in Latin lookup 0 per glyph data 1" bar dx=0 dy=0 dh=-10 dv=0 dx=0 dy=0 dh=0 dv=0
PairPos2: "'kern' Horizontal Kerning in Latin lookup 0 per glyph data 1" y dx=0 dy=0 dh=-42 dv=0 dx=0 dy=0 dh=0 dv=0
PairPos2: "'kern' Horizontal Kerning in Latin lookup 0 per glyph data 1" w dx=0 dy=0 dh=-52 dv=0 dx=0 dy=0 dh=0 dv=0
PairPos2: "'kern' Horizontal Kerning in Latin lookup 0 per glyph data 1" u dx=0 dy=0 dh=-20 dv=0 dx=0 dy=0 dh=0 dv=0
PairPos2: "'kern' Horizontal Kerning in Latin lookup 0 per glyph data 1" t dx=0 dy=0 dh=-20 dv=0 dx=0 dy=0 dh=0 dv=0
PairPos2: "'kern' Horizontal Kerning in Latin lookup 0 per glyph data 1" r dx=0 dy=0 dh=-10 dv=0 dx=0 dy=0 dh=0 dv=0
PairPos2: "'kern' Horizontal Kerning in Latin lookup 0 per glyph data 1" q dx=0 dy=0 dh=-48 dv=0 dx=0 dy=0 dh=0 dv=0
PairPos2: "'kern' Horizontal Kerning in Latin lookup 0 per glyph data 1" p dx=0 dy=0 dh=-10 dv=0 dx=0 dy=0 dh=0 dv=0
PairPos2: "'kern' Horizontal Kerning in Latin lookup 0 per glyph data 1" o dx=0 dy=0 dh=-49 dv=0 dx=0 dy=0 dh=0 dv=0
PairPos2: "'kern' Horizontal Kerning in Latin lookup 0 per glyph data 1" n dx=0 dy=0 dh=-10 dv=0 dx=0 dy=0 dh=0 dv=0
PairPos2: "'kern' Horizontal Kerning in Latin lookup 0 per glyph data 1" m dx=0 dy=0 dh=-10 dv=0 dx=0 dy=0 dh=0 dv=0
PairPos2: "'kern' Horizontal Kerning in Latin lookup 0 per glyph data 1" l dx=0 dy=0 dh=-10 dv=0 dx=0 dy=0 dh=0 dv=0
PairPos2: "'kern' Horizontal Kerning in Latin lookup 0 per glyph data 1" k dx=0 dy=0 dh=-10 dv=0 dx=0 dy=0 dh=0 dv=0
PairPos2: "'kern' Horizontal Kerning in Latin lookup 0 per glyph data 1" j dx=0 dy=0 dh=-10 dv=0 dx=0 dy=0 dh=0 dv=0
PairPos2: "'kern' Horizontal Kerning in Latin lookup 0 per glyph data 1" i dx=0 dy=0 dh=-10 dv=0 dx=0 dy=0 dh=0 dv=0
PairPos2: "'kern' Horizontal Kerning in Latin lookup 0 per glyph data 1" h dx=0 dy=0 dh=-10 dv=0 dx=0 dy=0 dh=0 dv=0
PairPos2: "'kern' Horizontal Kerning in Latin lookup 0 per glyph data 1" f dx=0 dy=0 dh=-10 dv=0 dx=0 dy=0 dh=0 dv=0
PairPos2: "'kern' Horizontal Kerning in Latin lookup 0 per glyph data 1" e dx=0 dy=0 dh=-48 dv=0 dx=0 dy=0 dh=0 dv=0
PairPos2: "'kern' Horizontal Kerning in Latin lookup 0 per glyph data 1" d dx=0 dy=0 dh=-48 dv=0 dx=0 dy=0 dh=0 dv=0
PairPos2: "'kern' Horizontal Kerning in Latin lookup 0 per glyph data 1" c dx=0 dy=0 dh=-48 dv=0 dx=0 dy=0 dh=0 dv=0
PairPos2: "'kern' Horizontal Kerning in Latin lookup 0 per glyph data 1" b dx=0 dy=0 dh=-10 dv=0 dx=0 dy=0 dh=0 dv=0
PairPos2: "'kern' Horizontal Kerning in Latin lookup 0 per glyph data 1" a dx=0 dy=0 dh=-8 dv=0 dx=0 dy=0 dh=0 dv=0
PairPos2: "'kern' Horizontal Kerning in Latin lookup 0 per glyph data 1" bracketright dx=0 dy=0 dh=-10 dv=0 dx=0 dy=0 dh=0 dv=0
PairPos2: "'kern' Horizontal Kerning in Latin lookup 0 per glyph data 1" bracketleft dx=0 dy=0 dh=-10 dv=0 dx=0 dy=0 dh=0 dv=0
PairPos2: "'kern' Horizontal Kerning in Latin lookup 0 per glyph data 1" Y dx=0 dy=0 dh=-22 dv=0 dx=0 dy=0 dh=0 dv=0
PairPos2: "'kern' Horizontal Kerning in Latin lookup 0 per glyph data 1" W dx=0 dy=0 dh=-20 dv=0 dx=0 dy=0 dh=0 dv=0
PairPos2: "'kern' Horizontal Kerning in Latin lookup 0 per glyph data 1" U dx=0 dy=0 dh=-29 dv=0 dx=0 dy=0 dh=0 dv=0
PairPos2: "'kern' Horizontal Kerning in Latin lookup 0 per glyph data 1" T dx=0 dy=0 dh=-15 dv=0 dx=0 dy=0 dh=0 dv=0
PairPos2: "'kern' Horizontal Kerning in Latin lookup 0 per glyph data 1" R dx=0 dy=0 dh=-15 dv=0 dx=0 dy=0 dh=0 dv=0
PairPos2: "'kern' Horizontal Kerning in Latin lookup 0 per glyph data 1" Q dx=0 dy=0 dh=-36 dv=0 dx=0 dy=0 dh=0 dv=0
PairPos2: "'kern' Horizontal Kerning in Latin lookup 0 per glyph data 1" P dx=0 dy=0 dh=-15 dv=0 dx=0 dy=0 dh=0 dv=0
PairPos2: "'kern' Horizontal Kerning in Latin lookup 0 per glyph data 1" O dx=0 dy=0 dh=-36 dv=0 dx=0 dy=0 dh=0 dv=0
PairPos2: "'kern' Horizontal Kerning in Latin lookup 0 per glyph data 1" N dx=0 dy=0 dh=-15 dv=0 dx=0 dy=0 dh=0 dv=0
PairPos2: "'kern' Horizontal Kerning in Latin lookup 0 per glyph data 1" M dx=0 dy=0 dh=-15 dv=0 dx=0 dy=0 dh=0 dv=0
PairPos2: "'kern' Horizontal Kerning in Latin lookup 0 per glyph data 1" L dx=0 dy=0 dh=-15 dv=0 dx=0 dy=0 dh=0 dv=0
PairPos2: "'kern' Horizontal Kerning in Latin lookup 0 per glyph data 1" K dx=0 dy=0 dh=-15 dv=0 dx=0 dy=0 dh=0 dv=0
PairPos2: "'kern' Horizontal Kerning in Latin lookup 0 per glyph data 1" J dx=0 dy=0 dh=-15 dv=0 dx=0 dy=0 dh=0 dv=0
PairPos2: "'kern' Horizontal Kerning in Latin lookup 0 per glyph data 1" I dx=0 dy=0 dh=-15 dv=0 dx=0 dy=0 dh=0 dv=0
PairPos2: "'kern' Horizontal Kerning in Latin lookup 0 per glyph data 1" H dx=0 dy=0 dh=-15 dv=0 dx=0 dy=0 dh=0 dv=0
PairPos2: "'kern' Horizontal Kerning in Latin lookup 0 per glyph data 1" G dx=0 dy=0 dh=-36 dv=0 dx=0 dy=0 dh=0 dv=0
PairPos2: "'kern' Horizontal Kerning in Latin lookup 0 per glyph data 1" F dx=0 dy=0 dh=-15 dv=0 dx=0 dy=0 dh=0 dv=0
PairPos2: "'kern' Horizontal Kerning in Latin lookup 0 per glyph data 1" E dx=0 dy=0 dh=-15 dv=0 dx=0 dy=0 dh=0 dv=0
PairPos2: "'kern' Horizontal Kerning in Latin lookup 0 per glyph data 1" D dx=0 dy=0 dh=-15 dv=0 dx=0 dy=0 dh=0 dv=0
PairPos2: "'kern' Horizontal Kerning in Latin lookup 0 per glyph data 1" C dx=0 dy=0 dh=-36 dv=0 dx=0 dy=0 dh=0 dv=0
PairPos2: "'kern' Horizontal Kerning in Latin lookup 0 per glyph data 1" B dx=0 dy=0 dh=-15 dv=0 dx=0 dy=0 dh=0 dv=0
PairPos2: "'kern' Horizontal Kerning in Latin lookup 0 per glyph data 1" A dx=0 dy=0 dh=-5 dv=0 dx=0 dy=0 dh=0 dv=0
PairPos2: "'kern' Horizontal Kerning in Latin lookup 0 per glyph data 1" one dx=0 dy=0 dh=-10 dv=0 dx=0 dy=0 dh=0 dv=0
PairPos2: "'kern' Horizontal Kerning in Latin lookup 0 per glyph data 1" parenright dx=0 dy=0 dh=-10 dv=0 dx=0 dy=0 dh=0 dv=0
PairPos2: "'kern' Horizontal Kerning in Latin lookup 0 per glyph data 1" parenleft dx=0 dy=0 dh=-10 dv=0 dx=0 dy=0 dh=0 dv=0
PairPos2: "'kern' Horizontal Kerning in Latin lookup 0 per glyph data 1" exclam dx=0 dy=0 dh=-10 dv=0 dx=0 dy=0 dh=0 dv=0
EndChar

StartChar: bracketleft
Encoding: 91 91 62
Width: 430
GlyphClass: 2
Flags: HW
LayerCount: 2
Fore
SplineSet
138 -200 m 1,0,-1
 107 -200 l 1,1,-1
 107 750 l 1,2,-1
 172 750 l 1,3,-1
 172 749 l 1,4,-1
 300 749 l 1,5,-1
 300 691 l 1,6,-1
 172 691 l 1,7,-1
 172 -143 l 1,8,-1
 300 -143 l 1,9,-1
 300 -201 l 1,10,-1
 138 -201 l 1,11,-1
 138 -200 l 1,0,-1
EndSplineSet
EndChar

StartChar: backslash
Encoding: 92 92 63
Width: 600
GlyphClass: 2
Flags: HW
LayerCount: 2
Fore
SplineSet
425 -200 m 1,0,-1
 107 749 l 1,1,-1
 177 749 l 1,2,-1
 495 -200 l 1,3,-1
 425 -200 l 1,0,-1
EndSplineSet
EndChar

StartChar: bracketright
Encoding: 93 93 64
Width: 430
GlyphClass: 2
Flags: HW
LayerCount: 2
Fore
SplineSet
269 -201 m 1,0,-1
 107 -201 l 1,1,-1
 107 -143 l 1,2,-1
 235 -143 l 1,3,-1
 235 691 l 1,4,-1
 107 691 l 1,5,-1
 107 749 l 1,6,-1
 235 749 l 1,7,-1
 235 750 l 1,8,-1
 300 750 l 1,9,-1
 300 -200 l 1,10,-1
 269 -200 l 1,11,-1
 269 -201 l 1,0,-1
EndSplineSet
EndChar

StartChar: asciicircum
Encoding: 94 94 65
Width: 560
GlyphClass: 2
Flags: HW
LayerCount: 2
Fore
SplineSet
374 300 m 1,0,1
 358.117647059 322.235294118 358.117647059 322.235294118 319.058823529 368.617647059 c 128,-1,2
 280 415 280 415 270 429 c 1,3,4
 231.296296296 379.740740741 231.296296296 379.740740741 209.804398148 354.08912037 c 128,-1,5
 188.3125 328.4375 188.3125 328.4375 168 300 c 1,6,-1
 136 305 l 1,7,8
 158.666666667 333.333333333 158.666666667 333.333333333 209.102564103 390.974358974 c 128,-1,9
 259.538461538 448.615384615 259.538461538 448.615384615 270 463 c 1,10,11
 278 452 278 452 331.368421053 391.789473684 c 0,12,13
 384.736842105 331.578947368 384.736842105 331.578947368 406 305 c 1,14,-1
 374 300 l 1,0,1
EndSplineSet
EndChar

StartChar: underscore
Encoding: 95 95 66
Width: 500
GlyphClass: 2
Flags: HW
LayerCount: 2
Fore
SplineSet
433 58 m 1,0,-1
 433 0 l 1,1,-1
 79 0 l 1,2,-1
 79 58 l 1,3,-1
 433 58 l 1,0,-1
EndSplineSet
EndChar

StartChar: grave
Encoding: 96 96 67
Width: 299
GlyphClass: 2
Flags: HW
LayerCount: 2
Fore
SplineSet
189 595 m 1,0,-1
 71 743 l 1,1,-1
 131 750 l 1,2,-1
 235 603 l 1,3,-1
 189 595 l 1,0,-1
EndSplineSet
EndChar

StartChar: a
Encoding: 97 97 68
Width: 462
GlyphClass: 2
Flags: HW
LayerCount: 2
Fore
SplineSet
51 446 m 1,0,1
 159.866666667 500.433333333 159.866666667 500.433333333 242 503 c 1,2,3
 307.285714286 503 307.285714286 503 342.642857143 486.5 c 128,-1,4
 378 470 378 470 400 440.5 c 128,-1,5
 422 411 422 411 422 358 c 2,6,-1
 422 0 l 1,7,-1
 357 0 l 1,8,-1
 357 38 l 1,9,10
 219.809959329 -4.11662816994 219.809959329 -4.11662816994 181.462227811 -4.11662816994 c 0,11,12
 179.444258248 -4.11662816994 179.444258248 -4.11662816994 177.7 -4 c 0,13,14
 88 -4 88 -4 55 51 c 0,15,16
 43 71 43 71 41.6086956522 89.7826086957 c 128,-1,17
 40.2173913043 108.565217391 40.2173913043 108.565217391 40.2173913043 122.086956522 c 0,18,19
 40.2173913043 157.707646177 40.2173913043 157.707646177 67.9428132992 186.389117206 c 128,-1,20
 95.6682352941 215.070588235 95.6682352941 215.070588235 134.834117647 225.035294118 c 0,21,22
 200.690889987 241.790779435 200.690889987 241.790779435 357 255 c 1,23,-1
 357 336 l 2,24,25
 357 445 357 445 243 445 c 0,26,27
 163 445 163 445 69 398 c 1,28,-1
 51 446 l 1,0,1
100.75 114.21875 m 0,29,30
 100.75 42 100.75 42 200 42 c 0,31,32
 279.285714286 42 279.285714286 42 357 76 c 1,33,-1
 357 219 l 1,34,35
 201.25 196.75 201.25 196.75 164.125 184.875 c 0,36,37
 100.75 164.603535354 100.75 164.603535354 100.75 114.21875 c 0,29,30
EndSplineSet
EndChar

StartChar: b
Encoding: 98 98 69
Width: 508
GlyphClass: 2
Flags: HW
LayerCount: 2
Fore
SplineSet
125 460 m 1,0,1
 183.8 509 183.8 509 259 509 c 0,2,3
 387.141304348 509 387.141304348 509 437.5 396 c 0,4,5
 458 350 458 350 458 277 c 0,6,7
 458 142 458 142 386.928571429 70.9285714286 c 128,-1,8
 315.857142857 -0.142857142857 315.857142857 -0.142857142857 202.755102041 -0.142857142857 c 0,9,10
 136.942857143 -0.142857142857 136.942857143 -0.142857142857 102.471428571 8.92857142857 c 128,-1,11
 68 18 68 18 60 23 c 1,12,-1
 60 745 l 1,13,-1
 125 750 l 1,14,-1
 125 460 l 1,0,1
125 425 m 1,15,-1
 125 56 l 1,16,17
 154 49 154 49 188 49 c 0,18,19
 288 49 288 49 340.5 107 c 128,-1,20
 393 165 393 165 393 269.782608696 c 128,-1,21
 393 374.565217391 393 374.565217391 340 419.5 c 0,22,23
 302.846153846 451 302.846153846 451 243.823076923 451 c 128,-1,24
 184.8 451 184.8 451 125 425 c 1,15,-1
EndSplineSet
EndChar

StartChar: c
Encoding: 99 99 70
Width: 489
GlyphClass: 2
Flags: HW
LayerCount: 2
Fore
SplineSet
391 433 m 1,0,1
 349.833333333 446 349.833333333 446 306.916666667 446 c 0,2,3
 220.444444444 446 220.444444444 446 167.722222222 390.176470588 c 128,-1,4
 115 334.352941176 115 334.352941176 115 231.509803922 c 0,5,6
 115 54 115 54 280 54 c 0,7,8
 346.222222222 54 346.222222222 54 415.5 75.5 c 0,9,10
 430 80 430 80 433 82 c 1,11,-1
 449 28 l 1,12,13
 413.513157895 7.29934210526 413.513157895 7.29934210526 322 -1.5 c 0,14,15
 296 -4 296 -4 267 -4 c 0,16,17
 182.44 -4 182.44 -4 127 38 c 0,18,19
 50 96.3333333333 50 96.3333333333 50 229.166666667 c 128,-1,20
 50 362 50 362 121.533333333 433.533333333 c 128,-1,21
 193.066666667 505.066666667 193.066666667 505.066666667 306.417777778 505.066666667 c 0,22,23
 342.4 505.066666667 342.4 505.066666667 382.7 495.533333333 c 128,-1,24
 423 486 423 486 445 466 c 1,25,-1
 445 335 l 1,26,-1
 396 328 l 1,27,-1
 391 433 l 1,0,1
EndSplineSet
EndChar

StartChar: d
Encoding: 100 100 71
Width: 535
GlyphClass: 2
Flags: HW
LayerCount: 2
Fore
SplineSet
317.56377551 504.642857143 m 0,0,1
 376.880952381 504.642857143 376.880952381 504.642857143 430 470 c 1,2,-1
 430 745 l 1,3,-1
 495 750 l 1,4,-1
 495 23 l 1,5,-1
 490 23 l 1,6,7
 458.666666667 10.4666666667 458.666666667 10.4666666667 386.333333333 3.23333333333 c 128,-1,8
 314 -4 314 -4 286 -4 c 0,9,10
 202.44 -4 202.44 -4 147 38 c 0,11,12
 70 96.3333333333 70 96.3333333333 70 229.166666667 c 128,-1,13
 70 362 70 362 141.321428571 433.321428571 c 128,-1,14
 212.642857143 504.642857143 212.642857143 504.642857143 317.56377551 504.642857143 c 0,0,1
430 427 m 1,15,16
 380.125 446 380.125 446 332.0625 446 c 0,17,18
 240.444444444 446 240.444444444 446 187.722222222 390.176470588 c 128,-1,19
 135 334.352941176 135 334.352941176 135 231.258103241 c 128,-1,20
 135 128.163265306 135 128.163265306 191.5 85.5 c 0,21,22
 233.216216216 54 233.216216216 54 295.358108108 54 c 128,-1,23
 357.5 54 357.5 54 430 64 c 1,24,-1
 430 427 l 1,15,16
EndSplineSet
EndChar

StartChar: e
Encoding: 101 101 72
Width: 516
GlyphClass: 2
Flags: HW
LayerCount: 2
Fore
SplineSet
120 230 m 2,0,1
 120 54 120 54 288 54 c 0,2,3
 358.6 54 358.6 54 417.5 73 c 0,4,5
 433 78 433 78 439 81 c 1,6,-1
 454 28 l 1,7,8
 418.513157895 7.29934210526 418.513157895 7.29934210526 327 -1.5 c 0,9,10
 301 -4 301 -4 272 -4 c 0,11,12
 187.897959184 -4 187.897959184 -4 132 37.5 c 0,13,14
 55 94.6666666667 55 94.6666666667 55 227.717948718 c 128,-1,15
 55 360.769230769 55 360.769230769 124.50533049 432.413186813 c 128,-1,16
 194.010660981 504.057142857 194.010660981 504.057142857 293.23345549 504.057142857 c 128,-1,17
 392.45625 504.057142857 392.45625 504.057142857 441.5 440 c 0,18,19
 480.4 389.191836735 480.4 389.191836735 480.4 305.4 c 0,20,21
 480.4 285 480.4 285 478 263 c 1,22,-1
 121 263 l 1,23,24
 120 255 120 255 120 246 c 2,25,-1
 120 230 l 2,0,1
297.2 442.4 m 0,26,27
 235.16 442.4 235.16 442.4 191.08 404.7 c 128,-1,28
 147 367 147 367 130 308 c 1,29,-1
 421 308 l 1,30,31
 416.378504673 418.91588785 416.378504673 418.91588785 335 437 c 1,32,33
 317 442.4 317 442.4 297.2 442.4 c 0,26,27
EndSplineSet
EndChar

StartChar: f
Encoding: 102 102 73
Width: 309
GlyphClass: 2
Flags: HW
LayerCount: 2
Fore
SplineSet
96 618 m 2,0,1
 96 753.55 96 753.55 246.165 753.55 c 0,2,3
 284.8 753.55 284.8 753.55 315 746 c 1,4,-1
 305 690 l 1,5,6
 270.575 695.1 270.575 695.1 247.2875 695.1 c 128,-1,7
 224 695.1 224 695.1 205 686.55 c 0,8,9
 161 666.75 161 666.75 161 595 c 2,10,-1
 161 500 l 1,11,-1
 285 500 l 1,12,-1
 285 442 l 1,13,-1
 161 442 l 1,14,-1
 161 0 l 1,15,-1
 96 0 l 1,16,-1
 96 442 l 1,17,-1
 40 442 l 1,18,-1
 49 500 l 1,19,-1
 96 500 l 1,20,-1
 96 618 l 2,0,1
EndSplineSet
EndChar

StartChar: g
Encoding: 103 103 74
Width: 571
GlyphClass: 2
Flags: HW
LayerCount: 2
Fore
SplineSet
142 193 m 1,0,1
 68 230 68 230 68 332 c 0,2,3
 68 415.563636364 68 415.563636364 125.904761905 459.781818182 c 128,-1,4
 183.80952381 504 183.80952381 504 274 504 c 0,5,6
 298 504 298 504 333 499 c 1,7,-1
 521 504 l 1,8,-1
 519 466 l 1,9,-1
 410 466 l 1,10,11
 465 425 465 425 465 342.669811321 c 128,-1,12
 465 260.339622642 465 260.339622642 409.941860465 215.669811321 c 128,-1,13
 354.88372093 171 354.88372093 171 268 171 c 0,14,15
 212 171 212 171 175 181 c 1,16,17
 156 163 156 163 156 139 c 0,18,19
 156 105 156 105 193.5 90 c 128,-1,20
 231 75 231 75 282.5 68 c 0,21,22
 395.328534515 52.6640826873 395.328534515 52.6640826873 445 25.5 c 0,23,24
 517 -13.875 517 -13.875 517 -96.7780797101 c 128,-1,25
 517 -179.68115942 517 -179.68115942 438.5 -219.5 c 0,26,27
 378.371428571 -250 378.371428571 -250 293.185714286 -250 c 128,-1,28
 208 -250 208 -250 162.5 -237 c 0,29,30
 40.6923076923 -202.197802198 40.6923076923 -202.197802198 40.6923076923 -107.204465747 c 128,-1,31
 40.6923076923 -12.2111292962 40.6923076923 -12.2111292962 148 54 c 1,32,33
 106 84.9473684211 106 84.9473684211 106 125.88277512 c 128,-1,34
 106 166.818181818 106 166.818181818 142 193 c 1,0,1
452 -96 m 0,35,36
 452 -31.2 452 -31.2 366.5 -6.5 c 0,37,38
 341.86199095 0.617647058824 341.86199095 0.617647058824 279.930995475 10.8088235294 c 128,-1,39
 218 21 218 21 183 35 c 1,40,41
 106.470588235 -29.4458204334 106.470588235 -29.4458204334 106.470588235 -88.8148788927 c 0,42,43
 106.470588235 -115.029411765 106.470588235 -115.029411765 114.235294118 -132.014705882 c 0,44,45
 122 -149 122 -149 142 -162.5 c 0,46,47
 185.703703704 -192 185.703703704 -192 276 -192 c 0,48,49
 393.894736842 -192 393.894736842 -192 436 -142 c 0,50,51
 452 -123 452 -123 452 -96 c 0,35,36
397 345 m 0,52,53
 397 451 397 451 271 451 c 256,54,55
 211 451 211 451 172 423.5 c 128,-1,56
 133 396 133 396 133 339.5 c 128,-1,57
 133 283 133 283 161 253.5 c 128,-1,58
 189 224 189 224 255.709677419 224 c 128,-1,59
 322.419354839 224 322.419354839 224 359.709677419 256.111111111 c 128,-1,60
 397 288.222222222 397 288.222222222 397 345 c 0,52,53
EndSplineSet
EndChar

StartChar: h
Encoding: 104 104 75
Width: 497
GlyphClass: 2
Flags: HW
LayerCount: 2
Fore
SplineSet
135 443 m 1,0,1
 214.488151659 499.777251185 214.488151659 499.777251185 287 503 c 1,2,3
 349.230769231 503 349.230769231 503 382.115384615 488 c 128,-1,4
 415 473 415 473 436 445.5 c 128,-1,5
 457 418 457 418 457 368 c 2,6,-1
 457 0 l 1,7,-1
 392 0 l 1,8,-1
 392 351 l 2,9,10
 392 388 392 388 375.5 407.5 c 0,11,12
 343.769230769 445 343.769230769 445 278 445 c 1,13,14
 212.621621622 441.810810811 212.621621622 441.810810811 135 403 c 1,15,-1
 135 0 l 1,16,-1
 70 0 l 1,17,-1
 70 745 l 1,18,-1
 135 750 l 1,19,-1
 135 443 l 1,0,1
EndSplineSet
EndChar

StartChar: i
Encoding: 105 105 76
Width: 218
GlyphClass: 2
Flags: HW
LayerCount: 2
Fore
SplineSet
146 505 m 1,0,-1
 146 0 l 1,1,-1
 81 0 l 1,2,-1
 81 500 l 1,3,-1
 146 505 l 1,0,-1
80.5 647 m 128,-1,5
 70 660 70 660 70 680 c 128,-1,6
 70 700 70 700 81.5 712.5 c 128,-1,7
 93 725 93 725 113 725 c 128,-1,8
 133 725 133 725 145.5 712.5 c 128,-1,9
 158 700 158 700 158 678 c 128,-1,10
 158 656 158 656 144.5 645 c 128,-1,11
 131 634 131 634 111 634 c 128,-1,4
 91 634 91 634 80.5 647 c 128,-1,5
EndSplineSet
EndChar

StartChar: j
Encoding: 106 106 77
Width: 229
GlyphClass: 2
Flags: HW
LayerCount: 2
Fore
SplineSet
-16 -209 m 1,0,1
 52.6888217523 -144.604229607 52.6888217523 -144.604229607 82 -62 c 0,2,3
 93 -31 93 -31 93 0 c 2,4,-1
 93 500 l 1,5,-1
 158 505 l 1,6,-1
 158 0 l 2,7,8
 158.058823529 -2.88235294118 158.058823529 -2.88235294118 158.058823529 -5.73010380623 c 0,9,10
 158.058823529 -85.8132992327 158.058823529 -85.8132992327 104 -157.5 c 0,11,12
 81 -188 81 -188 56 -210.5 c 128,-1,13
 31 -233 31 -233 14 -248 c 1,14,-1
 -16 -209 l 1,0,1
92 647 m 128,-1,16
 81 660 81 660 81 680 c 128,-1,17
 81 700 81 700 93 712.5 c 128,-1,18
 105 725 105 725 125 725 c 128,-1,19
 145 725 145 725 157 712.5 c 128,-1,20
 169 700 169 700 169 678 c 128,-1,21
 169 656 169 656 156 645 c 128,-1,22
 143 634 143 634 123 634 c 128,-1,15
 103 634 103 634 92 647 c 128,-1,16
EndSplineSet
EndChar

StartChar: k
Encoding: 107 107 78
Width: 474
GlyphClass: 2
Flags: HW
LayerCount: 2
Fore
SplineSet
135 0 m 1,0,-1
 70 0 l 1,1,-1
 70 745 l 1,2,-1
 135 750 l 1,3,-1
 135 0 l 1,0,-1
336 500 m 1,4,-1
 414 500 l 1,5,-1
 200 266 l 1,6,-1
 434 0 l 1,7,-1
 361 -5 l 1,8,-1
 135 266 l 1,9,-1
 336 500 l 1,4,-1
EndSplineSet
EndChar

StartChar: l
Encoding: 108 108 79
Width: 175
GlyphClass: 2
Flags: HW
LayerCount: 2
Fore
SplineSet
70 0 m 1,0,-1
 70 745 l 1,1,-1
 135 750 l 1,2,-1
 135 0 l 1,3,-1
 70 0 l 1,0,-1
EndSplineSet
EndChar

StartChar: m
Encoding: 109 109 80
Width: 788
GlyphClass: 2
Flags: HW
LayerCount: 2
Fore
SplineSet
246 445 m 1,0,1
 189.756684492 441.786096257 189.756684492 441.786096257 125 408 c 1,2,-1
 125 0 l 1,3,-1
 60 0 l 1,4,-1
 60 500 l 1,5,-1
 125 505 l 1,6,-1
 125 449 l 1,7,8
 191.666666667 499.666666667 191.666666667 499.666666667 255 503 c 1,9,10
 361.25 503 361.25 503 401 450 c 1,11,12
 477.361643836 499.928767123 477.361643836 499.928767123 548 503 c 1,13,14
 609.230769231 503 609.230769231 503 642.115384615 488 c 128,-1,15
 675 473 675 473 696.5 445.5 c 128,-1,16
 718 418 718 418 718 368 c 2,17,-1
 718 0 l 1,18,-1
 653 0 l 1,19,-1
 653 351 l 2,20,21
 653 388 653 388 636.5 407.5 c 0,22,23
 605.107016856 444.600798261 605.107016856 444.600798261 548.083713344 444.600798261 c 0,24,25
 488.234863333 444.600798261 488.234863333 444.600798261 420 409 c 1,26,27
 425 389 425 389 425 368 c 2,28,-1
 425 0 l 1,29,-1
 360 0 l 1,30,-1
 360 351 l 2,31,32
 360 388 360 388 343.5 407.5 c 0,33,34
 311.769230769 445 311.769230769 445 246 445 c 1,0,1
EndSplineSet
EndChar

StartChar: n
Encoding: 110 110 81
Width: 507
GlyphClass: 2
Flags: HW
LayerCount: 2
Fore
SplineSet
125 445 m 1,0,1
 200.214285714 499.964285714 200.214285714 499.964285714 267 503 c 1,2,3
 328.230769231 503 328.230769231 503 361.115384615 488 c 128,-1,4
 394 473 394 473 415.5 445.5 c 128,-1,5
 437 418 437 418 437 368 c 2,6,-1
 437 0 l 1,7,-1
 372 0 l 1,8,-1
 372 351 l 2,9,10
 372 388 372 388 355.5 407.5 c 0,11,12
 323.769230769 445 323.769230769 445 258 445 c 1,13,14
 194.524663677 441.659192825 194.524663677 441.659192825 125 404 c 1,15,-1
 125 0 l 1,16,-1
 60 0 l 1,17,-1
 60 500 l 1,18,-1
 125 505 l 1,19,-1
 125 445 l 1,0,1
EndSplineSet
EndChar

StartChar: o
Encoding: 111 111 82
Width: 575
GlyphClass: 2
Flags: HW
LayerCount: 2
Fore
SplineSet
68.5 128.5 m 0,0,1
 50 176 50 176 50 240.5 c 0,2,3
 50 363.439393939 50 363.439393939 119.231343284 433.71969697 c 128,-1,4
 188.462686567 504 188.462686567 504 292 504 c 0,5,6
 454.894736842 504 454.894736842 504 506.5 371.5 c 0,7,8
 525 324 525 324 525 259.5 c 0,9,10
 525 136.560606061 525 136.560606061 455.768656716 66.2803030303 c 128,-1,11
 386.537313433 -4 386.537313433 -4 283 -4 c 0,12,13
 120.105263158 -4 120.105263158 -4 68.5 128.5 c 0,0,1
162.25 104.4 m 128,-1,15
 209.5 54 209.5 54 284.544117647 54 c 128,-1,16
 359.588235294 54 359.588235294 54 409.794117647 107.34375 c 128,-1,17
 460 160.6875 460 160.6875 460 252.94375 c 128,-1,18
 460 345.2 460 345.2 412.75 395.6 c 128,-1,19
 365.5 446 365.5 446 290.455882353 446 c 128,-1,20
 215.411764706 446 215.411764706 446 165.205882353 392.65625 c 128,-1,21
 115 339.3125 115 339.3125 115 247.05625 c 128,-1,14
 115 154.8 115 154.8 162.25 104.4 c 128,-1,15
EndSplineSet
EndChar

StartChar: p
Encoding: 112 112 83
Width: 518
GlyphClass: 2
Flags: HW
LayerCount: 2
Fore
SplineSet
322.5 20.5 m 128,-1,1
 282 4 282 4 253.166666667 1.83333333333 c 128,-1,2
 224.333333333 -0.333333333333 224.333333333 -0.333333333333 196.333333333 -0.333333333333 c 128,-1,3
 168.333333333 -0.333333333333 168.333333333 -0.333333333333 135 5 c 1,4,-1
 135 -245 l 1,5,-1
 70 -250 l 1,6,-1
 70 474 l 1,7,8
 92 481 92 481 137.5 495 c 128,-1,9
 183 509 183 509 234.5 509 c 128,-1,10
 286 509 286 509 323.5 500.5 c 128,-1,11
 361 492 361 492 393 467.5 c 0,12,13
 468 410.078125 468 410.078125 468 276 c 128,-1,14
 468 142 468 142 395.5 69.5 c 0,15,0
 363 37 363 37 322.5 20.5 c 128,-1,1
135 56 m 1,16,17
 164.75 49 164.75 49 199 49 c 0,18,19
 297 49 297 49 350 107 c 128,-1,20
 403 165 403 165 403 270.195652174 c 0,21,22
 403 375.391304348 403 375.391304348 349 420 c 0,23,24
 311.473684211 451 311.473684211 451 251.924342105 451 c 128,-1,25
 192.375 451 192.375 451 135 434 c 1,26,-1
 135 56 l 1,16,17
EndSplineSet
EndChar

StartChar: q
Encoding: 113 113 84
Width: 545
GlyphClass: 2
Flags: HW
LayerCount: 2
Fore
SplineSet
420 10 m 1,0,1
 340.666666667 -4 340.666666667 -4 294.333333333 -4 c 0,2,3
 60 -4 60 -4 60 230 c 0,4,5
 60 362 60 362 131.642857143 433.642857143 c 128,-1,6
 203.285714286 505.285714286 203.285714286 505.285714286 319.234693878 505.285714286 c 0,7,8
 391.428571429 505.285714286 391.428571429 505.285714286 466 482.5 c 0,9,10
 484 477 484 477 485 476 c 1,11,-1
 485 -246 l 1,12,-1
 420 -251 l 1,13,-1
 420 10 l 1,0,1
420 429 m 1,14,15
 340.075040084 445.457353458 340.075040084 445.457353458 315.833333333 446 c 0,16,17
 230.444444444 446 230.444444444 446 177.722222222 390.176470588 c 128,-1,18
 125 334.352941176 125 334.352941176 125 231.258103241 c 128,-1,19
 125 128.163265306 125 128.163265306 181.5 85.5 c 0,20,21
 223.216216216 54 223.216216216 54 285.358108108 54 c 128,-1,22
 347.5 54 347.5 54 420 64 c 1,23,-1
 420 429 l 1,14,15
EndSplineSet
EndChar

StartChar: r
Encoding: 114 114 85
Width: 347
GlyphClass: 2
Flags: HW
LayerCount: 2
Fore
SplineSet
321 430 m 1,0,1
 305.013157895 438.526315789 305.013157895 438.526315789 286.776315789 438.526315789 c 0,2,3
 268.539473684 438.526315789 268.539473684 438.526315789 266.5625 438.5 c 0,4,5
 229 438 229 438 190.5 410.5 c 128,-1,6
 152 383 152 383 125 349 c 1,7,-1
 125 0 l 1,8,-1
 60 0 l 1,9,-1
 60 500 l 1,10,-1
 125 505 l 1,11,-1
 125 393 l 1,12,13
 162.401960784 440.375816993 162.401960784 440.375816993 187.700980392 459.187908497 c 0,14,15
 235.977707006 495.085987261 235.977707006 495.085987261 280 497 c 0,16,17
 286.47656839 497.539714033 286.47656839 497.539714033 302.412827533 497.539714033 c 0,18,19
 318.349086676 497.539714033 318.349086676 497.539714033 347 490 c 1,20,-1
 321 430 l 1,0,1
EndSplineSet
EndChar

StartChar: s
Encoding: 115 115 86
Width: 427
GlyphClass: 2
Flags: HW
LayerCount: 2
Fore
SplineSet
344 434 m 1,0,1
 308 446 308 446 246 446 c 128,-1,2
 184 446 184 446 150 424 c 128,-1,3
 116 402 116 402 116 369.5 c 128,-1,4
 116 337 116 337 136 322 c 128,-1,5
 156 307 156 307 186 296.5 c 128,-1,6
 216 286 216 286 251.5 276 c 128,-1,7
 287 266 287 266 317 250.5 c 0,8,9
 387 214.333333333 387 214.333333333 387 143.166666667 c 128,-1,10
 387 72 387 72 338.5 34 c 128,-1,11
 290 -4 290 -4 197 -4 c 0,12,13
 150 -4 150 -4 106.5 5.5 c 128,-1,14
 63 15 63 15 40 32 c 1,15,-1
 62 85 l 1,16,17
 85.4130434783 65.4891304348 85.4130434783 65.4891304348 155 56 c 0,18,19
 177 53 177 53 200.5 53 c 0,20,21
 251.80952381 53 251.80952381 53 286.904761905 74.6764705882 c 128,-1,22
 322 96.3529411765 322 96.3529411765 322 140 c 0,23,24
 322 170 322 170 302 187 c 128,-1,25
 282 204 282 204 252 215.5 c 128,-1,26
 222 227 222 227 186.5 236 c 128,-1,27
 151 245 151 245 121 259.5 c 128,-1,28
 91 274 91 274 71 297.5 c 128,-1,29
 51 321 51 321 51 361 c 0,30,31
 51 426 51 426 101 465 c 128,-1,32
 151 504 151 504 235 504 c 0,33,34
 256 504 256 504 278 501.5 c 128,-1,35
 300 499 300 499 318 497 c 2,36,-1
 360 490 l 1,37,-1
 344 434 l 1,0,1
EndSplineSet
EndChar

StartChar: t
Encoding: 116 116 87
Width: 332
GlyphClass: 2
Flags: HW
LayerCount: 2
Fore
SplineSet
289 18 m 1,0,1
 270.846153846 -0.153846153846 270.846153846 -0.153846153846 223.659763314 -0.153846153846 c 0,2,3
 157.769230769 -0.153846153846 157.769230769 -0.153846153846 135 34 c 1,4,5
 96 70.7058823529 96 70.7058823529 96 134 c 2,6,-1
 96 442 l 1,7,-1
 40 442 l 1,8,-1
 49 500 l 1,9,-1
 96 500 l 1,10,-1
 96 599 l 1,11,-1
 161 605 l 1,12,-1
 161 500 l 1,13,-1
 277 500 l 1,14,-1
 277 442 l 1,15,-1
 161 442 l 1,16,-1
 161 118 l 2,17,18
 161 59.6666666667 161 59.6666666667 220.555555556 59.6666666667 c 0,19,20
 246.851851852 59.6666666667 246.851851852 59.6666666667 277 72 c 1,21,-1
 289 18 l 1,0,1
EndSplineSet
EndChar

StartChar: u
Encoding: 117 117 88
Width: 517
GlyphClass: 2
Flags: HW
LayerCount: 2
Fore
SplineSet
188.5 64.5 m 0,0,1
 209.679121918 55.7184128631 209.679121918 55.7184128631 258.068804097 55.7184128631 c 128,-1,2
 306.458486275 55.7184128631 306.458486275 55.7184128631 382 95 c 1,3,-1
 382 500 l 1,4,-1
 447 505 l 1,5,-1
 447 0 l 1,6,-1
 382 0 l 1,7,-1
 382 54 l 1,8,9
 307.528571429 -3.28571428571 307.528571429 -3.28571428571 230.857142857 -3.28571428571 c 0,10,11
 135.487244898 -3.28571428571 135.487244898 -3.28571428571 91.5 54 c 0,12,13
 70 82 70 82 70 132 c 2,14,-1
 70 500 l 1,15,-1
 135 505 l 1,16,-1
 135 149 l 2,17,18
 135 86.6829268293 135 86.6829268293 188.5 64.5 c 0,0,1
EndSplineSet
EndChar

StartChar: v
Encoding: 118 118 89
Width: 528
GlyphClass: 2
Flags: HW
LayerCount: 2
Fore
SplineSet
40 500 m 1,0,-1
 113 505 l 1,1,-1
 258 77 l 1,2,-1
 415 500 l 1,3,-1
 487 505 l 1,4,-1
 285 0 l 1,5,-1
 225 0 l 1,6,-1
 40 500 l 1,0,-1
EndSplineSet
EndChar

StartChar: w
Encoding: 119 119 90
Width: 809
GlyphClass: 2
Flags: HW
LayerCount: 2
Fore
SplineSet
399 402 m 1,0,-1
 265 0 l 1,1,-1
 205 0 l 1,2,-1
 40 500 l 1,3,-1
 113 505 l 1,4,-1
 240 82 l 1,5,-1
 370 500 l 1,6,-1
 433 505 l 1,7,-1
 545 81 l 1,8,-1
 692 500 l 1,9,-1
 769 505 l 1,10,-1
 577 0 l 1,11,-1
 517 0 l 1,12,-1
 399 402 l 1,0,-1
EndSplineSet
EndChar

StartChar: x
Encoding: 120 120 91
Width: 492
GlyphClass: 2
Flags: HW
LayerCount: 2
Fore
SplineSet
234 208 m 1,0,-1
 101 0 l 1,1,-1
 26 0 l 1,2,-1
 199 263 l 1,3,-1
 47 500 l 1,4,-1
 124 505 l 1,5,-1
 246 310 l 1,6,-1
 365 500 l 1,7,-1
 440 500 l 1,8,-1
 281 254 l 1,9,-1
 446 0 l 1,10,-1
 368 -5 l 1,11,-1
 234 208 l 1,0,-1
EndSplineSet
EndChar

StartChar: y
Encoding: 121 121 92
Width: 566
GlyphClass: 2
Flags: HW
LayerCount: 2
Fore
SplineSet
40 500 m 1,0,-1
 113 505 l 1,1,-1
 262 47 l 1,2,-1
 454 500 l 1,3,-1
 524 500 l 1,4,-1
 192 -250 l 1,5,-1
 131 -250 l 1,6,-1
 241 0 l 1,7,-1
 218 0 l 1,8,-1
 40 500 l 1,0,-1
EndSplineSet
EndChar

StartChar: z
Encoding: 122 122 93
Width: 500
GlyphClass: 2
Flags: HW
LayerCount: 2
Fore
SplineSet
65 500 m 1,0,-1
 430 500 l 1,1,-1
 439 442 l 1,2,-1
 127 58 l 1,3,-1
 452 58 l 1,4,-1
 460 0 l 1,5,-1
 49 0 l 1,6,-1
 40 58 l 1,7,-1
 356 442 l 1,8,-1
 66 442 l 1,9,-1
 65 500 l 1,0,-1
EndSplineSet
PairPos2: "'kern' Horizontal Kerning in Latin lookup 0 per glyph data 1" oe dx=0 dy=0 dh=-29 dv=0 dx=0 dy=0 dh=0 dv=0
PairPos2: "'kern' Horizontal Kerning in Latin lookup 0 per glyph data 1" dotlessi dx=0 dy=0 dh=-24 dv=0 dx=0 dy=0 dh=0 dv=0
PairPos2: "'kern' Horizontal Kerning in Latin lookup 0 per glyph data 1" ydieresis dx=0 dy=0 dh=-29 dv=0 dx=0 dy=0 dh=0 dv=0
PairPos2: "'kern' Horizontal Kerning in Latin lookup 0 per glyph data 1" thorn dx=0 dy=0 dh=-24 dv=0 dx=0 dy=0 dh=0 dv=0
PairPos2: "'kern' Horizontal Kerning in Latin lookup 0 per glyph data 1" yacute dx=0 dy=0 dh=-29 dv=0 dx=0 dy=0 dh=0 dv=0
PairPos2: "'kern' Horizontal Kerning in Latin lookup 0 per glyph data 1" udieresis dx=0 dy=0 dh=-24 dv=0 dx=0 dy=0 dh=0 dv=0
PairPos2: "'kern' Horizontal Kerning in Latin lookup 0 per glyph data 1" ucircumflex dx=0 dy=0 dh=-24 dv=0 dx=0 dy=0 dh=0 dv=0
PairPos2: "'kern' Horizontal Kerning in Latin lookup 0 per glyph data 1" uacute dx=0 dy=0 dh=-24 dv=0 dx=0 dy=0 dh=0 dv=0
PairPos2: "'kern' Horizontal Kerning in Latin lookup 0 per glyph data 1" ugrave dx=0 dy=0 dh=-24 dv=0 dx=0 dy=0 dh=0 dv=0
PairPos2: "'kern' Horizontal Kerning in Latin lookup 0 per glyph data 1" odieresis dx=0 dy=0 dh=-29 dv=0 dx=0 dy=0 dh=0 dv=0
PairPos2: "'kern' Horizontal Kerning in Latin lookup 0 per glyph data 1" otilde dx=0 dy=0 dh=-29 dv=0 dx=0 dy=0 dh=0 dv=0
PairPos2: "'kern' Horizontal Kerning in Latin lookup 0 per glyph data 1" ocircumflex dx=0 dy=0 dh=-29 dv=0 dx=0 dy=0 dh=0 dv=0
PairPos2: "'kern' Horizontal Kerning in Latin lookup 0 per glyph data 1" oacute dx=0 dy=0 dh=-29 dv=0 dx=0 dy=0 dh=0 dv=0
PairPos2: "'kern' Horizontal Kerning in Latin lookup 0 per glyph data 1" ograve dx=0 dy=0 dh=-29 dv=0 dx=0 dy=0 dh=0 dv=0
PairPos2: "'kern' Horizontal Kerning in Latin lookup 0 per glyph data 1" ntilde dx=0 dy=0 dh=-24 dv=0 dx=0 dy=0 dh=0 dv=0
PairPos2: "'kern' Horizontal Kerning in Latin lookup 0 per glyph data 1" eth dx=0 dy=0 dh=-29 dv=0 dx=0 dy=0 dh=0 dv=0
PairPos2: "'kern' Horizontal Kerning in Latin lookup 0 per glyph data 1" idieresis dx=0 dy=0 dh=-24 dv=0 dx=0 dy=0 dh=0 dv=0
PairPos2: "'kern' Horizontal Kerning in Latin lookup 0 per glyph data 1" icircumflex dx=0 dy=0 dh=-24 dv=0 dx=0 dy=0 dh=0 dv=0
PairPos2: "'kern' Horizontal Kerning in Latin lookup 0 per glyph data 1" iacute dx=0 dy=0 dh=-24 dv=0 dx=0 dy=0 dh=0 dv=0
PairPos2: "'kern' Horizontal Kerning in Latin lookup 0 per glyph data 1" igrave dx=0 dy=0 dh=-24 dv=0 dx=0 dy=0 dh=0 dv=0
PairPos2: "'kern' Horizontal Kerning in Latin lookup 0 per glyph data 1" edieresis dx=0 dy=0 dh=-44 dv=0 dx=0 dy=0 dh=0 dv=0
PairPos2: "'kern' Horizontal Kerning in Latin lookup 0 per glyph data 1" ecircumflex dx=0 dy=0 dh=-44 dv=0 dx=0 dy=0 dh=0 dv=0
PairPos2: "'kern' Horizontal Kerning in Latin lookup 0 per glyph data 1" eacute dx=0 dy=0 dh=-44 dv=0 dx=0 dy=0 dh=0 dv=0
PairPos2: "'kern' Horizontal Kerning in Latin lookup 0 per glyph data 1" egrave dx=0 dy=0 dh=-44 dv=0 dx=0 dy=0 dh=0 dv=0
PairPos2: "'kern' Horizontal Kerning in Latin lookup 0 per glyph data 1" ccedilla dx=0 dy=0 dh=-44 dv=0 dx=0 dy=0 dh=0 dv=0
PairPos2: "'kern' Horizontal Kerning in Latin lookup 0 per glyph data 1" aring dx=0 dy=0 dh=-14 dv=0 dx=0 dy=0 dh=0 dv=0
PairPos2: "'kern' Horizontal Kerning in Latin lookup 0 per glyph data 1" adieresis dx=0 dy=0 dh=-14 dv=0 dx=0 dy=0 dh=0 dv=0
PairPos2: "'kern' Horizontal Kerning in Latin lookup 0 per glyph data 1" atilde dx=0 dy=0 dh=-14 dv=0 dx=0 dy=0 dh=0 dv=0
PairPos2: "'kern' Horizontal Kerning in Latin lookup 0 per glyph data 1" acircumflex dx=0 dy=0 dh=-14 dv=0 dx=0 dy=0 dh=0 dv=0
PairPos2: "'kern' Horizontal Kerning in Latin lookup 0 per glyph data 1" aacute dx=0 dy=0 dh=-14 dv=0 dx=0 dy=0 dh=0 dv=0
PairPos2: "'kern' Horizontal Kerning in Latin lookup 0 per glyph data 1" agrave dx=0 dy=0 dh=-14 dv=0 dx=0 dy=0 dh=0 dv=0
PairPos2: "'kern' Horizontal Kerning in Latin lookup 0 per glyph data 1" germandbls dx=0 dy=0 dh=-24 dv=0 dx=0 dy=0 dh=0 dv=0
PairPos2: "'kern' Horizontal Kerning in Latin lookup 0 per glyph data 1" mu dx=0 dy=0 dh=-24 dv=0 dx=0 dy=0 dh=0 dv=0
PairPos2: "'kern' Horizontal Kerning in Latin lookup 0 per glyph data 1" brokenbar dx=0 dy=0 dh=-24 dv=0 dx=0 dy=0 dh=0 dv=0
PairPos2: "'kern' Horizontal Kerning in Latin lookup 0 per glyph data 1" cent dx=0 dy=0 dh=-44 dv=0 dx=0 dy=0 dh=0 dv=0
PairPos2: "'kern' Horizontal Kerning in Latin lookup 0 per glyph data 1" exclamdown dx=0 dy=0 dh=-24 dv=0 dx=0 dy=0 dh=0 dv=0
PairPos2: "'kern' Horizontal Kerning in Latin lookup 0 per glyph data 1" bar dx=0 dy=0 dh=-24 dv=0 dx=0 dy=0 dh=0 dv=0
PairPos2: "'kern' Horizontal Kerning in Latin lookup 0 per glyph data 1" z dx=0 dy=0 dh=-7 dv=0 dx=0 dy=0 dh=0 dv=0
PairPos2: "'kern' Horizontal Kerning in Latin lookup 0 per glyph data 1" y dx=0 dy=0 dh=-29 dv=0 dx=0 dy=0 dh=0 dv=0
PairPos2: "'kern' Horizontal Kerning in Latin lookup 0 per glyph data 1" w dx=0 dy=0 dh=-15 dv=0 dx=0 dy=0 dh=0 dv=0
PairPos2: "'kern' Horizontal Kerning in Latin lookup 0 per glyph data 1" u dx=0 dy=0 dh=-24 dv=0 dx=0 dy=0 dh=0 dv=0
PairPos2: "'kern' Horizontal Kerning in Latin lookup 0 per glyph data 1" t dx=0 dy=0 dh=-24 dv=0 dx=0 dy=0 dh=0 dv=0
PairPos2: "'kern' Horizontal Kerning in Latin lookup 0 per glyph data 1" s dx=0 dy=0 dh=-7 dv=0 dx=0 dy=0 dh=0 dv=0
PairPos2: "'kern' Horizontal Kerning in Latin lookup 0 per glyph data 1" r dx=0 dy=0 dh=-24 dv=0 dx=0 dy=0 dh=0 dv=0
PairPos2: "'kern' Horizontal Kerning in Latin lookup 0 per glyph data 1" q dx=0 dy=0 dh=-44 dv=0 dx=0 dy=0 dh=0 dv=0
PairPos2: "'kern' Horizontal Kerning in Latin lookup 0 per glyph data 1" p dx=0 dy=0 dh=-24 dv=0 dx=0 dy=0 dh=0 dv=0
PairPos2: "'kern' Horizontal Kerning in Latin lookup 0 per glyph data 1" o dx=0 dy=0 dh=-29 dv=0 dx=0 dy=0 dh=0 dv=0
PairPos2: "'kern' Horizontal Kerning in Latin lookup 0 per glyph data 1" n dx=0 dy=0 dh=-24 dv=0 dx=0 dy=0 dh=0 dv=0
PairPos2: "'kern' Horizontal Kerning in Latin lookup 0 per glyph data 1" m dx=0 dy=0 dh=-24 dv=0 dx=0 dy=0 dh=0 dv=0
PairPos2: "'kern' Horizontal Kerning in Latin lookup 0 per glyph data 1" l dx=0 dy=0 dh=-24 dv=0 dx=0 dy=0 dh=0 dv=0
PairPos2: "'kern' Horizontal Kerning in Latin lookup 0 per glyph data 1" k dx=0 dy=0 dh=-24 dv=0 dx=0 dy=0 dh=0 dv=0
PairPos2: "'kern' Horizontal Kerning in Latin lookup 0 per glyph data 1" j dx=0 dy=0 dh=-24 dv=0 dx=0 dy=0 dh=0 dv=0
PairPos2: "'kern' Horizontal Kerning in Latin lookup 0 per glyph data 1" i dx=0 dy=0 dh=-24 dv=0 dx=0 dy=0 dh=0 dv=0
PairPos2: "'kern' Horizontal Kerning in Latin lookup 0 per glyph data 1" h dx=0 dy=0 dh=-24 dv=0 dx=0 dy=0 dh=0 dv=0
PairPos2: "'kern' Horizontal Kerning in Latin lookup 0 per glyph data 1" f dx=0 dy=0 dh=-24 dv=0 dx=0 dy=0 dh=0 dv=0
PairPos2: "'kern' Horizontal Kerning in Latin lookup 0 per glyph data 1" e dx=0 dy=0 dh=-44 dv=0 dx=0 dy=0 dh=0 dv=0
PairPos2: "'kern' Horizontal Kerning in Latin lookup 0 per glyph data 1" d dx=0 dy=0 dh=-44 dv=0 dx=0 dy=0 dh=0 dv=0
PairPos2: "'kern' Horizontal Kerning in Latin lookup 0 per glyph data 1" c dx=0 dy=0 dh=-44 dv=0 dx=0 dy=0 dh=0 dv=0
PairPos2: "'kern' Horizontal Kerning in Latin lookup 0 per glyph data 1" b dx=0 dy=0 dh=-24 dv=0 dx=0 dy=0 dh=0 dv=0
PairPos2: "'kern' Horizontal Kerning in Latin lookup 0 per glyph data 1" a dx=0 dy=0 dh=-14 dv=0 dx=0 dy=0 dh=0 dv=0
PairPos2: "'kern' Horizontal Kerning in Latin lookup 0 per glyph data 1" bracketright dx=0 dy=0 dh=-24 dv=0 dx=0 dy=0 dh=0 dv=0
PairPos2: "'kern' Horizontal Kerning in Latin lookup 0 per glyph data 1" bracketleft dx=0 dy=0 dh=-24 dv=0 dx=0 dy=0 dh=0 dv=0
PairPos2: "'kern' Horizontal Kerning in Latin lookup 0 per glyph data 1" W dx=0 dy=0 dh=-36 dv=0 dx=0 dy=0 dh=0 dv=0
PairPos2: "'kern' Horizontal Kerning in Latin lookup 0 per glyph data 1" one dx=0 dy=0 dh=-24 dv=0 dx=0 dy=0 dh=0 dv=0
PairPos2: "'kern' Horizontal Kerning in Latin lookup 0 per glyph data 1" parenright dx=0 dy=0 dh=-24 dv=0 dx=0 dy=0 dh=0 dv=0
PairPos2: "'kern' Horizontal Kerning in Latin lookup 0 per glyph data 1" parenleft dx=0 dy=0 dh=-24 dv=0 dx=0 dy=0 dh=0 dv=0
PairPos2: "'kern' Horizontal Kerning in Latin lookup 0 per glyph data 1" exclam dx=0 dy=0 dh=-24 dv=0 dx=0 dy=0 dh=0 dv=0
EndChar

StartChar: braceleft
Encoding: 123 123 94
Width: 453
GlyphClass: 2
Flags: HW
LayerCount: 2
Fore
SplineSet
177 96 m 2,0,1
 177 215.263157895 177 215.263157895 68 221 c 1,2,-1
 61 221 l 1,3,-1
 61 278 l 1,4,5
 177 278 177 278 177 378 c 2,6,-1
 177 613 l 2,7,8
 177 748.25 177 748.25 339.71875 748.25 c 0,9,10
 346.5 748.25 346.5 748.25 353 748 c 1,11,-1
 353 691 l 1,12,13
 349 691.2 349 691.2 338.95 691.2 c 0,14,15
 302.8 691.2 302.8 691.2 275.5 673 c 0,16,17
 237 647.333333333 237 647.333333333 237 591 c 2,18,-1
 237 381 l 2,19,20
 237 287.76 237 287.76 180 249 c 1,21,22
 237 210.24 237 210.24 237 118 c 2,23,-1
 237 -92 l 2,24,25
 237 -149.333333333 237 -149.333333333 275.5 -175 c 0,26,27
 301.333333333 -192.222222222 301.333333333 -192.222222222 344.086419753 -192.222222222 c 0,28,29
 348.555555556 -192.222222222 348.555555556 -192.222222222 353 -192 c 1,30,-1
 353 -249 l 1,31,32
 343.545454545 -249.727272727 343.545454545 -249.727272727 329.636363636 -249.727272727 c 0,33,34
 275.840909091 -249.727272727 275.840909091 -249.727272727 238.5 -230 c 0,35,36
 177 -197.509433962 177 -197.509433962 177 -114 c 2,37,-1
 177 96 l 2,0,1
EndSplineSet
EndChar

StartChar: bar
Encoding: 124 124 95
Width: 284
GlyphClass: 2
Flags: HW
LayerCount: 2
Fore
SplineSet
172 749 m 1,0,-1
 172 -200 l 1,1,-1
 112 -200 l 1,2,-1
 112 749 l 1,3,-1
 172 749 l 1,0,-1
EndSplineSet
EndChar

StartChar: braceright
Encoding: 125 125 96
Width: 453
GlyphClass: 2
Flags: HW
LayerCount: 2
Fore
SplineSet
237 378 m 2,0,1
 237 278 237 278 353 278 c 1,2,-1
 353 221 l 1,3,-1
 346 221 l 1,4,5
 297.343313373 218.439121756 297.343313373 218.439121756 277.171656687 200.219560878 c 0,6,7
 237 163.935483871 237 163.935483871 237 96 c 2,8,-1
 237 -114 l 2,9,10
 237 -197.509433962 237 -197.509433962 175.5 -230 c 0,11,12
 138.159090909 -249.727272727 138.159090909 -249.727272727 80.5702479339 -249.727272727 c 0,13,14
 70.4545454545 -249.727272727 70.4545454545 -249.727272727 61 -249 c 1,15,-1
 61 -192 l 1,16,17
 65.2222222222 -192.222222222 65.2222222222 -192.222222222 74.9444444444 -192.222222222 c 0,18,19
 112.666666667 -192.222222222 112.666666667 -192.222222222 138.5 -175 c 0,20,21
 177 -149.333333333 177 -149.333333333 177 -92 c 2,22,-1
 177 118 l 2,23,24
 177 210.24 177 210.24 234 249 c 1,25,26
 177 287.76 177 287.76 177 381 c 2,27,-1
 177 591 l 2,28,29
 177 647.333333333 177 647.333333333 138.5 673 c 0,30,31
 111.2 691.2 111.2 691.2 68.68 691.2 c 0,32,33
 64.8 691.2 64.8 691.2 61 691 c 1,34,-1
 61 748 l 1,35,36
 67.5 748.25 67.5 748.25 74.28125 748.25 c 0,37,38
 237 748.25 237 748.25 237 613 c 2,39,-1
 237 378 l 2,0,1
EndSplineSet
EndChar

StartChar: asciitilde
Encoding: 126 126 97
Width: 588
GlyphClass: 2
Flags: HW
LayerCount: 2
Fore
SplineSet
215.65625 343.541666667 m 0,0,1
 163.108333333 343.541666667 163.108333333 343.541666667 156 308 c 1,2,-1
 122 315 l 1,3,4
 135.681818182 379.5 135.681818182 379.5 211.3125 379.5 c 0,5,6
 247.6875 379.5 247.6875 379.5 313.785161343 363.019230769 c 0,7,8
 379.882822686 346.538461538 379.882822686 346.538461538 399.845257497 346.538461538 c 128,-1,9
 419.807692308 346.538461538 419.807692308 346.538461538 429.903846154 349.769230769 c 0,10,11
 446.365030675 355.036809816 446.365030675 355.036809816 453 386 c 1,12,-1
 488 379 l 1,13,14
 473.636238847 316.158544955 473.636238847 316.158544955 429.5 310 c 0,15,16
 422.333333333 309 422.333333333 309 406.055555556 309 c 0,17,18
 389.777777778 309 389.777777778 309 322.017879949 326.270833333 c 0,19,20
 254.25798212 343.541666667 254.25798212 343.541666667 215.65625 343.541666667 c 0,0,1
EndSplineSet
EndChar

StartChar: exclamdown
Encoding: 161 161 98
Width: 282
GlyphClass: 2
Flags: HW
LayerCount: 2
Fore
SplineSet
170 371 m 1,0,-1
 110 371 l 1,1,-1
 110 -195 l 1,2,-1
 170 -200 l 1,3,-1
 170 371 l 1,0,-1
160.428571429 452.142857143 m 0,4,5
 136.354037267 452.142857143 136.354037267 452.142857143 122.391304348 468.2 c 0,6,7
 108.428571429 484.257142857 108.428571429 484.257142857 108.428571429 503.128571429 c 128,-1,8
 108.428571429 522 108.428571429 522 124 522 c 0,9,10
 143 522 143 522 158.142857143 506.857142857 c 0,11,12
 173.285714286 491.714285714 173.285714286 491.714285714 173.285714286 471.928571429 c 128,-1,13
 173.285714286 452.142857143 173.285714286 452.142857143 160.428571429 452.142857143 c 0,4,5
EndSplineSet
EndChar

StartChar: cent
Encoding: 162 162 99
Width: 489
GlyphClass: 2
Flags: HW
LayerCount: 2
Fore
SplineSet
391 433 m 1,0,1
 387 434 387 434 366 440 c 128,-1,2
 345 446 345 446 305 446 c 2,3,-1
 294 446 l 1,4,-1
 294 54 l 1,5,6
 356.887323944 57.3098591549 356.887323944 57.3098591549 415.5 75.5 c 0,7,8
 430 80 430 80 433 82 c 1,9,-1
 449 28 l 1,10,11
 428.631578947 16.1184210526 428.631578947 16.1184210526 377.649122807 6.55921052632 c 0,12,13
 326.666666667 -3 326.666666667 -3 294 -3 c 1,14,-1
 294 -100 l 1,15,-1
 264 -100 l 1,16,-1
 264 -4 l 1,17,18
 178.812668464 -1.25202156334 178.812668464 -1.25202156334 127 38 c 0,19,20
 50 96.3333333333 50 96.3333333333 50 229.166666667 c 0,21,22
 50 362 50 362 122.5 434.5 c 0,23,24
 180.451612903 492.451612903 180.451612903 492.451612903 264 502 c 1,25,-1
 264 600 l 1,26,-1
 294 600 l 1,27,-1
 294 505 l 1,28,29
 298.2 505.1 298.2 505.1 319.1 505.1 c 128,-1,30
 340 505.1 340 505.1 381.5 495.55 c 128,-1,31
 423 486 423 486 445 466 c 1,32,-1
 445 345 l 1,33,-1
 396 338 l 1,34,-1
 391 433 l 1,0,1
171 85.5 m 0,35,36
 195 67 195 67 219.5 61.5 c 128,-1,37
 244 56 244 56 264 54 c 1,38,-1
 264 442 l 1,39,40
 246 438 246 438 220 428 c 128,-1,41
 194 418 194 418 168.5 391 c 0,42,43
 115 334.352941176 115 334.352941176 115 231.509803922 c 0,44,45
 115 128.666666667 115 128.666666667 171 85.5 c 0,35,36
EndSplineSet
EndChar

StartChar: sterling
Encoding: 163 163 100
Width: 502
GlyphClass: 2
Flags: HW
LayerCount: 2
Fore
SplineSet
207.055555556 144.055555556 m 0,0,1
 207.055555556 73.5277777778 207.055555556 73.5277777778 166 53 c 1,2,-1
 426 53 l 1,3,-1
 431 0 l 1,4,-1
 85 0 l 1,5,-1
 78 53 l 1,6,-1
 87 53 l 1,7,8
 120.240780911 55.7700650759 120.240780911 55.7700650759 136.5 90 c 0,9,10
 147.0625 112.236842105 147.0625 112.236842105 147.0625 145.649671053 c 128,-1,11
 147.0625 179.0625 147.0625 179.0625 135.372032123 215.332925978 c 128,-1,12
 123.681564246 251.603351955 123.681564246 251.603351955 117 280 c 1,13,-1
 51 280 l 1,14,-1
 51 313 l 1,15,-1
 109 313 l 1,16,17
 100.333333333 373.666666667 100.333333333 373.666666667 100.333333333 394.5 c 128,-1,18
 100.333333333 415.333333333 100.333333333 415.333333333 101.166666667 436.166666667 c 0,19,20
 103.76904474 501.226118501 103.76904474 501.226118501 133.5 542 c 0,21,22
 173.604166667 597 173.604166667 597 253.225160256 597 c 128,-1,23
 332.846153846 597 332.846153846 597 379 557 c 1,24,-1
 356 515 l 1,25,26
 324.363636364 544 324.363636364 544 266.181818182 544 c 128,-1,27
 208 544 208 544 184 509 c 128,-1,28
 160 474 160 474 160 396 c 0,29,30
 160 355 160 355 166 313 c 1,31,-1
 333 313 l 1,32,-1
 333 280 l 1,33,-1
 174 280 l 1,34,-1
 181 259 l 2,35,36
 185 247 185 247 196.027777778 213 c 128,-1,37
 207.055555556 179 207.055555556 179 207.055555556 144.055555556 c 0,0,1
EndSplineSet
EndChar

StartChar: currency
Encoding: 164 164 101
Width: 600
GlyphClass: 2
Flags: HW
LayerCount: 2
Fore
SplineSet
134 324 m 1,0,1
 100 373.454545455 100 373.454545455 100 444.958041958 c 128,-1,2
 100 516.461538462 100 516.461538462 138 572 c 1,3,-1
 90 620 l 1,4,-1
 131 661 l 1,5,-1
 179 613 l 1,6,7
 235.923076923 650 235.923076923 650 305.961538462 650 c 128,-1,8
 376 650 376 650 425 615 c 1,9,-1
 473 663 l 1,10,-1
 515 621 l 1,11,-1
 466 572 l 1,12,13
 500 524.4 500 524.4 500 453.507692308 c 128,-1,14
 500 382.615384615 500 382.615384615 462 330 c 1,15,-1
 515 277 l 1,16,-1
 474 236 l 1,17,-1
 421 288 l 1,18,19
 366.714285714 250 366.714285714 250 295.428571429 250 c 128,-1,20
 224.142857143 250 224.142857143 250 177 283 c 1,21,-1
 131 237 l 1,22,-1
 89 279 l 1,23,-1
 134 324 l 1,0,1
200.027777778 345.921052632 m 128,-1,25
 240.055555556 308 240.055555556 308 300 308 c 256,26,27
 358.564102564 308 358.564102564 308 399.282051282 349.789473684 c 128,-1,28
 440 391.578947368 440 391.578947368 440 453.868421053 c 128,-1,29
 440 516.157894737 440 516.157894737 399.972222222 554.078947368 c 128,-1,30
 359.944444444 592 359.944444444 592 300 592 c 256,31,32
 241.435897436 592 241.435897436 592 200.717948718 550.210526316 c 128,-1,33
 160 508.421052632 160 508.421052632 160 446.131578947 c 128,-1,24
 160 383.842105263 160 383.842105263 200.027777778 345.921052632 c 128,-1,25
EndSplineSet
EndChar

StartChar: brokenbar
Encoding: 166 166 102
Width: 284
GlyphClass: 2
Flags: HW
LayerCount: 2
Fore
SplineSet
172 200 m 1,0,-1
 172 -200 l 1,1,-1
 112 -200 l 1,2,-1
 112 200 l 1,3,-1
 172 200 l 1,0,-1
112 400 m 1,4,-1
 112 749 l 1,5,-1
 172 749 l 1,6,-1
 172 400 l 1,7,-1
 112 400 l 1,4,-1
EndSplineSet
EndChar

StartChar: section
Encoding: 167 167 103
Width: 500
GlyphClass: 2
Flags: HW
LayerCount: 2
Fore
SplineSet
90 600 m 1,0,-1
 155 600 l 1,1,2
 156 551 156 551 175 524.5 c 128,-1,3
 194 498 194 498 222.5 481 c 128,-1,4
 251 464 251 464 283.5 451 c 128,-1,5
 316 438 316 438 344.5 417 c 0,6,7
 410 368.736842105 410 368.736842105 410 262 c 1,8,-1
 345 262 l 1,9,10
 345 312 345 312 326 340.5 c 128,-1,11
 307 369 307 369 279 386.5 c 128,-1,12
 251 404 251 404 217.5 417.5 c 128,-1,13
 184 431 184 431 156 451.5 c 128,-1,14
 128 472 128 472 109 506 c 128,-1,15
 90 540 90 540 90 600 c 1,0,-1
90 361 m 1,16,-1
 155 361 l 1,17,18
 156 312 156 312 175 285 c 128,-1,19
 194 258 194 258 222.5 241 c 128,-1,20
 251 224 251 224 283.5 211 c 128,-1,21
 316 198 316 198 344.5 176.5 c 0,22,23
 410 127.087719298 410 127.087719298 410 23 c 1,24,-1
 345 23 l 1,25,26
 345 73 345 73 326 101.5 c 128,-1,27
 307 130 307 130 279 147.5 c 128,-1,28
 251 165 251 165 217.5 178 c 128,-1,29
 184 191 184 191 156 211.5 c 0,30,31
 90 259.821428571 90 259.821428571 90 361 c 1,16,-1
EndSplineSet
EndChar

StartChar: dieresis
Encoding: 168 168 104
Width: 500
GlyphClass: 2
Flags: HW
LayerCount: 2
Fore
SplineSet
119 581.5 m 128,-1,1
 109 593 109 593 109 611 c 128,-1,2
 109 629 109 629 119.5 639.5 c 128,-1,3
 130 650 130 650 147.5 650 c 128,-1,4
 165 650 165 650 175.5 639.5 c 128,-1,5
 186 629 186 629 186 609.5 c 128,-1,6
 186 590 186 590 175 580 c 128,-1,7
 164 570 164 570 146.5 570 c 128,-1,0
 129 570 129 570 119 581.5 c 128,-1,1
334.5 581.5 m 128,-1,9
 325 593 325 593 325 611 c 128,-1,10
 325 629 325 629 335 639.5 c 128,-1,11
 345 650 345 650 362 650 c 0,12,13
 402 650 402 650 402 610 c 0,14,15
 402 590 402 590 390.5 580 c 128,-1,16
 379 570 379 570 361.5 570 c 128,-1,8
 344 570 344 570 334.5 581.5 c 128,-1,9
EndSplineSet
EndChar

StartChar: copyright
Encoding: 169 169 105
Width: 833
GlyphClass: 2
Flags: HW
LayerCount: 2
Fore
SplineSet
173.771084337 537.285714286 m 128,-1,1
 262.542168675 625 262.542168675 625 394 625 c 256,2,3
 529.53164557 625 529.53164557 625 616.265822785 543.428571429 c 128,-1,4
 703 461.857142857 703 461.857142857 703 316.142857143 c 128,-1,5
 703 170.428571429 703 170.428571429 614.228915663 82.7142857143 c 128,-1,6
 525.457831325 -5 525.457831325 -5 394 -5 c 256,7,8
 259 -5 259 -5 172 75.7857142857 c 128,-1,9
 85 156.571428571 85 156.571428571 85 303.071428571 c 128,-1,0
 85 449.571428571 85 449.571428571 173.771084337 537.285714286 c 128,-1,1
194.513513514 100.421052632 m 128,-1,11
 274.027027027 23 274.027027027 23 394 23 c 256,12,13
 511 23 511 23 592 104 c 128,-1,14
 673 185 673 185 673 313.868421053 c 128,-1,15
 673 442.736842105 673 442.736842105 592.698630137 519.868421053 c 128,-1,16
 512.397260274 597 512.397260274 597 394 597 c 256,17,18
 277 597 277 597 196 516 c 128,-1,19
 115 435 115 435 115 306.421052632 c 128,-1,10
 115 177.842105263 115 177.842105263 194.513513514 100.421052632 c 128,-1,11
495 146 m 1,20,21
 456.6 122 456.6 122 374 122 c 0,22,23
 315.894736842 122 315.894736842 122 280 153 c 0,24,25
 229 197.045454545 229 197.045454545 229 296.825052854 c 128,-1,26
 229 396.604651163 229 396.604651163 276.3625 451.677325581 c 128,-1,27
 323.725 506.75 323.725 506.75 401.1875 506.75 c 0,28,29
 426.5 506.75 426.5 506.75 452.75 498.875 c 128,-1,30
 479 491 479 491 492 477 c 1,31,-1
 492 398 l 1,32,-1
 465 396 l 1,33,-1
 462 466 l 1,34,35
 435.6 477 435.6 477 404.3 477 c 0,36,37
 342.181818182 477 342.181818182 477 304.590909091 431.055555556 c 128,-1,38
 267 385.111111111 267 385.111111111 267 298.298412698 c 128,-1,39
 267 211.485714286 267 211.485714286 306.5 176.5 c 0,40,41
 334.161290323 152 334.161290323 152 376.580645161 152 c 128,-1,42
 419 152 419 152 449.5 160 c 128,-1,43
 480 168 480 168 488 173 c 1,44,-1
 495 146 l 1,20,21
EndSplineSet
EndChar

StartChar: ordfeminine
Encoding: 170 170 106
Width: 319
GlyphClass: 2
Flags: HW
LayerCount: 2
Fore
SplineSet
139.571428571 682 m 0,0,1
 210 682 210 682 210 629 c 2,2,-1
 210 500 l 1,3,-1
 186 500 l 1,4,-1
 186 514 l 1,5,6
 153 499 153 499 123 499 c 0,7,8
 71.7142857143 499 71.7142857143 499 71.7142857143 542.775510204 c 0,9,10
 71.7142857143 571.632653061 71.7142857143 571.632653061 108 582 c 0,11,12
 131.111111111 587.777777778 131.111111111 587.777777778 186 592 c 1,13,-1
 186 621 l 2,14,15
 186 661 186 661 145 661 c 0,16,17
 123 661 123 661 104 653.5 c 128,-1,18
 85 646 85 646 82 644 c 1,19,-1
 75 661 l 1,20,21
 78 662 78 662 84.5 665.5 c 128,-1,22
 91 669 91 669 109.571428571 675.5 c 128,-1,23
 128.142857143 682 128.142857143 682 139.571428571 682 c 0,0,1
93.6785714286 541.362244898 m 0,24,25
 93.6785714286 515 93.6785714286 515 126.639285714 515 c 128,-1,26
 159.6 515 159.6 515 186 527 c 1,27,-1
 186 579 l 1,28,29
 135.130434783 572.217391304 135.130434783 572.217391304 116 567 c 1,30,31
 93.6785714286 558.964285714 93.6785714286 558.964285714 93.6785714286 541.362244898 c 0,24,25
EndSplineSet
EndChar

StartChar: guillemotleft
Encoding: 171 171 107
Width: 694
GlyphClass: 2
Flags: HW
LayerCount: 2
Fore
SplineSet
344 88 m 1,0,-1
 75 259 l 1,1,-1
 344 430 l 1,2,-1
 344 382 l 1,3,-1
 140 259 l 1,4,-1
 344 136 l 1,5,-1
 344 88 l 1,0,-1
600 88 m 1,6,-1
 331 259 l 1,7,-1
 600 430 l 1,8,-1
 600 382 l 1,9,-1
 396 259 l 1,10,-1
 600 136 l 1,11,-1
 600 88 l 1,6,-1
EndSplineSet
EndChar

StartChar: logicalnot
Encoding: 172 172 108
Width: 600
GlyphClass: 2
Flags: HW
LayerCount: 2
Fore
SplineSet
295 265 m 1,0,-1
 295 290 l 1,1,-1
 500 290 l 1,2,-1
 500 193 l 1,3,-1
 250 193 l 1,4,-1
 250 265 l 1,5,-1
 295 265 l 1,0,-1
EndSplineSet
EndChar

StartChar: registered
Encoding: 174 174 109
Width: 599
GlyphClass: 2
Flags: HW
LayerCount: 2
Fore
SplineSet
149 651 m 128,-1,1
 208 710 208 710 296 710 c 256,2,3
 387.528301887 710 387.528301887 710 445.264150943 655.357142857 c 128,-1,4
 503 600.714285714 503 600.714285714 503 503.071428571 c 128,-1,5
 503 405.428571429 503 405.428571429 443.727272727 347.214285714 c 128,-1,6
 384.454545455 289 384.454545455 289 296 289 c 256,7,8
 206 289 206 289 148 342.857142857 c 128,-1,9
 90 396.714285714 90 396.714285714 90 494.357142857 c 128,-1,0
 90 592 90 592 149 651 c 128,-1,1
166.234042553 360.16 m 128,-1,11
 217.468085106 312 217.468085106 312 295.46320922 312 c 128,-1,12
 373.458333333 312 373.458333333 312 425.729166667 363.204081633 c 128,-1,13
 478 414.408163265 478 414.408163265 478 501.295918367 c 128,-1,14
 478 588.183673469 478 588.183673469 426.489361702 637.591836735 c 128,-1,15
 374.978723404 687 374.978723404 687 297.254667825 687 c 128,-1,16
 219.530612245 687 219.530612245 687 167.265306122 635.78 c 128,-1,17
 115 584.56 115 584.56 115 496.44 c 128,-1,10
 115 408.32 115 408.32 166.234042553 360.16 c 128,-1,11
307 479 m 1,18,19
 295 477 295 477 281 477 c 2,20,-1
 255 477 l 1,21,-1
 255 380 l 1,22,-1
 233 380 l 1,23,-1
 233 613 l 1,24,-1
 281 613 l 2,25,26
 319 613 319 613 340 600.5 c 128,-1,27
 361 588 361 588 361 545 c 128,-1,28
 361 502 361 502 328 486 c 1,29,-1
 379 380 l 1,30,-1
 354 380 l 1,31,-1
 307 479 l 1,18,19
255 595 m 1,32,-1
 255 496 l 1,33,-1
 279 496 l 2,34,35
 308 496 308 496 323.5 507 c 128,-1,36
 339 518 339 518 339 547.5 c 128,-1,37
 339 577 339 577 323 586 c 128,-1,38
 307 595 307 595 279 595 c 2,39,-1
 255 595 l 1,32,-1
EndSplineSet
EndChar

StartChar: macron
Encoding: 175 175 110
Width: 500
GlyphClass: 2
Flags: HW
LayerCount: 2
Fore
SplineSet
400 608 m 1,0,-1
 400 600 l 1,1,-1
 100 600 l 1,2,-1
 100 608 l 1,3,-1
 400 608 l 1,0,-1
EndSplineSet
EndChar

StartChar: degree
Encoding: 176 176 111
Width: 378
GlyphClass: 2
Flags: HW
LayerCount: 2
Fore
SplineSet
119 536.5 m 128,-1,1
 90 560 90 560 90 608 c 128,-1,2
 90 656 90 656 119 683 c 128,-1,3
 148 710 148 710 189 710 c 128,-1,4
 230 710 230 710 258.5 686.5 c 128,-1,5
 287 663 287 663 287 615 c 128,-1,6
 287 567 287 567 258.5 540 c 128,-1,7
 230 513 230 513 189 513 c 128,-1,0
 148 513 148 513 119 536.5 c 128,-1,1
139.5 661 m 128,-1,9
 120 640 120 640 120 608.5 c 128,-1,10
 120 577 120 577 139.5 559 c 128,-1,11
 159 541 159 541 188 541 c 256,12,13
 217 541 217 541 237 561.5 c 128,-1,14
 257 582 257 582 257 614 c 128,-1,15
 257 646 257 646 237 664 c 128,-1,16
 217 682 217 682 188 682 c 256,17,8
 159 682 159 682 139.5 661 c 128,-1,9
EndSplineSet
EndChar

StartChar: plusminus
Encoding: 177 177 112
Width: 833
GlyphClass: 2
Flags: HW
LayerCount: 2
Fore
SplineSet
366 490 m 1,0,-1
 366 700 l 1,1,-1
 426 700 l 1,2,-1
 426 490 l 1,3,-1
 646 490 l 1,4,-1
 646 432 l 1,5,-1
 426 432 l 1,6,-1
 426 200 l 1,7,-1
 366 200 l 1,8,-1
 366 432 l 1,9,-1
 146 432 l 1,10,-1
 146 490 l 1,11,-1
 366 490 l 1,0,-1
646 123 m 1,12,-1
 646 65 l 1,13,-1
 146 65 l 1,14,-1
 146 123 l 1,15,-1
 646 123 l 1,12,-1
EndSplineSet
EndChar

StartChar: twosuperior
Encoding: 178 178 113
Width: 236
GlyphClass: 2
Flags: HW
LayerCount: 2
Fore
SplineSet
104 727 m 0,0,1
 85 727 85 727 49 711 c 1,2,-1
 39 729 l 1,3,4
 77 748 77 748 108.75 748 c 0,5,6
 140.5 748 140.5 748 160.75 731.8 c 128,-1,7
 181 715.6 181 715.6 181 686.3 c 128,-1,8
 181 657 181 657 170 635.5 c 128,-1,9
 159 614 159 614 142 594 c 128,-1,10
 125 574 125 574 104.5 555.5 c 128,-1,11
 84 537 84 537 65 519 c 1,12,-1
 187 519 l 1,13,-1
 189 498 l 1,14,-1
 36 498 l 1,15,-1
 32 519 l 1,16,17
 102.208955224 586.701492537 102.208955224 586.701492537 120.104477612 607.850746269 c 0,18,19
 156 650.272727273 156 650.272727273 156 679.95215311 c 0,20,21
 156 727 156 727 104 727 c 0,0,1
EndSplineSet
EndChar

StartChar: threesuperior
Encoding: 179 179 114
Width: 300
GlyphClass: 2
Flags: HW
LayerCount: 2
Fore
SplineSet
134 519 m 0,0,1
 210 519 210 519 210 572 c 0,2,3
 210 616.620689655 210 616.620689655 155.5 618.5 c 0,4,5
 141 619 141 619 128 619 c 1,6,-1
 128 635 l 1,7,-1
 159 635 l 2,8,9
 170.916666667 635 170.916666667 635 182.958333333 643.5 c 0,10,11
 208 661.176470588 208 661.176470588 208 688 c 0,12,13
 208 700 208 700 199.5 711.5 c 128,-1,14
 191 723 191 723 167.5 723 c 128,-1,15
 144 723 144 723 108 707 c 1,16,-1
 102 725 l 1,17,18
 136.2 744 136.2 744 166.1 744 c 128,-1,19
 196 744 196 744 214.5 730.5 c 128,-1,20
 233 717 233 717 233 691 c 256,21,22
 233 651.066666667 233 651.066666667 190 631 c 1,23,24
 235 619.157894737 235 619.157894737 235 574 c 0,25,26
 235 499 235 499 136 499 c 0,27,28
 110.5 499 110.5 499 91 505 c 1,29,-1
 97 524 l 1,30,31
 110.333333333 519 110.333333333 519 134 519 c 0,0,1
EndSplineSet
EndChar

StartChar: acute
Encoding: 180 180 115
Width: 300
GlyphClass: 2
Flags: HW
LayerCount: 2
Fore
SplineSet
240 743 m 1,0,-1
 121 595 l 1,1,-1
 76 603 l 1,2,-1
 180 750 l 1,3,-1
 240 743 l 1,0,-1
EndSplineSet
EndChar

StartChar: mu
Encoding: 181 181 116
Width: 517
GlyphClass: 2
Flags: HW
LayerCount: 2
Fore
SplineSet
188.5 64.5 m 0,0,1
 209.679121918 55.7184128631 209.679121918 55.7184128631 258.068804097 55.7184128631 c 128,-1,2
 306.458486275 55.7184128631 306.458486275 55.7184128631 382 95 c 1,3,-1
 382 500 l 1,4,-1
 447 505 l 1,5,-1
 447 0 l 1,6,-1
 382 0 l 1,7,-1
 382 54 l 1,8,9
 307.528571429 -3.28571428571 307.528571429 -3.28571428571 230.857142857 -3.28571428571 c 0,10,11
 180.357142857 -3.28571428571 180.357142857 -3.28571428571 141 13 c 0,12,13
 138 15 138 15 135 16 c 1,14,-1
 135 -250 l 1,15,-1
 70 -250 l 1,16,-1
 70 500 l 1,17,-1
 135 505 l 1,18,-1
 135 149 l 2,19,20
 135 86.6829268293 135 86.6829268293 188.5 64.5 c 0,0,1
EndSplineSet
EndChar

StartChar: paragraph
Encoding: 182 182 117
Width: 611
GlyphClass: 2
Flags: HW
LayerCount: 2
Fore
SplineSet
341 700 m 1,0,-1
 341 0 l 1,1,-1
 281 0 l 1,2,-1
 281 359 l 1,3,4
 207.976744186 359 207.976744186 359 161.488372093 403.422222222 c 0,5,6
 115 447.844444444 115 447.844444444 115 524.633333333 c 0,7,8
 115 601.422222222 115 601.422222222 163.217391304 650.711111111 c 0,9,10
 211.434782609 700 211.434782609 700 281 700 c 2,11,-1
 341 700 l 1,0,-1
458 700 m 1,12,-1
 458 0 l 1,13,-1
 448 0 l 1,14,-1
 448 700 l 1,15,-1
 458 700 l 1,12,-1
EndSplineSet
EndChar

StartChar: periodcentered
Encoding: 183 183 118
Width: 136
GlyphClass: 2
Flags: HW
LayerCount: 2
Fore
SplineSet
66 348 m 0,0,1
 34 348 34 348 34 382 c 0,2,3
 34 399 34 399 43 409.5 c 128,-1,4
 52 420 52 420 69 420 c 0,5,6
 99 420 99 420 99 382 c 0,7,8
 99 366 99 366 89.5 357 c 128,-1,9
 80 348 80 348 66 348 c 0,0,1
EndSplineSet
EndChar

StartChar: cedilla
Encoding: 184 184 119
Width: 260
GlyphClass: 2
Flags: HW
LayerCount: 2
Fore
SplineSet
129 0 m 1,0,-1
 161 6 l 1,1,2
 169.066666667 -13.8 169.066666667 -13.8 169.066666667 -26.0166666667 c 0,3,4
 169.066666667 -61.1238095238 169.066666667 -61.1238095238 150 -87 c 0,5,6
 121.069053708 -126.26342711 121.069053708 -126.26342711 68 -139 c 1,7,-1
 58 -118 l 1,8,9
 100.915254237 -103.694915254 100.915254237 -103.694915254 116.979366249 -83.9798686943 c 128,-1,10
 133.043478261 -64.2648221344 133.043478261 -64.2648221344 133.043478261 -43.4802371542 c 128,-1,11
 133.043478261 -22.6956521739 133.043478261 -22.6956521739 126 0 c 1,12,-1
 129 0 l 1,0,-1
EndSplineSet
EndChar

StartChar: onesuperior
Encoding: 185 185 120
Width: 275
GlyphClass: 2
Flags: HW
LayerCount: 2
Fore
SplineSet
87 735 m 1,0,-1
 146 749 l 1,1,-1
 170 749 l 1,2,-1
 170 500 l 1,3,-1
 146 500 l 1,4,-1
 146 731 l 1,5,-1
 87 717 l 1,6,-1
 87 735 l 1,0,-1
EndSplineSet
EndChar

StartChar: ordmasculine
Encoding: 186 186 121
Width: 383
GlyphClass: 2
Flags: HW
LayerCount: 2
Fore
SplineSet
116 523 m 128,-1,1
 89 545 89 545 89 595.5 c 128,-1,2
 89 646 89 646 116.5 672.5 c 128,-1,3
 144 699 144 699 182.5 699 c 128,-1,4
 221 699 221 699 247.5 677.5 c 128,-1,5
 274 656 274 656 274 605.5 c 128,-1,6
 274 555 274 555 247 528 c 128,-1,7
 220 501 220 501 181.5 501 c 128,-1,0
 143 501 143 501 116 523 c 128,-1,1
135 656.5 m 128,-1,9
 115 636 115 636 115 598.5 c 128,-1,10
 115 561 115 561 134 542.5 c 128,-1,11
 153 524 153 524 181 524 c 128,-1,12
 209 524 209 524 229 544.5 c 128,-1,13
 249 565 249 565 249 602 c 128,-1,14
 249 639 249 639 229.5 658 c 128,-1,15
 210 677 210 677 182.5 677 c 128,-1,8
 155 677 155 677 135 656.5 c 128,-1,9
EndSplineSet
EndChar

StartChar: guillemotright
Encoding: 187 187 122
Width: 694
GlyphClass: 2
Flags: HW
LayerCount: 2
Fore
SplineSet
331 136 m 1,0,-1
 535 259 l 1,1,-1
 331 382 l 1,2,-1
 331 430 l 1,3,-1
 600 259 l 1,4,-1
 331 88 l 1,5,-1
 331 136 l 1,0,-1
75 136 m 1,6,-1
 279 259 l 1,7,-1
 75 382 l 1,8,-1
 75 430 l 1,9,-1
 344 259 l 1,10,-1
 75 88 l 1,11,-1
 75 136 l 1,6,-1
EndSplineSet
EndChar

StartChar: onequarter
Encoding: 188 188 123
Width: 840
GlyphClass: 2
Flags: HW
LayerCount: 2
Fore
SplineSet
556 750 m 1,0,-1
 305 0 l 1,1,-1
 257 0 l 1,2,-1
 509 750 l 1,3,-1
 556 750 l 1,0,-1
675 0 m 1,4,-1
 675 98 l 1,5,-1
 465 98 l 1,6,-1
 453 136 l 1,7,-1
 675 463 l 1,8,-1
 723 463 l 1,9,-1
 723 136 l 1,10,-1
 755 136 l 1,11,-1
 756 98 l 1,12,-1
 723 98 l 1,13,-1
 723 0 l 1,14,-1
 675 0 l 1,4,-1
675 136 m 1,15,-1
 675 393 l 1,16,-1
 500 136 l 1,17,-1
 675 136 l 1,15,-1
80 692 m 1,18,19
 79 725 l 1,20,-1
 188 749 l 1,21,-1
 230 749 l 1,22,-1
 230 300 l 1,23,-1
 188 300 l 1,24,-1
 188 716 l 1,25,-1
 80 692 l 1,18,19
EndSplineSet
EndChar

